<svg xmlns="http://www.w3.org/2000/svg" width="1240" height="518" viewBox="0 0 1240 518">
  <g id="Grupo_138078" data-name="Grupo 138078" transform="translate(-180.333 -378)">
    <rect id="Rectángulo_85237" data-name="Rectángulo 85237" width="190" height="98" rx="10" transform="translate(180.333 588)" fill="#fc4b52"/>
    <text id="Gestión_de_plataformas_digitales" data-name="Gestión de 
plataformas
 digitales" transform="translate(275.333 619)" fill="#fff" font-size="18" font-family="Roboto-Bold, Roboto" font-weight="700"><tspan x="-45.598" y="0">Gestión de </tspan><tspan x="-48.986" y="25">plataformas</tspan><tspan x="-36.967" y="50" xml:space="preserve"> digitales</tspan></text>
    <rect id="Rectángulo_85247" data-name="Rectángulo 85247" width="189" height="80" rx="10" transform="translate(623.333 403)" fill="#feca2e"/>
    <text id="Infraestructura_tecnológica" data-name="Infraestructura tecnológica" transform="translate(629.333 421)" fill="#12263f" font-size="16" font-family="Roboto-Regular, Roboto"><tspan x="-52.477" y="17">Infraestructura </tspan><tspan x="-41.488" y="41">tecnológica</tspan></text>
    <text id="Necesita_de" data-name="Necesita de" transform="translate(447.333 450)" fill="#12263f" font-size="18" font-family="Roboto-Regular, Roboto"><tspan x="0" y="0">Necesita de</tspan></text>
    <text id="Administra" transform="translate(447.333 644)" fill="#12263f" font-size="18" font-family="Roboto-Regular, Roboto"><tspan x="0" y="0">Administra</tspan></text>
    <text id="Impacta_a_través_de" data-name="Impacta a 
través de" transform="translate(494.333 826)" fill="#12263f" font-size="18" font-family="Roboto-Regular, Roboto"><tspan x="-42.179" y="0">Impacta a </tspan><tspan x="-36.479" y="25">través de</tspan></text>
    <g id="Rectángulo_88160" data-name="Rectángulo 88160" transform="translate(399.333 797)" fill="none" stroke="#dff7f9" stroke-width="2">
      <rect width="190" height="69" rx="24" stroke="none"/>
      <rect x="1" y="1" width="188" height="67" rx="23" fill="none"/>
    </g>
    <g id="Rectángulo_88161" data-name="Rectángulo 88161" transform="translate(399.333 603)" fill="none" stroke="#a7e446" stroke-width="2">
      <rect width="190" height="69" rx="24" stroke="none"/>
      <rect x="1" y="1" width="188" height="67" rx="23" fill="none"/>
    </g>
    <g id="Rectángulo_88162" data-name="Rectángulo 88162" transform="translate(399.333 409)" fill="none" stroke="#feca2e" stroke-width="2">
      <rect width="190" height="69" rx="24" stroke="none"/>
      <rect x="1" y="1" width="188" height="67" rx="23" fill="none"/>
    </g>
    <rect id="Rectángulo_88163" data-name="Rectángulo 88163" width="189" height="80" rx="10" transform="translate(623.333 597)" fill="#a7e446"/>
    <text id="Plataformas_digitales" data-name="Plataformas digitales" transform="translate(629.333 627)" fill="#12263f" font-size="16" font-family="Roboto-Regular, Roboto"><tspan x="-75.973" y="17">Plataformas digitales</tspan></text>
    <rect id="Rectángulo_88164" data-name="Rectángulo 88164" width="189" height="80" rx="10" transform="translate(623.333 791)" fill="#dff7f9"/>
    <text id="Comunicación_visual" data-name="Comunicación visual" transform="translate(629.333 821)" fill="#12263f" font-size="16" font-family="Roboto-Regular, Roboto"><tspan x="-73.816" y="17">Comunicación visual</tspan></text>
    <g id="Grupo_137988" data-name="Grupo 137988" transform="translate(39 -114)">
      <rect id="Rectángulo_88165" data-name="Rectángulo 88165" width="164" height="60" rx="10" transform="translate(810.333 492)" fill="#feca2e"/>
      <rect id="Rectángulo_88166" data-name="Rectángulo 88166" width="164" height="60" rx="10" transform="translate(810.333 562)" fill="#feca2e"/>
      <text id="Características" transform="translate(832.333 529)" fill="#12263f" font-size="18" font-family="Roboto-Regular, Roboto"><tspan x="0" y="0">Características</tspan></text>
      <text id="Tipos" transform="translate(870.333 599)" fill="#12263f" font-size="18" font-family="Roboto-Regular, Roboto"><tspan x="0" y="0">Tipos</tspan></text>
      <rect id="Rectángulo_88167" data-name="Rectángulo 88167" width="164" height="60" rx="10" transform="translate(984.333 492)" fill="#feca2e"/>
      <rect id="Rectángulo_88168" data-name="Rectángulo 88168" width="164" height="60" rx="10" transform="translate(984.333 562)" fill="#feca2e"/>
      <text id="Elementos" transform="translate(1024.333 529)" fill="#12263f" font-size="18" font-family="Roboto-Regular, Roboto"><tspan x="0" y="0">Elementos</tspan></text>
      <text id="Gestión" transform="translate(1035.333 599)" fill="#12263f" font-size="18" font-family="Roboto-Regular, Roboto"><tspan x="0" y="0">Gestión</tspan></text>
    </g>
    <g id="Grupo_137987" data-name="Grupo 137987" transform="translate(39 -106)">
      <rect id="Rectángulo_88169" data-name="Rectángulo 88169" width="164" height="60" rx="10" transform="translate(810.333 678)" fill="#a7e446"/>
      <rect id="Rectángulo_88170" data-name="Rectángulo 88170" width="164" height="60" rx="10" transform="translate(810.333 748)" fill="#a7e446"/>
      <text id="Características-2" data-name="Características" transform="translate(832.333 715)" fill="#12263f" font-size="18" font-family="Roboto-Regular, Roboto"><tspan x="0" y="0">Características</tspan></text>
      <text id="Tipos-2" data-name="Tipos" transform="translate(870.333 785)" fill="#12263f" font-size="18" font-family="Roboto-Regular, Roboto"><tspan x="0" y="0">Tipos</tspan></text>
      <rect id="Rectángulo_88171" data-name="Rectángulo 88171" width="164" height="60" rx="10" transform="translate(984.333 678)" fill="#a7e446"/>
      <rect id="Rectángulo_88172" data-name="Rectángulo 88172" width="164" height="60" rx="10" transform="translate(984.333 748)" fill="#a7e446"/>
      <text id="Objetivos" transform="translate(1029.333 715)" fill="#12263f" font-size="18" font-family="Roboto-Regular, Roboto"><tspan x="0" y="0">Objetivos</tspan></text>
      <text id="Ventajas" transform="translate(1031.333 785)" fill="#12263f" font-size="18" font-family="Roboto-Regular, Roboto"><tspan x="0" y="0">Ventajas</tspan></text>
    </g>
    <g id="Grupo_137989" data-name="Grupo 137989" transform="translate(39 -106)">
      <rect id="Rectángulo_88173" data-name="Rectángulo 88173" width="164" height="60" rx="10" transform="translate(810.333 872)" fill="#dff7f9"/>
      <rect id="Rectángulo_88174" data-name="Rectángulo 88174" width="164" height="60" rx="10" transform="translate(810.333 942)" fill="#dff7f9"/>
      <text id="Elementos-2" data-name="Elementos" transform="translate(850.333 909)" fill="#12263f" font-size="18" font-family="Roboto-Regular, Roboto"><tspan x="0" y="0">Elementos</tspan></text>
      <rect id="Rectángulo_88175" data-name="Rectángulo 88175" width="164" height="60" rx="10" transform="translate(984.333 872)" fill="#dff7f9"/>
      <text id="Tipos-3" data-name="Tipos" transform="translate(1044.333 907)" fill="#12263f" font-size="18" font-family="Roboto-Regular, Roboto"><tspan x="0" y="0">Tipos</tspan></text>
      <rect id="Rectángulo_88176" data-name="Rectángulo 88176" width="164" height="60" rx="10" transform="translate(984.333 942)" fill="#dff7f9"/>
      <text id="El_mensaje_comunicacional" data-name="El mensaje
comunicacional" transform="translate(892.333 967)" fill="#12263f" font-size="18" font-family="Roboto-Regular, Roboto"><tspan x="-43.603" y="0">El mensaje</tspan><tspan x="-63.523" y="25">comunicacional</tspan></text>
      <text id="Semiótica" transform="translate(1026.333 979)" fill="#12263f" font-size="18" font-family="Roboto-Regular, Roboto"><tspan x="0" y="0">Semiótica</tspan></text>
    </g>
    <rect id="Rectángulo_88177" data-name="Rectángulo 88177" width="200" height="94" rx="10" transform="translate(1220.333 590)" fill="#a7e446"/>
    <text id="Gestión_de_plataformas_digitales-2" data-name="Gestión de 
plataformas
 digitales" transform="translate(1232.333 603)" fill="#12263f" font-size="16" font-family="Roboto-Regular, Roboto"><tspan x="-38.074" y="17">Gestión de </tspan><tspan x="-43.281" y="41">plataformas</tspan><tspan x="-32.133" y="65" xml:space="preserve"> digitales</tspan></text>
    <g id="Grupo_137990" data-name="Grupo 137990" transform="translate(13667.333 10336.192)">
      <g id="Grupo_135057" data-name="Grupo 135057" transform="translate(-5418.192 -23991.525) rotate(-90)">
        <path id="Trazado_192666" data-name="Trazado 192666" d="M-9997.5-8437v23.239" transform="translate(-4294.833 558.386)" fill="none" stroke="#12263f" stroke-width="2"/>
        <path id="Polígono_57" data-name="Polígono 57" d="M5,0l5,8.75H0Z" transform="translate(-14287.333 -7851) rotate(180)" fill="#12263f"/>
      </g>
    </g>
    <g id="Grupo_137993" data-name="Grupo 137993">
      <g id="Grupo_137991" data-name="Grupo 137991" transform="translate(13667.333 10531.192)">
        <g id="Grupo_135057-2" data-name="Grupo 135057" transform="translate(-5418.192 -23991.525) rotate(-90)">
          <path id="Trazado_192666-2" data-name="Trazado 192666" d="M-9997.5-8437v23.239" transform="translate(-4294.833 558.386)" fill="none" stroke="#12263f" stroke-width="2"/>
          <path id="Polígono_57-2" data-name="Polígono 57" d="M5,0l5,8.75H0Z" transform="translate(-14287.333 -7851) rotate(180)" fill="#12263f"/>
        </g>
      </g>
      <path id="Trazado_210172" data-name="Trazado 210172" d="M-12484-9432v146h114.667" transform="translate(12759.333 10118)" fill="none" stroke="#12263f" stroke-width="2"/>
    </g>
    <g id="Grupo_137994" data-name="Grupo 137994">
      <path id="Trazado_210173" data-name="Trazado 210173" d="M-12484-9286v-146h114.667" transform="translate(12759.333 9874)" fill="none" stroke="#12263f" stroke-width="2"/>
      <g id="Grupo_137992" data-name="Grupo 137992" transform="translate(13667.333 10141.192)">
        <g id="Grupo_135057-3" data-name="Grupo 135057" transform="translate(-5418.192 -23991.525) rotate(-90)">
          <path id="Trazado_192666-3" data-name="Trazado 192666" d="M-9997.5-8437v23.239" transform="translate(-4294.833 558.386)" fill="none" stroke="#12263f" stroke-width="2"/>
          <path id="Polígono_57-3" data-name="Polígono 57" d="M5,0l5,8.75H0Z" transform="translate(-14287.333 -7851) rotate(180)" fill="#12263f"/>
        </g>
      </g>
    </g>
    <g id="Grupo_137995" data-name="Grupo 137995" transform="translate(1192.191 686)">
      <g id="Grupo_137991-2" data-name="Grupo 137991" transform="translate(0 141)">
        <g id="Grupo_135057-4" data-name="Grupo 135057" transform="translate(0 10) rotate(-90)">
          <path id="Trazado_192666-4" data-name="Trazado 192666" d="M0,23.239V0" transform="translate(5 4.377)" fill="none" stroke="#12263f" stroke-width="2"/>
          <path id="Polígono_57-4" data-name="Polígono 57" d="M5,0l5,8.75H0Z" fill="#12263f"/>
        </g>
      </g>
      <path id="Trazado_210172-2" data-name="Trazado 210172" d="M-12369.332-9432v146H-12484" transform="translate(12492.141 9432)" fill="none" stroke="#12263f" stroke-width="2"/>
    </g>
    <g id="Grupo_137996" data-name="Grupo 137996" transform="translate(1192.191 437)">
      <path id="Trazado_210173-2" data-name="Trazado 210173" d="M-12369.332-9286v-146H-12484" transform="translate(12492.141 9437)" fill="none" stroke="#12263f" stroke-width="2"/>
      <g id="Grupo_137992-2" data-name="Grupo 137992">
        <g id="Grupo_135057-5" data-name="Grupo 135057" transform="translate(0 10) rotate(-90)">
          <path id="Trazado_192666-5" data-name="Trazado 192666" d="M0,23.239V0" transform="translate(5 4.377)" fill="none" stroke="#12263f" stroke-width="2"/>
          <path id="Polígono_57-5" data-name="Polígono 57" d="M5,0l5,8.75H0Z" fill="#12263f"/>
        </g>
      </g>
    </g>
    <g id="Grupo_137997" data-name="Grupo 137997" transform="translate(13892.524 10142.192)">
      <g id="Grupo_135057-6" data-name="Grupo 135057" transform="translate(-5418.192 -23991.525) rotate(-90)">
        <path id="Trazado_192666-6" data-name="Trazado 192666" d="M-9997.5-8437v29.589" transform="translate(-4294.833 552.036)" fill="none" stroke="#12263f" stroke-width="2"/>
        <path id="Polígono_57-6" data-name="Polígono 57" d="M5,0l5,8.75H0Z" transform="translate(-14287.333 -7851) rotate(180)" fill="#12263f"/>
      </g>
    </g>
    <g id="Grupo_137998" data-name="Grupo 137998" transform="translate(13892.524 10336.192)">
      <g id="Grupo_135057-7" data-name="Grupo 135057" transform="translate(-5418.192 -23991.525) rotate(-90)">
        <path id="Trazado_192666-7" data-name="Trazado 192666" d="M-9997.5-8437v29.589" transform="translate(-4294.833 552.036)" fill="none" stroke="#12263f" stroke-width="2"/>
        <path id="Polígono_57-7" data-name="Polígono 57" d="M5,0l5,8.75H0Z" transform="translate(-14287.333 -7851) rotate(180)" fill="#12263f"/>
      </g>
    </g>
    <g id="Grupo_137999" data-name="Grupo 137999" transform="translate(13892.489 10530.192)">
      <g id="Grupo_135057-8" data-name="Grupo 135057" transform="translate(-5418.192 -23991.525) rotate(-90)">
        <path id="Trazado_192666-8" data-name="Trazado 192666" d="M-9997.5-8437v29.589" transform="translate(-4294.833 552.036)" fill="none" stroke="#12263f" stroke-width="2"/>
        <path id="Polígono_57-8" data-name="Polígono 57" d="M5,0l5,8.75H0Z" transform="translate(-14287.333 -7851) rotate(180)" fill="#12263f"/>
      </g>
    </g>
    <g id="Grupo_138000" data-name="Grupo 138000" transform="translate(14115.489 10142.192)">
      <g id="Grupo_135057-9" data-name="Grupo 135057" transform="translate(-5418.192 -23991.525) rotate(-90)">
        <path id="Trazado_192666-9" data-name="Trazado 192666" d="M-9997.5-8437v29.589" transform="translate(-4294.833 552.036)" fill="none" stroke="#12263f" stroke-width="2"/>
        <path id="Polígono_57-9" data-name="Polígono 57" d="M5,0l5,8.75H0Z" transform="translate(-14287.333 -7851) rotate(180)" fill="#12263f"/>
      </g>
    </g>
    <g id="Grupo_138001" data-name="Grupo 138001" transform="translate(14115.489 10336.192)">
      <g id="Grupo_135057-10" data-name="Grupo 135057" transform="translate(-5418.192 -23991.525) rotate(-90)">
        <path id="Trazado_192666-10" data-name="Trazado 192666" d="M-9997.5-8437v29.589" transform="translate(-4294.833 552.036)" fill="none" stroke="#12263f" stroke-width="2"/>
        <path id="Polígono_57-10" data-name="Polígono 57" d="M5,0l5,8.75H0Z" transform="translate(-14287.333 -7851) rotate(180)" fill="#12263f"/>
      </g>
    </g>
    <g id="Grupo_138002" data-name="Grupo 138002" transform="translate(14115.489 10530.192)">
      <g id="Grupo_135057-11" data-name="Grupo 135057" transform="translate(-5418.192 -23991.525) rotate(-90)">
        <path id="Trazado_192666-11" data-name="Trazado 192666" d="M-9997.5-8437v29.589" transform="translate(-4294.833 552.036)" fill="none" stroke="#12263f" stroke-width="2"/>
        <path id="Polígono_57-11" data-name="Polígono 57" d="M5,0l5,8.75H0Z" transform="translate(-14287.333 -7851) rotate(180)" fill="#12263f"/>
      </g>
    </g>
  </g>
</svg>
