<svg xmlns="http://www.w3.org/2000/svg" xmlns:xlink="http://www.w3.org/1999/xlink" width="190" height="104" viewBox="0 0 190 104">
  <defs>
    <clipPath id="clip-path">
      <rect id="Rect치ngulo_88117" data-name="Rect치ngulo 88117" width="82.646" height="82.692" fill="none"/>
    </clipPath>
  </defs>
  <g id="Grupo_140636" data-name="Grupo 140636" transform="translate(-285.049 -397)">
    <g id="Grupo_117448" data-name="Grupo 117448" transform="translate(0 -14)">
      <rect id="Rect치ngulo_41122" data-name="Rect치ngulo 41122" width="190" height="104" transform="translate(285.049 411)" fill="none"/>
      <g id="Grupo_117447" data-name="Grupo 117447" transform="translate(-3337.231 1038.209)" opacity="0.3">
        <path id="Trazado_158283" data-name="Trazado 158283" d="M3677.784-530.075h0a16.354,16.354,0,0,0,23.129,0l67.216-67.214a16.357,16.357,0,0,0,0-23.129,16.355,16.355,0,0,0-23.129,0L3677.784-553.2A16.353,16.353,0,0,0,3677.784-530.075Z" transform="translate(14.296)" fill="#fc4b52"/>
        <path id="Trazado_158284" data-name="Trazado 158284" d="M3652.069-530.075h0a16.354,16.354,0,0,0,23.129,0l67.216-67.214a16.358,16.358,0,0,0,0-23.129,16.355,16.355,0,0,0-23.129,0L3652.069-553.2A16.354,16.354,0,0,0,3652.069-530.075Z" transform="translate(0)" fill="#feca2e"/>
      </g>
      <g id="Grupo_137945" data-name="Grupo 137945" transform="translate(339.049 421.582)">
        <g id="Grupo_137945-2" data-name="Grupo 137945" clip-path="url(#clip-path)">
          <path id="Trazado_210039" data-name="Trazado 210039" d="M82.646,15.482v25.8a1.5,1.5,0,0,1-1.07.256c-.94.009-1.881-.006-2.821.006-.921.012-.993.084-1,1.029-.012,1.021,0,2.042,0,3.064q0,12.457,0,24.913c0,1.433,0,1.433,1.411,1.435.833,0,1.666-.006,2.5,0a1.388,1.388,0,0,1,.99.256v5a6.009,6.009,0,0,1-6.4,5.4q-31.71.007-63.421,0c-2.443,0-4.893.147-7.327-.065a5.982,5.982,0,0,1-5.482-6C0,75.347.051,74.109,0,72.876c-.027-.663.281-.858.85-.872,1.074-.027,2.149,0,3.223-.016.838-.015.911-.1.921-.937.012-.974-.082-1.1-.921-1.121-1.047-.024-2.1.019-3.143-.018-.833-.029-.915-.126-.915-.951q0-12.171,0-24.342c0-.867.089-.971.953-1,1.02-.033,2.042,0,3.062-.016.85-.016.945-.1.96-.914.018-.967-.006-1.934.008-2.9.008-.577-.232-.83-.812-.827-1.021.005-2.042.015-3.062-.006s-1.109-.1-1.109-1.091q0-18.538,0-37.077A1.474,1.474,0,0,1,.094,0H46.53a1.967,1.967,0,0,1,.258,1.391q.009,9.828,0,19.657c0,.242,0,.483,0,.725.008,1.106.588,1.5,1.643,1.133.452-.156.4-.532.4-.865.02-1.5.006-3.007.009-4.511,0-.376-.01-.752.007-1.128.042-.933.231-1.125,1.149-1.174.188-.01.376-.008.564-.008q15.344,0,30.687,0a1.965,1.965,0,0,1,1.391.258" transform="translate(0)"/>
          <path id="Trazado_210040" data-name="Trazado 210040" d="M216.259,278.526c-.717-.7-1.287-1.257-1.849-1.819-2-1.993-3.983-4-5.99-5.979a1.413,1.413,0,0,1-.484-1.115c.027-1.961.035-3.923,0-5.884-.011-.584.172-.728.723-.7a19.789,19.789,0,0,0,2.416,0c.592-.039.772.122.762.741-.041,2.335-.016,4.671-.016,7.007.3.073.4-.165.553-.29q4.248-3.525,8.479-7.069a1.552,1.552,0,0,1,1.09-.384c2.821.015,5.642-.016,8.462.025.659.009.788-.2.778-.807-.036-2.1,0-4.192-.025-6.287-.007-.514.118-.68.659-.677q5.8.036,11.606,0c.544,0,.657.168.656.679q-.022,12.253,0,24.506c0,.47-.086.644-.609.643q-17.449-.024-34.9,0c-.491,0-.63-.12-.632-.623-.01-1.968-.031-1.968,1.936-1.968Z" transform="translate(-174.316 -214.019)" fill="#afafaf"/>
          <path id="Trazado_210041" data-name="Trazado 210041" d="M16.491,38.85c0-4.189.006-8.192-.009-12.2,0-.431.169-.52.552-.582a11.524,11.524,0,0,0,9.579-9.481c.1-.655.376-.677.882-.676q9.309.017,18.618.007,5.521,0,11.042-.006c.389,0,.628,0,.626.528-.022,5.992-.015,11.984-.019,17.976a1.794,1.794,0,0,1-.151.335,7.342,7.342,0,0,0-.561-.733c-3.453-3.463-6.92-6.911-10.359-10.388-.442-.447-.662-.457-1.1.012-3.617,3.9-7.273,7.765-10.889,11.667-.431.465-.667.463-1.133.063-2.039-1.747-4.13-3.434-6.167-5.184-.495-.425-.773-.386-1.241.037-2.99,2.7-6.012,5.366-9.023,8.043l-.649.575" transform="translate(-13.817 -13.343)" fill="#dff7f9"/>
          <path id="Trazado_210042" data-name="Trazado 210042" d="M333.842,132.289c-4.485,0-8.969-.012-13.454.014-.591,0-.758-.126-.756-.741q.038-9.589,0-19.178c0-.6.134-.754.744-.753q13.454.033,26.908,0c.59,0,.758.126.756.741q-.038,9.589,0,19.178c0,.6-.134.757-.744.753-4.484-.029-8.969-.016-13.454-.016" transform="translate(-267.959 -93.585)" fill="#fc4b52"/>
          <path id="Trazado_210043" data-name="Trazado 210043" d="M49.528,302.7c-1.432,0-2.635.038-3.834-.015-.641-.028-.887.1-.849.809.068,1.26,0,2.526.029,3.788.01.442-.1.59-.569.589q-13.623-.021-27.246,0c-.45,0-.583-.115-.582-.575q.022-9.756,0-19.512c0-.461.134-.575.583-.574q13.623.019,27.246-.005c.582,0,.565.265.563.675-.009,3.171.007,6.343-.017,9.514a1.48,1.48,0,0,0,.5,1.185c1.353,1.3,2.678,2.639,4.174,4.122" transform="translate(-13.813 -240.771)" fill="#a7e446"/>
          <path id="Trazado_210044" data-name="Trazado 210044" d="M160.9,185.154c0-1.576-.021-2.972.011-4.367.011-.486-.1-.643-.617-.633-1.745.034-3.492-.008-5.237.026-.508.01-.631-.141-.623-.631.011-.633.3-1.5-.122-1.841-.394-.32-1.225-.118-1.864-.119-2.551-.006-5.1-.016-7.654.008-.507,0-.679-.106-.677-.652q.032-8.381,0-16.762c0-.516.122-.672.658-.671q12.247.027,24.494,0c.624,0,.669.237.667.744-.016,4.647.006,9.295-.027,13.942,0,.675.163.862.834.829,1.206-.059,2.418.025,3.624-.034.635-.031.753.189.732.766-.044,1.234-.042,2.472,0,3.706.018.548-.109.73-.694.721-2.282-.037-4.566,0-6.848-.027a1.735,1.735,0,0,0-1.226.46c-1.757,1.488-3.532,2.954-5.434,4.539" transform="translate(-120.818 -133.722)" fill="#feca2e"/>
          <path id="Trazado_210045" data-name="Trazado 210045" d="M55.115,467.958H20.944c-3.03,0-4.542-1.559-4.509-4.578.006-.54.194-.6.647-.592,1.531.025,3.062.009,4.594.009q12.573,0,25.145-.007a1.042,1.042,0,0,1,1.123.612,3.581,3.581,0,0,0,3.286,1.964q3.908.046,7.817,0a3.668,3.668,0,0,0,3.342-2.015.886.886,0,0,1,.906-.565q14.95.022,29.9,0c.523,0,.661.129.662.657.008,2.986-1.493,4.515-4.49,4.515H55.115" transform="translate(-13.777 -387.97)" fill="#dff7f9"/>
          <path id="Trazado_210046" data-name="Trazado 210046" d="M80.653,283.651q15.677,0,31.353.019c.724,0,.861-.187.859-.876-.025-8.895-.006-17.789-.036-26.684,0-.724.185-.882.877-.86,1.721.053,1.722.016,1.722,1.768,0,9.459-.01,18.918.02,28.377,0,.737-.207.854-.883.853-8.893-.024-17.786,0-26.678-.036-.736,0-.88.2-.853.883.051,1.3-.4,1.716-1.729,1.717q-3.466,0-6.932,0c-1.2,0-1.694-.446-1.62-1.657.049-.8-.2-.943-.961-.941-8.866.03-17.732.008-26.6.039-.728,0-.879-.191-.858-.879.052-1.72.016-1.721,1.769-1.721Z" transform="translate(-40.521 -213.984)" fill="#dfdfdf"/>
          <path id="Trazado_210047" data-name="Trazado 210047" d="M16.116,135.726c0-1.153-.326-2.447.093-3.42.4-.94,1.574-1.553,2.414-2.3,2.445-2.178,4.9-4.341,7.33-6.541.4-.363.627-.308.991,0,1.509,1.29,3.024,2.576,4.573,3.818.458.367.363.566.024.922q-2.666,2.8-5.292,5.635a1.156,1.156,0,0,1-.972.424c-.911-.033-1.825-.022-2.737-.007a3.866,3.866,0,0,0-3.875,3.9,4.071,4.071,0,0,0,0,.644c.072.5-.122.625-.619.628-1.966.009-1.966.028-1.966-1.933v-1.772h.033" transform="translate(-13.409 -103.293)" fill="#64892a"/>
          <path id="Trazado_210048" data-name="Trazado 210048" d="M162.766,93.7h-18.7c.209-.239.35-.412.5-.575q4.044-4.322,8.092-8.641c.237-.253.391-.638.856-.167,3.034,3.078,6.1,6.126,9.151,9.186a.957.957,0,0,1,.1.2" transform="translate(-120.777 -70.501)" fill="#a7e446"/>
          <path id="Trazado_210049" data-name="Trazado 210049" d="M55.3,207.435c1.826,0,3.653.014,5.479-.01.449-.006.578.113.584.573.027,2.017.043,2.017-1.95,2.017-2.578,0-5.157.016-7.734-.013-.528-.006-.667.138-.66.662.03,2.149-.006,4.3.026,6.446.008.532-.144.661-.664.658-1.929-.01-1.929.011-1.929-1.878,0-2.283,0-4.567,0-6.85,0-1.155.452-1.6,1.61-1.605,1.746-.006,3.491,0,5.237,0" transform="translate(-40.613 -173.891)" fill="#dfdfdf"/>
          <path id="Trazado_210050" data-name="Trazado 210050" d="M16.483,19.651c0-1.074.02-2.148-.01-3.221-.012-.434.133-.539.548-.535,2.174.019,4.348.024,6.522,0,.51-.006.565.167.477.607a9.182,9.182,0,0,1-6.953,6.949c-.464.089-.608-.012-.594-.5.031-1.1.01-2.2.01-3.3" transform="translate(-13.809 -13.323)" fill="#feca2e"/>
          <path id="Trazado_210051" data-name="Trazado 210051" d="M84.122,244.521c-1.075,0-2.15-.018-3.224.009-.439.011-.609-.1-.6-.571q.046-2.014,0-4.03c-.011-.471.147-.581.593-.577q3.3.031,6.609,0c.4,0,.566.088.557.53q-.041,2.055,0,4.111c.008.436-.14.544-.552.535-1.128-.025-2.257-.008-3.385-.008" transform="translate(-67.317 -200.656)" fill="#8fa3ad"/>
          <path id="Trazado_210052" data-name="Trazado 210052" d="M103.594,160.107c0,1.659,0,3.1,0,4.55,0,.252.091.542-.362.536-1.408-.019-2.816-.007-4.389-.007l4.753-5.079" transform="translate(-82.862 -134.223)" fill="#a7e446"/>
          <path id="Trazado_210053" data-name="Trazado 210053" d="M316,309.589a8.33,8.33,0,0,1-.582-.625c-.288-.4-1.072-.675-.852-1.131a6.392,6.392,0,0,1,1.475-1.566c.186-.178.347,0,.478.135,1.873,1.873,3.745,3.747,5.76,5.766h-.867c-5.611,0-11.221-.016-16.832.019-.76,0-.936-.222-.915-.94.048-1.658.013-1.659,1.707-1.659H316Z" transform="translate(-254.57 -256.694)" fill="#fefefe"/>
          <path id="Trazado_210054" data-name="Trazado 210054" d="M306.7,361.8c.409.37.809.75,1.228,1.108.387.33.17.6-.114.764-.583.34-.945,1.657-1.63,1.068-2.005-1.724-3.8-3.694-5.831-5.723h.873c5.613,0,11.227.016,16.84-.019.763,0,.935.227.914.942-.048,1.656-.013,1.657-1.63,1.657H306.826l-.126.2" transform="translate(-251.796 -300.959)" fill="#fefefe"/>
          <path id="Trazado_210055" data-name="Trazado 210055" d="M102.736,31.869c1.907,0,3.814.015,5.72-.01.52-.007.69.146.7.681.023,1.91.043,1.91-1.875,1.91-3.41,0-6.821-.015-10.232.013-.625.005-.831-.155-.821-.805.028-1.788,0-1.788,1.758-1.788h4.753" transform="translate(-80.669 -26.708)" fill="#fefefe"/>
          <path id="Trazado_210056" data-name="Trazado 210056" d="M83.967,66.372c-1.1,0-2.2-.011-3.3.005-.4.006-.554-.122-.579-.549-.117-2.037-.131-2.037,1.906-2.037,1.718,0,3.437.016,5.154-.01.513-.008.7.133.7.674.025,1.916.046,1.915-1.869,1.915H83.967" transform="translate(-67.104 -53.471)" fill="#fefefe"/>
          <path id="Trazado_210057" data-name="Trazado 210057" d="M383.851,128.909l5.156,3.438q2.843,1.9,5.688,3.788c.284.188.492.308.06.594q-5.4,3.569-10.782,7.162c-.017.011-.05,0-.122-.008Z" transform="translate(-321.796 -108.069)"/>
          <path id="Trazado_210058" data-name="Trazado 210058" d="M335.584,130.223c0-.7.012-1.4,0-2.1-.008-.345.114-.475.465-.472,1.424.014,2.848.01,4.272,0,.306,0,.452.112.425.423a.511.511,0,0,0,0,.081c.145,2.037.145,2.055-1.911,2.066-.522,0-.753.143-.669.675a1.03,1.03,0,0,1,0,.161c-.008,1.775-.009,1.748-1.831,1.772-.6.008-.814-.147-.761-.76s.012-1.235.012-1.853" transform="translate(-281.315 -107.018)" fill="#fefefe"/>
          <path id="Trazado_210059" data-name="Trazado 210059" d="M449.858,196.38c-.672,0-1.345-.026-2.015.009-.474.025-.573-.165-.584-.6-.047-1.963-.06-1.98,1.856-1.973.524,0,.751-.084.75-.688,0-2.058.022-2.046,2.073-1.913.392.025.5.156.5.526-.015,1.371-.021,2.742,0,4.112.007.437-.158.554-.565.539-.671-.025-1.343-.007-2.015-.007" transform="translate(-374.943 -160.256)" fill="#fefefe"/>
          <path id="Trazado_210060" data-name="Trazado 210060" d="M64.146,303.174c1.1,0,2.2.017,3.3-.009.415-.01.557.1.543.533-.032.939.012,1.881-.019,2.82-.014.429.124.548.541.535.912-.029,1.827.009,2.739-.017.416-.012.618.044.611.547-.028,2.23-.025,4.46,0,6.689,0,.448-.155.533-.555.521-.859-.027-1.721.027-2.578-.021-.572-.032-.811.084-.764.726.065.882,0,1.772.024,2.658.01.374-.085.51-.486.507q-3.384-.028-6.768,0c-.381,0-.512-.1-.5-.492.026-.966-.009-1.934.017-2.9.011-.392-.117-.5-.5-.493-.939.025-1.88-.006-2.82.015-.379.008-.575-.037-.57-.505.025-2.257.021-4.513,0-6.77,0-.41.148-.489.513-.479.886.022,1.774-.026,2.658.019.541.027.76-.09.722-.686-.056-.856.013-1.72-.025-2.578-.022-.482.092-.654.611-.633,1.1.044,2.2.014,3.3.014" transform="translate(-47.251 -254.148)"/>
          <path id="Trazado_210061" data-name="Trazado 210061" d="M177.716,175.491c2.979,0,5.958.017,8.937-.015.6-.006.767.15.758.756-.027,1.839,0,1.839-1.834,1.839-5.582,0-11.165-.011-16.747.015-.632,0-.811-.159-.8-.8.035-1.8.006-1.8,1.794-1.8h7.891" transform="translate(-140.866 -147.107)" fill="#fefefe"/>
          <path id="Trazado_210062" data-name="Trazado 210062" d="M173.948,239.344c1.69,0,3.38.021,5.069-.012.537-.011.666.163.667.679,0,1.913.022,1.913-1.915,1.913-3,0-6.008-.016-9.012.014-.574.005-.712-.165-.709-.721.013-1.873-.01-1.873,1.876-1.873h4.023" transform="translate(-140.881 -200.64)" fill="#fefefe"/>
          <path id="Trazado_210063" data-name="Trazado 210063" d="M236.36,210.006c-1.287,0-2.574-.015-3.86.008-.451.008-.657-.064-.664-.6-.028-1.989-.051-1.989,1.922-1.989,2.118,0,4.236.017,6.353-.012.556-.008.8.072.788.724-.03,1.867,0,1.868-1.884,1.868H236.36" transform="translate(-194.35 -173.882)" fill="#fefefe"/>
          <path id="Trazado_210064" data-name="Trazado 210064" d="M172.014,207.434c1.072,0,2.145.021,3.216-.01.468-.014.573.153.583.6.044,1.993.058,1.993-1.912,1.993-1.715,0-3.431-.025-5.145.014-.577.013-.71-.169-.707-.722.013-1.872-.009-1.872,1.874-1.872h2.09" transform="translate(-140.882 -173.89)" fill="#fefefe"/>
          <path id="Trazado_210065" data-name="Trazado 210065" d="M258.4,239.41h.643c2.04,0,2.131.119,1.866,2.194-.042.331-.179.39-.459.388-1.419-.006-2.838-.012-4.257,0-.356,0-.49-.132-.452-.471a.494.494,0,0,0,0-.08c-.094-2.034-.094-2.034,1.936-2.034Z" transform="translate(-214.373 -200.706)" fill="#fefefe"/>
          <path id="Trazado_210066" data-name="Trazado 210066" d="M404.01,161.61l-4.061,2.709v-5.4l4.061,2.686" transform="translate(-335.291 -133.231)" fill="#fefefe"/>
          <path id="Trazado_210067" data-name="Trazado 210067" d="M78.606,321.034c0,1.886,0,1.886,1.917,1.886,2.077,0,2.065,0,1.964,2.091-.019.385-.124.507-.507.5-.884-.024-1.773.039-2.654-.023-.636-.045-.765.189-.732.766.048.856-.006,1.717.02,2.575.013.406-.091.544-.528.558-2.06.065-2.059.081-2.059-2,0-1.886,0-1.886-1.917-1.886-2.077,0-2.065,0-1.964-2.091.019-.385.124-.507.506-.5.885.024,1.773-.039,2.654.023.636.045.765-.189.732-.766-.048-.856.006-1.717-.021-2.575-.012-.406.091-.544.528-.558,2.06-.065,2.059-.081,2.059,2" transform="translate(-60.453 -267.444)" fill="#feca2e"/>
        </g>
      </g>
    </g>
  </g>
</svg>
