<svg xmlns="http://www.w3.org/2000/svg" xmlns:xlink="http://www.w3.org/1999/xlink" width="190" height="104" viewBox="0 0 190 104">
  <defs>
    <clipPath id="clip-path">
      <rect id="Rect치ngulo_87915" data-name="Rect치ngulo 87915" width="84.507" height="84.532" fill="none"/>
    </clipPath>
  </defs>
  <g id="Grupo_138015" data-name="Grupo 138015" transform="translate(-180 -417)">
    <g id="Grupo_137505" data-name="Grupo 137505" transform="translate(-105.049 6)">
      <rect id="Rect치ngulo_41122" data-name="Rect치ngulo 41122" width="190" height="104" transform="translate(285.049 411)" fill="none"/>
      <g id="Grupo_117447" data-name="Grupo 117447" transform="translate(-3337.231 1038.209)" opacity="0.3">
        <path id="Trazado_158283" data-name="Trazado 158283" d="M3677.784-530.075h0a16.354,16.354,0,0,0,23.129,0l67.216-67.214a16.357,16.357,0,0,0,0-23.129,16.355,16.355,0,0,0-23.129,0L3677.784-553.2A16.353,16.353,0,0,0,3677.784-530.075Z" transform="translate(14.296)" fill="#fc4b52"/>
        <path id="Trazado_158284" data-name="Trazado 158284" d="M3652.069-530.075h0a16.354,16.354,0,0,0,23.129,0l67.216-67.214a16.358,16.358,0,0,0,0-23.129,16.355,16.355,0,0,0-23.129,0L3652.069-553.2A16.354,16.354,0,0,0,3652.069-530.075Z" transform="translate(0)" fill="#feca2e"/>
      </g>
      <g id="Grupo_137506" data-name="Grupo 137506" transform="translate(336.328 421)">
        <g id="Grupo_137506-2" data-name="Grupo 137506" clip-path="url(#clip-path)">
          <path id="Trazado_203272" data-name="Trazado 203272" d="M63.9,0h1.484a3.44,3.44,0,0,1,3.088,3.052,3.725,3.725,0,0,1-1.689,3.919,1.4,1.4,0,0,0-.666,1.311c.023.438.01.878,0,1.317-.029,1.45-.557,2-2,2.013-2.388.021-4.776,0-7.163.007-.8,0-1.593.023-2.388-.005-.76-.028-.819.425-.825,1.009-.007.6.1,1.009.841.991,1.1-.026,2.2-.033,3.293.005a1.45,1.45,0,0,1,1.619,1.3c-.062,1.138-.489,1.594-1.605,1.645-1.014.046-2.03.006-3.045.017-.974.011-1.064.091-1.072.912-.009.9.107,1.027,1.054,1.032,2.331.011,4.663,0,6.995,0H77.21a7.758,7.758,0,0,1,1.233.049,1.613,1.613,0,0,1,1.369,1.7c.021.3.014.6.014.905q0,20.292,0,40.583c0,.3.007.6-.015.905a1.611,1.611,0,0,1-1.385,1.683,7.228,7.228,0,0,1-1.233.053H7.572c-2.467,0-2.812-.344-2.811-2.8,0-1.126-.033-2.253.017-3.378a1.571,1.571,0,0,1,1.353-1.7,1.529,1.529,0,0,1,1.611,1.6c.061.822.024,1.648.023,2.473,0,.546.218.821.782.8.247-.01.495,0,.742,0H75.245c1.578,0,1.579,0,1.579-1.58q0-18.385,0-36.77c0-1.521,0-1.522-1.548-1.522q-10.1,0-20.2,0c-1.277,0-1.3.025-1.306,1.274,0,1.292.022,2.584-.009,3.875a1.439,1.439,0,0,0,.914,1.488c1.237.6,2.493,1.155,3.729,1.755a2.374,2.374,0,0,1,1.436,2.128c.025.329.03.659.03.989q0,8.574,0,17.148c0,.357,0,.714-.035,1.071a2.251,2.251,0,0,1-1.4,2.057,18.382,18.382,0,0,1-1.951.88,1.6,1.6,0,0,1-1.873-.442c-.471-.967-.332-1.741.687-2.171,1.286-.543,1.475-1.424,1.458-2.667-.062-4.53-.025-9.062-.025-13.594,0-.192.008-.385,0-.576-.039-.651-.139-.72-.752-.42-.888.435-1.821.773-2.684,1.257-2.85,1.35-5.7,2.7-8.538,4.073a1.42,1.42,0,0,0-.919,1.461c.026,5.02.012,10.039.015,15.059,0,.806.013.8.77.45,2-.91,3.92-1.976,5.958-2.791a1.469,1.469,0,0,1,2.1.811A1.606,1.606,0,0,1,51.6,56.546c-2.06,1.04-4.159,2-6.238,3-.618.3-1.246.578-1.859.887a2.551,2.551,0,0,1-2.374.019Q35.7,57.859,30.276,55.26c-1.387-.663-2.786-1.3-4.169-1.977a2.2,2.2,0,0,1-1.32-1.844,9.352,9.352,0,0,1-.053-1.151c0-5.824.024-11.647-.018-17.47a2.862,2.862,0,0,1,1.893-3.095c1.169-.465,2.31-1.02,3.433-1.6a1.254,1.254,0,0,0,.794-1.219c-.011-1.511-.017-3.022,0-4.532.008-.646-.277-.859-.9-.858q-10.631.013-21.261.01c-.842,0-.928.091-.93.967-.01,3.653,0,7.307,0,10.96q0,9.188,0,18.377a2.842,2.842,0,0,1-.279,1.6,1.344,1.344,0,0,1-1.219.712A1.512,1.512,0,0,1,4.8,52.719a7.107,7.107,0,0,1-.041-1.07q0-15.249,0-30.5c0-.3-.007-.6.019-.906a1.645,1.645,0,0,1,1.665-1.692c.383-.036.769-.022,1.153-.022H28.948c.275,0,.55,0,.824,0a1.057,1.057,0,0,0,.96-1.626.533.533,0,0,0-.466-.28,6.467,6.467,0,0,0-.905-.029H4.962c-.11,0-.22,0-.33,0-1.481.017-1.8.319-1.8,1.787q-.01,23.121,0,46.243c0,1.377.337,1.71,1.7,1.722,1.978.017,3.956.005,5.935.005H77.23a5.742,5.742,0,0,1,.658.013c.741,0,1.482,0,2.222-.013,1.312-.016,1.629-.342,1.657-1.677,0-.192,0-.384,0-.576q0-22.609,0-45.217c0-2.145-.145-2.29-2.287-2.288-.522,0-1.043-.009-1.564-.016q-7.076.046-14.153,0c-1.237-.006-1.685-.482-1.736-1.683a1.45,1.45,0,0,1,1.478-1.278c.164-.015.329-.016.494-.016q8.239,0,16.478,0a4.2,4.2,0,0,1,1.381.187,3.5,3.5,0,0,1,2.648,3.2V66.121a3.767,3.767,0,0,1-4.116,3.217q-12.405.015-24.811,0c-.22,0-.44.01-.659,0-.5-.024-.714.169-.611.689a11.177,11.177,0,0,0,3.7,6.362,1.889,1.889,0,0,0,1.322.359c1.456.008,2.918-.087,4.367.025a3.933,3.933,0,0,1,3.251,5.956A3.326,3.326,0,0,1,64.069,84.5c-.192.01-.385,0-.577,0-14.122,0-28.245-.031-42.367.028a3.772,3.772,0,0,1-3.995-3.751,3.893,3.893,0,0,1,3.992-4.024c1.374-.025,2.748-.019,4.121,0a2.306,2.306,0,0,0,1.764-.732,11.515,11.515,0,0,0,3.165-5.5c.266-1.123.222-1.182-.908-1.182q-12.405,0-24.81.005a5,5,0,0,1-2.542-.554A3.476,3.476,0,0,1,0,65.733c-.008-.192,0-.385,0-.577V17.843c0-2.712,1.5-4.238,4.229-4.241q12.323-.015,24.646,0c.275,0,.55,0,.824,0,1.033-.013,1.383-.524,1.092-1.535-.127-.439-.465-.418-.785-.424-1.1-.02-2.2-.007-3.3-.008-2.061,0-4.122.013-6.182-.006-1.5-.014-2.034-.554-2.065-2.041a3.7,3.7,0,0,1,0-.494,2.472,2.472,0,0,0-1.052-2.458A3.818,3.818,0,0,1,17.474.662,4.352,4.352,0,0,1,19.209,0h1.484a3.382,3.382,0,0,1,3.059,2.684,3.706,3.706,0,0,1-1.2,3.954,6.047,6.047,0,0,1-.639.519A.957.957,0,0,0,21.5,8.305c.141.469.574.351.908.352,3.048.012,6.1.005,9.145.007a3.436,3.436,0,0,1,1.143.105,1.544,1.544,0,0,1,1.082,1.5c.047.85.021,1.7.018,2.554,0,.553.229.792.79.789q2.678-.015,5.356,0c.556,0,.8-.231.8-.786,0-1.593-.008-3.186,0-4.779,0-.62-.391-.909-.822-1.23A3.92,3.92,0,0,1,40.085.47,6.448,6.448,0,0,1,41.47,0h1.649a3.258,3.258,0,0,1,2.942,2.7A3.748,3.748,0,0,1,44.48,6.958a1.276,1.276,0,0,0-.627,1.166c.006,1.538.013,3.077,0,4.615-.006.623.233.888.876.88q2.6-.034,5.191,0c.633.008.905-.234.881-.871-.024-.6-.007-1.208,0-1.813.011-1.784.48-2.265,2.24-2.268,3.049-.006,6.1,0,9.147-.008.334,0,.767.117.909-.351a.955.955,0,0,0-.413-1.149,6.754,6.754,0,0,1-.7-.575,3.765,3.765,0,0,1-1.246-2.351A3.678,3.678,0,0,1,63.9,0" transform="translate(0)"/>
          <path id="Trazado_203273" data-name="Trazado 203273" d="M75.532,128.748a1.436,1.436,0,0,0,1.982.339q.987-.507,2-.961a1.42,1.42,0,0,0,.9-1.427q-.005-9.891,0-19.782a1.435,1.435,0,0,0-.934-1.409c-1.516-.7-3.014-1.443-4.531-2.145a.807.807,0,0,1-.556-.865c.033-1.813.027-3.627,0-5.44-.006-.448.1-.609.581-.608q11.21.022,22.419-.006c.77,0,.573.457.573.848q.006,18.587,0,37.174c0,.765.27,1.788-.115,2.229-.446.511-1.494.156-2.278.156q-33.135.014-66.27.024c-.726,0-1.011-.144-.936-.918s.019-1.592.016-2.389c0-1.093-.2-1.346-1.288-1.686a2.68,2.68,0,0,1,.142-2.755c.951-.286,1.146-.568,1.146-1.692,0-10,.015-20-.024-30,0-.873.257-.994,1.037-.991q10.879.045,21.76,0c.634,0,.833.14.813.8-.052,1.674-.045,3.352,0,5.027a1.055,1.055,0,0,1-.723,1.178c-1.455.637-2.862,1.38-4.31,2.035a1.518,1.518,0,0,0-.994,1.536q.011,9.808,0,19.617a1.539,1.539,0,0,0,1,1.532q7.723,3.661,15.424,7.368a1.771,1.771,0,0,0,1.649-.007q4.184-2.012,8.381-4a1.426,1.426,0,0,0,.949-1.769c.086-.455.51-.484.821-.656.467-.067.822-.556,1.358-.361" transform="translate(-20.891 -75.191)" fill="#dff7f9"/>
          <path id="Trazado_203274" data-name="Trazado 203274" d="M15.4,111.631a16.712,16.712,0,0,0-.142,2.755,1.483,1.483,0,0,0-1.2,1.7c.042,1.4.005,2.8.013,4.2.006,1.105.441,1.543,1.549,1.546q4.489.009,8.978,0H86.374c.357,0,.713.018,1.069.027a2.085,2.085,0,0,1-.489,2.422c-.329.008-.659.022-.988.022h-72.3c-1.746,0-2.067-.319-2.067-2.054V76c0-1.638.346-1.987,1.968-1.987,8.519,0,17.038.01,25.557-.017.762,0,1.055.134,1.014.97-.074,1.517-.019,1.52-1.517,1.52H15.866c-1.439,0-1.794.357-1.794,1.8q0,15.829,0,31.658c0,1.171.3,1.546,1.326,1.683" transform="translate(-9.042 -57.693)" fill="#afafaf"/>
          <path id="Trazado_203275" data-name="Trazado 203275" d="M138.388,176.554c-2.795-1.336-5.486-2.624-8.178-3.91-1.533-.732-3.061-1.476-4.606-2.182a.989.989,0,0,1-.683-1.048q.039-7.951,0-15.9c0-.75.2-.743.778-.465q6.034,2.911,12.088,5.783c.383.183.673.34.67.883-.025,5.465-.015,10.931-.018,16.4,0,.106-.024.213-.053.444" transform="translate(-97.392 -119.186)" fill="#a7e446"/>
          <path id="Trazado_203276" data-name="Trazado 203276" d="M207.307,179.426l-.877.5c-.684-.838-1.071-.931-2.059-.46-2,.954-4.005,1.917-6.009,2.874-.243.116-.494.216-.737.321-.2-.255-.118-.509-.119-.745-.005-5.276.007-10.552-.019-15.827a1.042,1.042,0,0,1,.706-1.11c2.982-1.381,5.95-2.793,8.923-4.194.389.015.381.332.429.588a4.445,4.445,0,0,1,.033.822q0,7.945,0,15.891a1.832,1.832,0,0,1-.269,1.337" transform="translate(-153.968 -125.356)" fill="#feca2e"/>
          <path id="Trazado_203277" data-name="Trazado 203277" d="M157.8,321.354l-16.321.026q-2.677,0-5.362,0c-.076-.316.188-.444.321-.623a13.811,13.811,0,0,0,2.769-6.6c.048-.373.035-.714.631-.71,4.726.036,9.452.032,14.178.041.313.118.334.4.376.67a12.851,12.851,0,0,0,2.879,6.228c.229.279.585.518.529.966" transform="translate(-106.11 -244.376)" fill="#dff7f9"/>
          <path id="Trazado_203278" data-name="Trazado 203278" d="M353.555,124.349a4.648,4.648,0,0,0,.489-2.422,1.439,1.439,0,0,0,1.167-1.629q-.018-21.072,0-42.143a1.437,1.437,0,0,0-1.167-1.628,7.3,7.3,0,0,1-.489-2.422c.905-.007,1.811-.035,2.716-.016a1.3,1.3,0,0,1,1.4,1.383c.01.192,0,.384,0,.576q0,23.179,0,46.358c0,1.622-.348,1.969-1.982,1.966-.713,0-1.426-.015-2.14-.022" transform="translate(-275.643 -57.757)" fill="#636363"/>
          <path id="Trazado_203279" data-name="Trazado 203279" d="M154.843,128.115q-4.52,2.178-9.036,4.361a.8.8,0,0,1-.774-.037c-4.179-2-8.362-4-12.725-6.081l9.955-4.687a1.207,1.207,0,0,1,1.013.194c3.65,1.828,7.3,3.644,10.947,5.486.284.143.824.181.62.764" transform="translate(-103.152 -94.818)" fill="#fc4b52"/>
          <path id="Trazado_203280" data-name="Trazado 203280" d="M130.919,363.109c-.164.009-.329.025-.493.025q-19.45,0-38.9,0c-1.006,0-1.519-.407-1.54-1.2-.022-.809.493-1.275,1.458-1.275q19.574,0,39.147,0c.11,0,.219.016.328.024a1.6,1.6,0,0,1,0,2.421" transform="translate(-70.156 -281.184)" fill="#afafaf"/>
          <path id="Trazado_203281" data-name="Trazado 203281" d="M267.179,68.792a4.646,4.646,0,0,1,.489,2.422q-6.662.014-13.324.027c-3.565,0-7.129-.015-10.694.016-.657.006-.906-.125-.885-.843.048-1.644.008-1.645,1.629-1.645.877,0,1.755,0,2.632,0,1.164-.006,1.519-.355,1.544-1.5a3.617,3.617,0,0,0,2.917,0c.026,1.147.38,1.5,1.544,1.5q7.074.016,14.148.024" transform="translate(-189.266 -52.444)" fill="#afafaf"/>
          <path id="Trazado_203282" data-name="Trazado 203282" d="M241.373,173.211q0-8.9,0-17.8c0-.288.106-.614-.189-.842,1.077-.534,2.162-1.05,3.226-1.608.543-.284.686-.172.682.435-.021,3.462-.01,6.924-.01,10.386,0,1.868-.018,3.737.012,5.6a.879.879,0,0,1-.622,1,8.622,8.622,0,0,0-.9.409c-.968.469-1.156.869-.9,1.9l-1.3.513" transform="translate(-188.034 -119.141)" fill="#cba124"/>
          <path id="Trazado_203283" data-name="Trazado 203283" d="M190.064,123.049c0-.277-.23-.352-.422-.448q-5.882-2.941-11.767-5.877a2.412,2.412,0,0,0-.391-.119c.931-.458,1.866-.909,2.791-1.379a.8.8,0,0,1,.778-.011q6.254,3.01,12.512,6.011c.022.01.032.043.107.147l-3.609,1.675" transform="translate(-138.372 -89.751)" fill="#972d31"/>
          <path id="Trazado_203284" data-name="Trazado 203284" d="M152.192,101.943c0-1.758.009-3.373-.007-4.989,0-.353.1-.47.46-.468q3.287.023,6.574,0c.415,0,.458.162.5.522a1.6,1.6,0,0,1-1.13,1.919c-2.132.9-4.193,1.965-6.4,3.017" transform="translate(-118.648 -75.223)" fill="#ace6fe"/>
          <path id="Trazado_203285" data-name="Trazado 203285" d="M204.911,101.932c-1.685-.8-3.287-1.559-4.888-2.32a9.831,9.831,0,0,0-1.485-.7c-1.017-.285-1.263-.927-1.16-1.9.047-.448.185-.53.586-.526,2.143.016,4.286.009,6.429.006.282,0,.532-.038.527.4-.02,1.643-.008,3.285-.008,5.038" transform="translate(-153.865 -75.227)" fill="#ace6fe"/>
          <path id="Trazado_203286" data-name="Trazado 203286" d="M221.171,321.4a14.366,14.366,0,0,1-3.307-5.735c-.193-.7-.32-1.419-.478-2.129.988-.008,1.976-.014,2.963-.027.284,0,.529-.026.575.38a14.184,14.184,0,0,0,3.29,7.51Z" transform="translate(-169.482 -244.419)" fill="#b2c5c7"/>
          <path id="Trazado_203287" data-name="Trazado 203287" d="M155.867,76.515c-1.044,0-2.088-.021-3.131.009-.475.014-.594-.159-.606-.615-.048-1.868-.064-1.868,1.815-1.868,1.675,0,3.351.017,5.026-.01.5-.008.65.157.659.656.034,1.827.053,1.827-1.786,1.827h-1.978" transform="translate(-118.596 -57.718)" fill="#afafaf"/>
          <path id="Trazado_203288" data-name="Trazado 203288" d="M201.114,76.507c-1.044,0-2.088-.009-3.131,0-.368,0-.522-.1-.554-.505-.157-1.973-.17-1.973,1.8-1.973,1.648,0,3.3.021,4.943-.012.556-.011.759.12.755.72-.012,1.765.016,1.765-1.757,1.765h-2.06" transform="translate(-153.873 -57.709)" fill="#afafaf"/>
          <path id="Trazado_203289" data-name="Trazado 203289" d="M275.737,363.114a2.4,2.4,0,0,0,0-2.421c.9-.008,1.805-.035,2.707-.019a1.231,1.231,0,1,1,0,2.46c-.9.016-1.8-.011-2.707-.02" transform="translate(-214.974 -281.189)" fill="#636363"/>
          <path id="Trazado_203290" data-name="Trazado 203290" d="M87.467,12.5a1.239,1.239,0,0,1-1.2,1.214,1.232,1.232,0,1,1,.035-2.462A1.235,1.235,0,0,1,87.467,12.5" transform="translate(-66.272 -8.768)" fill="#fc4b52"/>
          <path id="Trazado_203291" data-name="Trazado 203291" d="M290.135,12.463a1.261,1.261,0,0,1-1.264,1.247,1.232,1.232,0,0,1-.029-2.462,1.259,1.259,0,0,1,1.294,1.215" transform="translate(-224.279 -8.768)" fill="#fc4b52"/>
          <path id="Trazado_203292" data-name="Trazado 203292" d="M187.682,11.244a1.232,1.232,0,1,1-1.248,1.15,1.215,1.215,0,0,1,1.248-1.15" transform="translate(-145.348 -8.766)" fill="#fc4b52"/>
        </g>
      </g>
    </g>
  </g>
</svg>
