<svg xmlns="http://www.w3.org/2000/svg" xmlns:xlink="http://www.w3.org/1999/xlink" width="190" height="104" viewBox="0 0 190 104">
  <defs>
    <clipPath id="clip-path">
      <rect id="Rect치ngulo_87984" data-name="Rect치ngulo 87984" width="76.342" height="76.329" fill="none"/>
    </clipPath>
  </defs>
  <g id="Grupo_140634" data-name="Grupo 140634" transform="translate(-285 -1151)">
    <g id="Grupo_137620" data-name="Grupo 137620" transform="translate(-0.049 740)">
      <rect id="Rect치ngulo_41122" data-name="Rect치ngulo 41122" width="190" height="104" transform="translate(285.049 411)" fill="none"/>
      <g id="Grupo_117447" data-name="Grupo 117447" transform="translate(-3337.23 1038.209)" opacity="0.3">
        <path id="Trazado_158283" data-name="Trazado 158283" d="M3677.784-530.075h0a16.354,16.354,0,0,0,23.129,0l67.216-67.214a16.357,16.357,0,0,0,0-23.129,16.355,16.355,0,0,0-23.129,0L3677.784-553.2A16.353,16.353,0,0,0,3677.784-530.075Z" transform="translate(14.296)" fill="#fc4b52"/>
        <path id="Trazado_158284" data-name="Trazado 158284" d="M3652.069-530.075h0a16.354,16.354,0,0,0,23.129,0l67.216-67.214a16.358,16.358,0,0,0,0-23.129,16.355,16.355,0,0,0-23.129,0L3652.069-553.2A16.354,16.354,0,0,0,3652.069-530.075Z" transform="translate(0)" fill="#feca2e"/>
      </g>
      <g id="Grupo_137622" data-name="Grupo 137622" transform="translate(342.049 425)">
        <g id="Grupo_137622-2" data-name="Grupo 137622" clip-path="url(#clip-path)">
          <path id="Trazado_203776" data-name="Trazado 203776" d="M74.532,39.429c.053,0,.106,0,.159,0,1.235-.007,1.666-.435,1.65-1.683a36.273,36.273,0,0,0-5.278-18.884C63.682,6.876,52.9.474,38.8.02A35.834,35.834,0,0,0,15.834,7.259C5.707,14.764.448,24.9,0,37.513c-.055,1.567.324,1.915,1.889,1.915,5.514,0,11.028.007,16.542-.011.5,0,.69.1.661.642-.048.9-.042,1.8,0,2.7a.9.9,0,0,1-.611,1.019,2.991,2.991,0,0,0-1.505,1.578.65.65,0,0,1-.719.439c-1.7-.016-3.393-.018-5.089,0a1.049,1.049,0,0,1-.826-.36C9.435,44.512,8.5,43.613,7.6,42.673a2.04,2.04,0,0,0-1.682-.71c-.9.044-1.8.011-2.7.011-2.024,0-2.009,0-1.961,2.034.01.429.139.528.541.519,1.139-.024,2.28.008,3.419-.017a1.27,1.27,0,0,1,1.039.424c.9.938,1.844,1.83,2.744,2.766a1.959,1.959,0,0,0,1.547.646c1.776-.028,3.553.019,5.328-.025.624-.016,1.035.11,1.269.732a1.611,1.611,0,0,0,.828.937c1.2.459,1.215,1.4,1.115,2.42a1.676,1.676,0,0,0,0,.4c.065.456-.055.642-.583.633-2.253-.034-4.507-.026-6.76,0a.746.746,0,0,1-.766-.494A3.707,3.707,0,0,0,6.7,51.01a3.8,3.8,0,0,0-.012,7.374,3.691,3.691,0,0,0,4.28-1.922.8.8,0,0,1,.844-.5c2.757.017,5.514.013,8.271.007,1.085,0,1.537-.462,1.544-1.551s.014-2.174-.005-3.26a.68.68,0,0,1,.434-.724,3.75,3.75,0,0,0-.017-6.747.674.674,0,0,1-.415-.736c.014-.981.04-1.963-.009-2.942-.027-.53.178-.6.634-.59,1.219.029,2.44.048,3.657-.006.639-.028.838.111.832.8-.037,4.268-.009,8.536-.029,12.8a2.074,2.074,0,0,0,.674,1.615c1.349,1.311,2.659,2.665,4,3.981a1.308,1.308,0,0,1,.431,1.036q-.027,4.334,0,8.669a.8.8,0,0,1-.483.854,3.682,3.682,0,0,0-1.942,4.269,3.8,3.8,0,0,0,7.374.02,3.7,3.7,0,0,0-1.916-4.283.794.794,0,0,1-.5-.84c.02-2.147.13-4.3-.026-6.439-.145-1.991.237-3.619,1.962-4.791a1.606,1.606,0,0,0,.627-1.467c-.024-1.829.006-3.658-.018-5.487a1.031,1.031,0,0,1,.62-1.092,3.653,3.653,0,0,0,.465-6.172A2.25,2.25,0,0,1,36.9,40.514a2.065,2.065,0,0,0,0-.477c-.072-.476.084-.64.595-.622,1.191.043,2.385.014,3.578.014h8.085a17.329,17.329,0,0,1-1.438,1.365,4.409,4.409,0,0,0-1.909,4.6c.078.449-.116.674-.532.9a3.744,3.744,0,0,0-.053,6.6,1.109,1.109,0,0,1,.607,1.025,4.5,4.5,0,0,1-1.93,4.719,1.7,1.7,0,0,0-.646,1.538c.024,2.28,0,4.56.018,6.839a.847.847,0,0,1-.526.909,3.584,3.584,0,0,0-2.016,3.115,3.813,3.813,0,0,0,7.4,1.487,3.732,3.732,0,0,0-1.8-4.6.843.843,0,0,1-.531-.9,27.3,27.3,0,0,0-.02-3.814,4.7,4.7,0,0,1,1.99-4.856,1.539,1.539,0,0,0,.591-1.4c-.026-1.06.009-2.121-.016-3.181a.7.7,0,0,1,.457-.789,3.056,3.056,0,0,0,1.607-1.583c.2-.464.485-.521.915-.517,1.856.017,3.712-.01,5.567.017a1.962,1.962,0,0,0,1.547-.646c.9-.936,1.845-1.828,2.744-2.766a1.284,1.284,0,0,1,1.039-.424q2.425.033,4.851,0a.789.789,0,0,1,.847.494A3.61,3.61,0,0,0,71.093,49.6a3.806,3.806,0,0,0,2.041-7.115c-.227-.132-.612-.106-.6-.519a6.244,6.244,0,0,1,.127-2.411c.2-.408,1.223-.071,1.875-.123M33.222,56.554c-.182.208-.328-.031-.449-.152-1.088-1.084-2.163-2.18-3.263-3.251a.954.954,0,0,1-.249-.788q0-3.1,0-6.2c0-2.012.018-4.025-.012-6.037-.008-.52.071-.741.667-.717,1.269.051,2.542.047,3.812,0,.551-.02.7.178.627.669a2.268,2.268,0,0,0,0,.476,2.169,2.169,0,0,1-1.047,2.308,3.654,3.654,0,0,0,.462,6.21.966.966,0,0,1,.594,1.026c-.028,1.535-.075,3.075.013,4.606.056.962-.675,1.3-1.154,1.846M68.958,42.8a2,2,0,0,0-1.021,1.178c-.189.5-.507.556-.971.55-1.854-.023-3.708.006-5.562-.018a1.887,1.887,0,0,0-1.477.618c-.921.952-1.878,1.868-2.8,2.82a1.2,1.2,0,0,1-.969.4q-2.423-.035-4.847,0a.806.806,0,0,1-.909-.525A3.227,3.227,0,0,0,48.727,46.2a.6.6,0,0,1-.389-.588,3.055,3.055,0,0,1,1.123-2.988A25.321,25.321,0,0,0,52.112,40a1.675,1.675,0,0,1,1.372-.585c2.6.034,5.191.015,7.787.015,2.7,0,5.4.012,8.1-.011.477,0,.693.1.612.6a2.448,2.448,0,0,0,0,.635c.1.926.035,1.725-1.028,2.145" transform="translate(0.001 0)"/>
          <path id="Trazado_203777" data-name="Trazado 203777" d="M247.067,259.858c1.166,0,2.332-.018,3.5.01a.739.739,0,0,0,.781-.47,3.7,3.7,0,0,1,4.336-1.945,3.808,3.808,0,0,1-.235,7.417,3.724,3.724,0,0,1-4.064-1.944.848.848,0,0,0-.9-.532c-1.775.021-3.55.031-5.324,0-.531-.011-.658.15-.645.659.035,1.35.03,2.7,0,4.053a.846.846,0,0,0,.547.893,3.736,3.736,0,0,1,1.78,4.608,3.812,3.812,0,0,1-7.395-1.5,3.584,3.584,0,0,1,2.017-3.112.844.844,0,0,0,.524-.909c-.019-1.881-.012-3.762-.006-5.643,0-1.136.447-1.573,1.592-1.579,1.166-.006,2.331,0,3.5,0" transform="translate(-188.535 -202.615)"/>
          <path id="Trazado_203778" data-name="Trazado 203778" d="M62.987,286.24c-.307,0-.414.01-.519,0a1.473,1.473,0,0,0-1.689.842,3.615,3.615,0,0,1-4.3,1.514,3.856,3.856,0,0,1-2.618-3.771,3.81,3.81,0,0,1,2.817-3.531A3.643,3.643,0,0,1,60.9,283.02a1.057,1.057,0,0,0,1.219.677,1.822,1.822,0,0,1,.4,0,2.262,2.262,0,0,0,2.449-1.085,3.619,3.619,0,0,1,5.507-.419,3.787,3.787,0,0,1-.093,5.631,3.65,3.65,0,0,1-5.5-.592c-.577-.9-1.163-1.143-1.889-.991" transform="translate(-42.412 -221.361)"/>
          <path id="Trazado_203779" data-name="Trazado 203779" d="M146.549,139.338c-2.729,0-5.458-.012-8.186.011-.515,0-.741-.07-.726-.672.066-2.622.211-5.24.347-7.858.031-.593.244-.744.824-.694a100.553,100.553,0,0,0,13.894.137c.238-.013.477-.017.714-.039,1.653-.152,1.655-.153,1.731,1.545.1,2.249.177,4.5.308,6.746.037.644-.109.855-.8.844-2.7-.044-5.4-.018-8.107-.018" transform="translate(-108.376 -102.454)" fill="#4ac2ec"/>
          <path id="Trazado_203780" data-name="Trazado 203780" d="M149.154,81.2c-2.543.01-5.081-.1-7.618-.281-.482-.034-.594-.126-.533-.646.333-2.866.8-5.707,1.355-8.538.132-.676.342-.955,1.109-.9a84.7,84.7,0,0,0,11.509,0c.608-.04.874.087,1,.729.594,2.932,1.052,5.882,1.416,8.85.067.546-.236.466-.544.49q-3.842.306-7.7.293" transform="translate(-111.016 -55.773)" fill="#4ac2ec"/>
          <path id="Trazado_203781" data-name="Trazado 203781" d="M72.266,131.727c-1.907,0-3.814-.018-5.72.011-.522.008-.674-.135-.646-.664a55.391,55.391,0,0,1,1.4-10.125c.12-.5.324-.563.773-.459a84.092,84.092,0,0,0,10.407,1.691c.425.044.6.155.555.628-.26,2.742-.38,5.493-.4,8.247,0,.578-.193.691-.726.683-1.88-.031-3.76-.012-5.641-.012" transform="translate(-51.888 -94.843)" fill="#4ac2ec"/>
          <path id="Trazado_203782" data-name="Trazado 203782" d="M238.183,131.737c-1.906,0-3.813-.018-5.72.012-.521.008-.659-.145-.666-.66-.035-2.753-.146-5.5-.4-8.247-.041-.444.074-.6.528-.649a85.279,85.279,0,0,0,10.485-1.7c.434-.1.6,0,.711.442a55.863,55.863,0,0,1,1.408,10.2c.028.528-.165.609-.626.6-1.906-.021-3.813-.009-5.72-.009" transform="translate(-182.199 -94.854)" fill="#4ac2ec"/>
          <path id="Trazado_203783" data-name="Trazado 203783" d="M303.842,121.09c-1.3,0-2.594-.016-3.891.009-.434.008-.586-.1-.6-.564a51.374,51.374,0,0,0-1.509-10.9c-.1-.383-.014-.555.4-.666a51.455,51.455,0,0,0,5.944-1.952c.43-.173.594-.059.775.328a36.351,36.351,0,0,1,3.308,13.145c.035.526-.149.617-.615.607-1.27-.027-2.541-.009-3.811-.009" transform="translate(-234.493 -84.206)" fill="#4ac2ec"/>
          <path id="Trazado_203784" data-name="Trazado 203784" d="M16.473,121.075c-1.27,0-2.541-.018-3.811.009-.468.01-.648-.086-.614-.609a36.32,36.32,0,0,1,3.31-13.144c.182-.39.356-.5.779-.333a50.1,50.1,0,0,0,5.942,1.955c.411.109.5.285.4.671a51.083,51.083,0,0,0-1.509,10.9c-.018.462-.173.571-.605.562-1.3-.025-2.594-.009-3.891-.009" transform="translate(-9.483 -84.191)" fill="#4ac2ec"/>
          <path id="Trazado_203785" data-name="Trazado 203785" d="M87.493,75.367a92.677,92.677,0,0,1-10.059-1.612c-.377-.08-.483-.23-.359-.6a40.875,40.875,0,0,1,4-8.614.646.646,0,0,1,.8-.31,73.214,73.214,0,0,0,7.3,1.076c.419.045.471.211.395.56a84.082,84.082,0,0,0-1.427,9.008c-.055.51-.08.507-.644.492" transform="translate(-60.651 -50.553)" fill="#4ac2ec"/>
          <path id="Trazado_203786" data-name="Trazado 203786" d="M225.05,75.4c-.4.122-.553-.14-.6-.636a77.844,77.844,0,0,0-1.382-8.774c-.1-.474-.025-.631.5-.684a63.942,63.942,0,0,0,7.139-1.061.733.733,0,0,1,.9.415,40.985,40.985,0,0,1,3.895,8.4c.137.41.129.608-.364.715A98.112,98.112,0,0,1,225.05,75.4" transform="translate(-175.613 -50.562)" fill="#4ac2ec"/>
          <path id="Trazado_203787" data-name="Trazado 203787" d="M157.736,22.056c-1.8.072-3.6-.092-5.4-.144-.332-.01-.593-.032-.455-.477a25.191,25.191,0,0,1,3.458-7.875c1.649-2.219,3.143-2.222,4.79,0a25.268,25.268,0,0,1,3.458,7.876c.137.444-.119.469-.453.478-1.8.052-3.6.216-5.4.144" transform="translate(-119.565 -9.365)" fill="#4ac2ec"/>
          <path id="Trazado_203788" data-name="Trazado 203788" d="M285.168,64.711c.056.232-.118.263-.261.319-1.873.729-3.792,1.317-5.722,1.873-.356.1-.473-.062-.565-.349a41.446,41.446,0,0,0-3.863-8.584c-.219-.366-.136-.5.257-.587a7.361,7.361,0,0,0,1.746-.509c1.25-.652,2.073-.246,2.975.734a41.991,41.991,0,0,1,5.15,6.633c.1.158.19.317.283.471" transform="translate(-216.255 -44.533)" fill="#4ac2ec"/>
          <path id="Trazado_203789" data-name="Trazado 203789" d="M41.117,66.531c-.726-.215-1.643-.469-2.548-.76-.83-.267-1.649-.565-2.467-.865-1.01-.37-1.011-.378-.424-1.322a36.691,36.691,0,0,1,5.8-7.118.945.945,0,0,1,1.118-.273c.893.323,1.809.589,2.729.829.436.114.508.247.273.638a41.3,41.3,0,0,0-3.839,8.508c-.071.217-.106.5-.645.363" transform="translate(-27.78 -44.185)" fill="#4ac2ec"/>
          <path id="Trazado_203790" data-name="Trazado 203790" d="M202.567,15.449a18.075,18.075,0,0,1,5.379,2.627A25.974,25.974,0,0,1,213.1,22.9c.405.487.362.629-.29.732-1.962.309-3.926.584-5.9.785-.532.054-.726-.114-.866-.622a30.025,30.025,0,0,0-3.47-8.342" transform="translate(-159.504 -12.165)" fill="#4ac2ec"/>
          <path id="Trazado_203791" data-name="Trazado 203791" d="M116.354,15.826a30.658,30.658,0,0,0-3.436,8.384.53.53,0,0,1-.67.463c-2.111-.187-4.206-.494-6.3-.834-.3-.048-.473-.131-.22-.442a21.911,21.911,0,0,1,10.51-7.623c.019-.006.047.021.113.052" transform="translate(-83.159 -12.42)" fill="#4ac2ec"/>
          <path id="Trazado_203792" data-name="Trazado 203792" d="M252.336,29.935c-1.017.269-1.879.473-2.724.731-.466.142-.608-.177-.808-.444a34.814,34.814,0,0,0-4.38-4.808,32.089,32.089,0,0,1,7.911,4.521" transform="translate(-192.464 -20.011)" fill="#49c2eb"/>
          <path id="Trazado_203793" data-name="Trazado 203793" d="M84.957,26.821a34.716,34.716,0,0,0-3.992,4.5.589.589,0,0,1-.74.253c-.829-.235-1.662-.452-2.644-.717a32.094,32.094,0,0,1,7.147-4.25c.21-.07.25.041.229.216" transform="translate(-61.089 -20.932)" fill="#4ac2eb"/>
          <path id="Trazado_203794" data-name="Trazado 203794" d="M164.154,210.706a1.268,1.268,0,1,1-1.246-1.27,1.277,1.277,0,0,1,1.246,1.27" transform="translate(-127.261 -164.913)" fill="#e59b43"/>
          <path id="Trazado_203795" data-name="Trazado 203795" d="M331.761,210.7a1.268,1.268,0,1,1-1.255-1.26,1.277,1.277,0,0,1,1.255,1.26" transform="translate(-259.238 -164.914)" fill="#e59b43"/>
          <path id="Trazado_203796" data-name="Trazado 203796" d="M91.077,217.957a1.268,1.268,0,1,1,1.247-1.269,1.277,1.277,0,0,1-1.247,1.269" transform="translate(-70.701 -169.626)" fill="#e59b43"/>
          <path id="Trazado_203797" data-name="Trazado 203797" d="M218.028,228.666a1.268,1.268,0,1,1-1.242-1.273,1.277,1.277,0,0,1,1.242,1.273" transform="translate(-169.682 -179.053)" fill="#e59b43"/>
          <path id="Trazado_203798" data-name="Trazado 203798" d="M32.461,252.64a1.268,1.268,0,1,1-1.209-1.306,1.278,1.278,0,0,1,1.209,1.306" transform="translate(-23.563 -197.903)" fill="#e59b43"/>
          <path id="Trazado_203799" data-name="Trazado 203799" d="M204.779,329.155a1.268,1.268,0,1,1-1.256,1.259,1.275,1.275,0,0,1,1.256-1.259" transform="translate(-160.257 -259.182)" fill="#e59b43"/>
          <path id="Trazado_203800" data-name="Trazado 203800" d="M152.181,336.42a1.268,1.268,0,1,1-1.234-1.281,1.277,1.277,0,0,1,1.234,1.281" transform="translate(-117.833 -263.894)" fill="#e59b43"/>
          <path id="Trazado_203801" data-name="Trazado 203801" d="M111.43,26.109l-.229-.216c.154-.118.368-.317.5-.148s-.129.274-.275.364" transform="translate(-87.561 -20.22)" fill="#43aed7"/>
          <path id="Trazado_203802" data-name="Trazado 203802" d="M307.817,270.555a1.268,1.268,0,1,1-1.256-1.259,1.277,1.277,0,0,1,1.256,1.259" transform="translate(-240.384 -212.048)" fill="#e59b43"/>
          <path id="Trazado_203803" data-name="Trazado 203803" d="M252.653,319.713a1.269,1.269,0,1,1,1.293-1.223,1.276,1.276,0,0,1-1.293,1.223" transform="translate(-197.965 -249.749)" fill="#e59b43"/>
          <path id="Trazado_203804" data-name="Trazado 203804" d="M67.137,293.239a1.269,1.269,0,1,1-1.294,1.221,1.275,1.275,0,0,1,1.294-1.221" transform="translate(-51.846 -230.901)" fill="#e59b43"/>
          <path id="Trazado_203805" data-name="Trazado 203805" d="M114.99,293.24a1.268,1.268,0,1,1-1.256,1.259,1.275,1.275,0,0,1,1.256-1.259" transform="translate(-89.556 -230.902)" fill="#e59b43"/>
        </g>
      </g>
    </g>
  </g>
</svg>
