<svg xmlns="http://www.w3.org/2000/svg" xmlns:xlink="http://www.w3.org/1999/xlink" width="190" height="104" viewBox="0 0 190 104">
  <defs>
    <clipPath id="clip-path">
      <rect id="Rect치ngulo_87955" data-name="Rect치ngulo 87955" width="85.288" height="85.273" fill="none"/>
    </clipPath>
  </defs>
  <g id="Grupo_138019" data-name="Grupo 138019" transform="translate(-180 -2708)">
    <g id="Grupo_137584" data-name="Grupo 137584" transform="translate(-105.049 2297)">
      <rect id="Rect치ngulo_41122" data-name="Rect치ngulo 41122" width="190" height="104" transform="translate(285.049 411)" fill="none"/>
      <g id="Grupo_117447" data-name="Grupo 117447" transform="translate(-3337.231 1038.209)" opacity="0.3">
        <path id="Trazado_158283" data-name="Trazado 158283" d="M3677.784-530.075h0a16.354,16.354,0,0,0,23.129,0l67.216-67.214a16.357,16.357,0,0,0,0-23.129,16.355,16.355,0,0,0-23.129,0L3677.784-553.2A16.353,16.353,0,0,0,3677.784-530.075Z" transform="translate(14.296)" fill="#fc4b52"/>
        <path id="Trazado_158284" data-name="Trazado 158284" d="M3652.069-530.075h0a16.354,16.354,0,0,0,23.129,0l67.216-67.214a16.358,16.358,0,0,0,0-23.129,16.355,16.355,0,0,0-23.129,0L3652.069-553.2A16.354,16.354,0,0,0,3652.069-530.075Z" transform="translate(0)" fill="#feca2e"/>
      </g>
      <g id="Grupo_137586" data-name="Grupo 137586" transform="translate(337.049 420)">
        <g id="Grupo_137586-2" data-name="Grupo 137586" clip-path="url(#clip-path)">
          <path id="Trazado_203688" data-name="Trazado 203688" d="M44.818,212.493a1.328,1.328,0,0,1,.677,1.8c-.568,1.668-1.184,3.327-1.619,5.031-.638,2.495-1.986,4.235-4.557,4.882H37.487a10.243,10.243,0,0,1-4.162-2.879c-2.542-2.481-5.134-4.911-7.677-7.39-.421-.41-.633-.388-1.033.019-2.571,2.61-5.169,5.192-7.762,7.781-2.365,2.362-5.017,2.377-7.363.036q-3.567-3.557-7.122-7.125a4.7,4.7,0,0,1,.023-7.184c2.588-2.593,5.166-5.2,7.781-7.762.475-.466.537-.7.035-1.216q-4.337-4.434-8.593-8.947A5.235,5.235,0,0,1,3.878,180.7c1.651-.556,3.311-1.084,4.968-1.623.237-.077.476-.146.714-.219.992-.305,1.387-.152,1.9.735a1,1,0,0,1-.348,1.465,3.993,3.993,0,0,1-1.133.5c-1.773.554-3.538,1.136-5.3,1.714a2.548,2.548,0,0,0-1.31,4.187,3.566,3.566,0,0,0,.43.508c1.978,1.868,3.73,3.954,5.676,5.853,1.31,1.278,2.48,2.69,3.787,3.974a1.6,1.6,0,0,1-.056,2.6q-4.2,4.216-8.414,8.42c-1.79,1.793-1.791,2.676-.018,4.45q3.178,3.179,6.357,6.357c1.544,1.541,2.531,1.547,4.1-.007q4.221-4.2,8.42-8.414c1.161-1.16,1.862-1.166,3.024-.02,3.16,3.114,6.46,6.084,9.579,9.24a4.156,4.156,0,0,0,.574.48,2.528,2.528,0,0,0,4.1-1.268c.681-1.935,1.253-3.909,1.906-5.856a2.224,2.224,0,0,1,.608-1.152c.417-.32.876-.632,1.391-.134" transform="translate(0 -138.936)"/>
          <path id="Trazado_203689" data-name="Trazado 203689" d="M325.766,114.431c-.29.556-.408,1.185-.757,1.721a4.966,4.966,0,0,1-4.215,2.411q-3.24.082-6.483,0a5.065,5.065,0,0,1,.137-10.129c2.05-.02,4.1-.017,6.152,0a4.987,4.987,0,0,1,5.025,3.992c.017.066.093.116.142.174Z" transform="translate(-240.478 -84.287)"/>
          <path id="Trazado_203690" data-name="Trazado 203690" d="M77.32,171.238c-1.052-.145-1.3.042-1.856,1.393-.339.66-.984.658-1.584.7a12.036,12.036,0,0,1-6-1.454,44.66,44.66,0,0,1-9.291-6.251,73.216,73.216,0,0,1-6.432-6.14,50.776,50.776,0,0,1-8.666-11.936,14.7,14.7,0,0,1-1.624-4.956,2.872,2.872,0,0,1,.472-2.416c.855-.333,1.831-.557,1.62-1.832.982-.5,2.142-.542,3.06-1.2a.368.368,0,0,1,.343.193c.421.621.975.6,1.62.407,2.45-.716,4.858-1.565,7.286-2.348q7.8-2.514,15.6-5.05c4.669-1.517,9.333-3.05,14.013-4.531a3.033,3.033,0,0,1,3.791,3.755c-1.515,4.786-3.088,9.554-4.629,14.332-2.333,7.233-4.652,14.471-7.043,21.685a2.628,2.628,0,0,0,.322,2.538,24.682,24.682,0,0,0-1,3.12" transform="translate(-32.502 -97.681)" fill="#cde9fa"/>
          <path id="Trazado_203691" data-name="Trazado 203691" d="M96.519,154.67c-.92-.617-1.041-.946-.7-2.016q5.809-17.962,11.62-35.924a4.158,4.158,0,0,0,.348-1.862,2.788,2.788,0,0,0-3.856-2.225q-5.412,1.737-10.816,3.5-12.946,4.191-25.893,8.382c-1.077.348-1.471.175-2.007-.833a1.466,1.466,0,0,1,1.216-1.539c4.272-1.353,8.53-2.746,12.792-4.128.2-.065.4-.151.691-.265a5.428,5.428,0,0,1-2.29-3.575,5.04,5.04,0,0,1,4.7-5.784c2.3-.069,4.608-.057,6.91,0a5,5,0,0,1,4.613,3.9c.064.293.12.588.188.92,3.095-1,6.137-2.01,9.19-2.979a5.26,5.26,0,0,1,7.038,4.406,5.4,5.4,0,0,1-.318,2.453c-.9,2.79-1.8,5.581-2.728,8.363-.178.534-.215.77.479.9a4.949,4.949,0,0,1,4.138,4.988c.016,2,.009,4,0,6a5.069,5.069,0,0,1-9.107,3.3c-.068-.081-.139-.16-.292-.337-.662,2.04-1.3,3.991-1.928,5.943-.777,2.394-1.572,4.783-2.319,7.187a1.467,1.467,0,0,1-1.679,1.242" transform="translate(-50.703 -84.233)"/>
          <path id="Trazado_203692" data-name="Trazado 203692" d="M290.461,46.315a4.8,4.8,0,0,1-4.239-2.968,4.685,4.685,0,0,1,.8-5.416c1.568-1.72,3.228-3.366,4.941-4.944A5.037,5.037,0,0,1,299.152,40c-1.63,1.812-3.408,3.5-5.174,5.181a4.855,4.855,0,0,1-3.517,1.137" transform="translate(-222.11 -24.664)"/>
          <path id="Trazado_203693" data-name="Trazado 203693" d="M239.148,8.315c0,1.027.014,2.054,0,3.08a5.064,5.064,0,0,1-10.125.12c-.063-2.191-.058-4.385,0-6.576a5.065,5.065,0,0,1,10.129.13c.015,1.082,0,2.164,0,3.247" transform="translate(-178.007 0.001)"/>
          <path id="Trazado_203694" data-name="Trazado 203694" d="M295.76,179.681a5.07,5.07,0,0,1-3.87-1.364c-1.587-1.553-3.179-3.1-4.7-4.714a5.044,5.044,0,0,1,6.97-7.27,69.094,69.094,0,0,1,5.055,5.065,5.057,5.057,0,0,1-3.451,8.282" transform="translate(-222.198 -128.348)"/>
          <path id="Trazado_203695" data-name="Trazado 203695" d="M167.106,41.2a4.885,4.885,0,0,1-3.007,4.585,4.735,4.735,0,0,1-5.473-.9c-1.644-1.53-3.223-3.134-4.771-4.762a5.086,5.086,0,0,1-.1-6.693,4.931,4.931,0,0,1,6.747-.807,44.768,44.768,0,0,1,5.653,5.626,4.279,4.279,0,0,1,.949,2.954" transform="translate(-118.593 -24.588)"/>
          <path id="Trazado_203696" data-name="Trazado 203696" d="M18.547,190.9a7.27,7.27,0,0,0,.434,5.153,37.629,37.629,0,0,0,5.829,9.688,68.036,68.036,0,0,0,7.546,8.156,47.711,47.711,0,0,0,11.789,8.5,12.159,12.159,0,0,0,5.9,1.459,2.742,2.742,0,0,0,1.629-.5c-.628,1.975-1.212,3.966-1.9,5.921a2.722,2.722,0,0,1-4.637,1.016c-3.344-3.169-6.657-6.37-9.981-9.559-1.121-1.075-1.581-1.071-2.7.044q-4.328,4.327-8.655,8.654c-1.4,1.4-2.5,1.392-3.91-.015q-3.5-3.5-7-7.007c-1.287-1.29-1.284-2.443,0-3.731q4.413-4.418,8.83-8.832c.98-.981.98-1.519.021-2.52Q17.02,202.4,12.3,197.467c-1.864-1.954-1.293-4.165,1.27-4.988,1.658-.532,3.318-1.055,4.978-1.582" transform="translate(-8.709 -148.405)" fill="#b9e0f5"/>
          <path id="Trazado_203697" data-name="Trazado 203697" d="M326.219,124.818c-1,0-2,.02-3-.005a2.577,2.577,0,1,1,.063-5.147q3-.017,5.992,0a2.577,2.577,0,1,1,.019,5.148c-1.026.022-2.052,0-3.079,0" transform="translate(-249.197 -93.022)" fill="#636363"/>
          <path id="Trazado_203698" data-name="Trazado 203698" d="M137.6,119.665c1.08,0,2.16-.029,3.239.007a2.6,2.6,0,0,1,2.474,2.451.763.763,0,0,1-.615.91c-1.744.528-3.455,1.18-5.215,1.642a7.826,7.826,0,0,1-3.777-.013,2.512,2.512,0,0,1-1.831-2.645,2.577,2.577,0,0,1,2.4-2.341c1.106-.044,2.214-.009,3.322-.009Z" transform="translate(-102.514 -93.02)" fill="#636363"/>
          <path id="Trazado_203699" data-name="Trazado 203699" d="M245.3,205.567c0,1.024.013,2.048,0,3.072a2.607,2.607,0,0,1-2.535,2.646,2.69,2.69,0,0,1-2.624-2.584,13.04,13.04,0,0,1,.987-5.74,23.461,23.461,0,0,0,.789-2.443c.15-.6.5-.726,1.029-.675a2.6,2.6,0,0,1,2.349,2.485c.033,1.078.007,2.159.007,3.238Z" transform="translate(-186.652 -155.352)" fill="#636363"/>
          <path id="Trazado_203700" data-name="Trazado 203700" d="M306.643,45.965a2.314,2.314,0,0,1-.723,1.438c-1.47,1.471-2.925,2.956-4.414,4.407A2.56,2.56,0,1,1,297.88,48.2q2.209-2.26,4.473-4.466a2.548,2.548,0,0,1,2.856-.461,2.647,2.647,0,0,1,1.435,2.7" transform="translate(-230.963 -33.448)" fill="#636363"/>
          <path id="Trazado_203701" data-name="Trazado 203701" d="M245.4,16.948c0,1.026.014,2.053,0,3.079a2.567,2.567,0,1,1-5.133.1q-.065-3.2,0-6.407a2.566,2.566,0,0,1,5.13.069c.023,1.054,0,2.108,0,3.162" transform="translate(-186.76 -8.724)" fill="#636363"/>
          <path id="Trazado_203702" data-name="Trazado 203702" d="M304.112,185.977a2.523,2.523,0,0,1-1.865-.785c-1.45-1.452-2.913-2.891-4.348-4.357a2.56,2.56,0,1,1,3.528-3.711c1.544,1.474,3.046,2.993,4.532,4.525a2.563,2.563,0,0,1-1.847,4.329" transform="translate(-230.964 -137.14)" fill="#636363"/>
          <path id="Trazado_203703" data-name="Trazado 203703" d="M163.789,45.659a2.466,2.466,0,0,1,1.376-2.45,2.329,2.329,0,0,1,2.732.261,62.026,62.026,0,0,1,4.926,4.946,2.469,2.469,0,0,1-.232,3.33,2.432,2.432,0,0,1-3.327.217c-1.705-1.583-3.324-3.261-4.954-4.923a1.938,1.938,0,0,1-.521-1.382" transform="translate(-127.33 -33.344)" fill="#636363"/>
        </g>
      </g>
    </g>
  </g>
</svg>
