<svg xmlns="http://www.w3.org/2000/svg" xmlns:xlink="http://www.w3.org/1999/xlink" width="1030" height="324.751" viewBox="0 0 1030 324.751">
  <defs>
    <clipPath id="clip-path">
      <path id="Trazado_203484" data-name="Trazado 203484" d="M516.92,0A162.021,162.021,0,0,0,430.16,25.085c-44.506,28.157-69.254,82.5-93.183,135.054-23.707,52.064-48.22,105.9-91.7,133.434A155.175,155.175,0,1,1,264.759,45.763a3.607,3.607,0,0,0,4.762-5.418,162.363,162.363,0,1,0-20.383,259.319c45.292-28.686,70.259-83.512,94.4-136.535,23.491-51.593,47.785-104.945,90.473-131.951a155.263,155.263,0,0,1,220.015,58.48,3.607,3.607,0,0,0,6.373-3.38A162.48,162.48,0,0,0,516.92,0Z" transform="translate(0 0)" fill="#a7e446"/>
    </clipPath>
    <clipPath id="clip-path-2">
      <path id="Trazado_203485" data-name="Trazado 203485" d="M109.222,16.845a10.845,10.845,0,1,0,8.031-3.551,10.845,10.845,0,0,0-8.031,3.551" transform="translate(-106.402 -13.294)" fill="#a7e446"/>
    </clipPath>
    <clipPath id="clip-path-3">
      <path id="Trazado_203486" data-name="Trazado 203486" d="M274.682,33.073a10.839,10.839,0,1,0,4.885-1.171,10.847,10.847,0,0,0-4.885,1.171" transform="translate(-268.727 -31.902)" fill="#a7e446"/>
    </clipPath>
    <clipPath id="clip-path-4">
      <path id="Trazado_203487" data-name="Trazado 203487" d="M654.989,0a161.635,161.635,0,0,0-86.738,25.085c-45.3,28.686-70.271,83.507-94.413,136.523-23.491,51.585-47.785,104.931-90.493,131.939a155.177,155.177,0,0,1-224.975-68.793,3.607,3.607,0,0,0-6.606,2.9,162.393,162.393,0,0,0,235.441,71.987c44.52-28.155,69.266-82.493,93.195-135.042,23.7-52.054,48.218-105.883,91.714-133.419A155.184,155.184,0,0,1,764.721,272.1a155.192,155.192,0,0,1-212.1,6.875,3.607,3.607,0,1,0-4.762,5.418A162.382,162.382,0,1,0,654.989,0Z" transform="translate(-151.46 0)" fill="#64892a"/>
    </clipPath>
    <clipPath id="clip-path-5">
      <path id="Trazado_203488" data-name="Trazado 203488" d="M155.317,90.585a10.841,10.841,0,1,0,4.082-.8,10.85,10.85,0,0,0-4.082.8" transform="translate(-148.555 -89.784)" fill="#64892a"/>
    </clipPath>
    <clipPath id="clip-path-6">
      <path id="Trazado_203489" data-name="Trazado 203489" d="M315.874,116.327a10.851,10.851,0,1,0,8.029-3.551,10.849,10.849,0,0,0-8.029,3.551" transform="translate(-313.056 -112.776)" fill="#64892a"/>
    </clipPath>
    <clipPath id="clip-path-7">
      <rect id="Rectángulo_87938" data-name="Rectángulo 87938" width="145.617" height="145.62" fill="none"/>
    </clipPath>
    <clipPath id="clip-path-8">
      <rect id="Rectángulo_87940" data-name="Rectángulo 87940" width="161.532" height="147.704" fill="none"/>
    </clipPath>
    <clipPath id="clip-path-9">
      <rect id="Rectángulo_87939" data-name="Rectángulo 87939" width="131.107" height="145.62" fill="none"/>
    </clipPath>
  </defs>
  <g id="Grupo_138020" data-name="Grupo 138020" transform="translate(10359 9700)">
    <path id="Unión_1" data-name="Unión 1" d="M8376,11836.5a136.508,136.508,0,0,1,220.923-107.27c21.3,13.377,78.18,43.84,109.908,10.7,32.663-34.116-40.321,98.124-66.8,145.333A136.523,136.523,0,0,1,8376,11836.5Z" transform="translate(-18713 -21374)" fill="#f2fbe3"/>
    <path id="Unión_2" data-name="Unión 2" d="M8376,11836.5a136.508,136.508,0,0,1,220.923-107.27c21.3,13.377,78.18,43.84,109.908,10.7,32.663-34.116-40.321,98.124-66.8,145.333A136.523,136.523,0,0,1,8376,11836.5Z" transform="translate(-976.455 2295.001) rotate(180)" fill="#f2fbe3"/>
    <circle id="Elipse_5552" data-name="Elipse 5552" cx="128.5" cy="128.5" r="128.5" transform="translate(-9972 -9670)" fill="#f2fbe3"/>
    <g id="Grupo_137546" data-name="Grupo 137546" transform="translate(-10359 -9700)">
      <g id="Grupo_137535" data-name="Grupo 137535" transform="translate(0 0)">
        <g id="Grupo_137534" data-name="Grupo 137534" clip-path="url(#clip-path)">
          <rect id="Rectángulo_87932" data-name="Rectángulo 87932" width="661.332" height="324.751" transform="translate(0 0)" fill="#a7e446"/>
        </g>
      </g>
      <g id="Grupo_137537" data-name="Grupo 137537" transform="translate(255.78 31.958)">
        <g id="Grupo_137536" data-name="Grupo 137536" clip-path="url(#clip-path-2)">
          <rect id="Rectángulo_87933" data-name="Rectángulo 87933" width="24.109" height="22.9" transform="translate(-1.209 0)" fill="#a7e446"/>
        </g>
      </g>
      <g id="Grupo_137539" data-name="Grupo 137539" transform="translate(645.995 76.689)">
        <g id="Grupo_137538" data-name="Grupo 137538" clip-path="url(#clip-path-3)">
          <rect id="Rectángulo_87934" data-name="Rectángulo 87934" width="24.765" height="23.229" transform="translate(-1.534 0)" fill="#a7e446"/>
        </g>
      </g>
      <g id="Grupo_137541" data-name="Grupo 137541" transform="translate(364.097 0)">
        <g id="Grupo_137540" data-name="Grupo 137540" clip-path="url(#clip-path-4)">
          <rect id="Rectángulo_87935" data-name="Rectángulo 87935" width="666.399" height="324.751" transform="translate(-0.496 0)" fill="#64892a"/>
        </g>
      </g>
      <g id="Grupo_137543" data-name="Grupo 137543" transform="translate(357.113 215.832)">
        <g id="Grupo_137542" data-name="Grupo 137542" clip-path="url(#clip-path-5)">
          <rect id="Rectángulo_87936" data-name="Rectángulo 87936" width="24.609" height="23.15" transform="translate(-1.455 0)" fill="#64892a"/>
        </g>
      </g>
      <g id="Grupo_137545" data-name="Grupo 137545" transform="translate(752.557 271.103)">
        <g id="Grupo_137544" data-name="Grupo 137544" clip-path="url(#clip-path-6)">
          <rect id="Rectángulo_87937" data-name="Rectángulo 87937" width="24.109" height="22.9" transform="translate(-1.208)" fill="#64892a"/>
        </g>
      </g>
    </g>
    <g id="Grupo_137548" data-name="Grupo 137548" transform="translate(-10274 -9621)">
      <g id="Grupo_137547" data-name="Grupo 137547" clip-path="url(#clip-path-7)">
        <path id="Trazado_203490" data-name="Trazado 203490" d="M132.427,87.5c0,4.589.043,9.178-.03,13.766-.018,1.153.343,1.5,1.416,1.349a4.546,4.546,0,0,1,1.182,0c1.95.236,3.355-.058,4.443-2.16,1.285-2.483,4.507-3.182,7.156-2.17a6.26,6.26,0,0,1-1.06,12.017,5.95,5.95,0,0,1-6.651-3.242,2.007,2.007,0,0,0-2.328-1.39c-1.314.131-3.033-.529-3.856.25s-.248,2.522-.258,3.839c-.033,4.44,0,8.882-.017,13.322a8.981,8.981,0,0,1-9.315,9.335c-5.378.019-10.756.033-16.134-.02-1.052-.01-1.425.3-1.286,1.324a7.116,7.116,0,0,1,.006,1.331c-.1,1.823-.092,3.29,2.084,4.338,2.508,1.208,3.239,4.464,2.265,7.121a6.262,6.262,0,0,1-12.03-.9,5.865,5.865,0,0,1,3.16-6.674,2.194,2.194,0,0,0,1.441-2.6c-.123-1.259.531-2.88-.279-3.69-.747-.747-2.347-.21-3.569-.213-8.388-.019-16.776.012-25.163-.036-1.1-.006-1.541.269-1.376,1.386a6.28,6.28,0,0,1,0,1.478c-.166,1.777.056,3.084,2.022,4.065,2.448,1.221,3.274,4.347,2.43,6.972a6.4,6.4,0,0,1-6.225,4.352,6.311,6.311,0,0,1-5.859-4.807,5.88,5.88,0,0,1,2.907-6.8,2.493,2.493,0,0,0,1.658-2.918c-.106-1.17.364-2.738-.232-3.427-.709-.819-2.32-.254-3.535-.263-4.539-.036-9.079,0-13.618-.018a8.984,8.984,0,0,1-9.354-9.295c-.02-5.378-.03-10.757.018-16.134.009-1.015-.235-1.462-1.3-1.316a5.883,5.883,0,0,1-1.478,0c-1.855-.219-3.166.08-4.188,2.075-1.278,2.5-4.46,3.262-7.124,2.3A6.264,6.264,0,0,1,29.2,98.017a5.952,5.952,0,0,1,6.779,3.247,2,2,0,0,0,2.348,1.364,18.132,18.132,0,0,1,2.957,0c.916.068,1.167-.25,1.159-1.16-.045-4.638-.021-9.276-.021-13.914,0-4.589-.063-9.179.038-13.765.03-1.369-.41-1.754-1.652-1.565a4.784,4.784,0,0,1-1.035,0c-1.843-.13-3.286-.046-4.33,2.1-1.193,2.454-4.378,3.2-6.994,2.308A6.37,6.37,0,0,1,24.19,70.5,6.3,6.3,0,0,1,29.1,64.575a5.916,5.916,0,0,1,6.754,3.014,2.362,2.362,0,0,0,2.81,1.575c1.2-.15,2.763.523,3.541-.285.707-.734.2-2.258.2-3.431.023-4.589-.008-9.178.015-13.766a8.969,8.969,0,0,1,9.238-9.259c5.378-.022,10.757-.04,16.134.023,1.129.013,1.518-.306,1.362-1.4a6.152,6.152,0,0,1,0-1.477c.182-1.789-.085-3.075-2.029-4.061-2.494-1.265-3.3-4.452-2.361-7.11A6.271,6.271,0,0,1,76.789,29a5.957,5.957,0,0,1-3.041,6.876,2.208,2.208,0,0,0-1.529,2.547c.125,1.265-.394,2.981.256,3.706.762.852,2.507.268,3.822.272,8.289.025,16.578-.01,24.867.039,1.151.007,1.633-.277,1.454-1.456a5.174,5.174,0,0,1,0-1.33c.205-1.846-.055-3.171-2.074-4.192-2.5-1.262-3.256-4.464-2.291-7.124a6.266,6.266,0,0,1,12.008.717,5.92,5.92,0,0,1-3.1,6.841,2.215,2.215,0,0,0-1.471,2.582,17.258,17.258,0,0,1,0,2.81c-.078.937.28,1.151,1.171,1.144,5.181-.04,10.361-.02,15.542-.019,6.446,0,10.031,3.611,10.033,10.1,0,5.131.021,10.263-.018,15.394-.007.929.2,1.381,1.21,1.251a7.138,7.138,0,0,1,1.626,0c1.786.183,3.082-.045,4.072-2.011,1.267-2.515,4.43-3.329,7.1-2.4a6.366,6.366,0,0,1,4.242,6.15,6.289,6.289,0,0,1-4.929,5.908,5.946,5.946,0,0,1-6.82-3.16,2.073,2.073,0,0,0-2.452-1.43c-1.3.175-3.046-.569-3.8.321-.643.761-.221,2.443-.226,3.717-.013,3.75,0,7.5,0,11.25" transform="translate(-14.615 -14.613)" fill="#fc4b52"/>
        <path id="Trazado_203491" data-name="Trazado 203491" d="M175.9,312.106c0,.641.04,1.286-.007,1.924-.156,2.128-.1,3.859,2.345,5.087,2.393,1.2,3.016,4.544,2.024,7.089a6.287,6.287,0,0,1-12.055-1.131,6.07,6.07,0,0,1,3.441-6.72,1.848,1.848,0,0,0,1.276-2.09c-.074-2.909,0-5.822-.036-8.733-.012-1.14.317-2.06,1.575-2.022,1.16.035,1.474.933,1.446,2.007-.039,1.529-.01,3.059-.01,4.589" transform="translate(-101.59 -184.623)" fill="#fc4b52"/>
        <path id="Trazado_203492" data-name="Trazado 203492" d="M88.326,18.163c0-1.431-.056-2.865.019-4.292a1.729,1.729,0,0,0-1.232-1.965,6.122,6.122,0,0,1-3.437-6.987A6.408,6.408,0,0,1,89.628.009a6.329,6.329,0,0,1,6.263,4.683,6.17,6.17,0,0,1-3.537,7.322,1.487,1.487,0,0,0-1.047,1.633c.05,2.811.02,5.624.019,8.437,0,1.917-.466,2.792-1.535,2.662-1.7-.208-1.465-1.558-1.466-2.734q0-1.924,0-3.848" transform="translate(-50.472 -0.004)" fill="#fc4b52"/>
        <path id="Trazado_203493" data-name="Trazado 203493" d="M172.878,18.154c0-1.431-.059-2.865.02-4.291a1.734,1.734,0,0,0-1.24-1.963,6.12,6.12,0,0,1-3.423-6.994A6.407,6.407,0,0,1,174.2.009,6.341,6.341,0,0,1,180.455,4.7,6.176,6.176,0,0,1,176.9,12.02a1.488,1.488,0,0,0-1.039,1.637c.047,3.009,0,6.019.028,9.028.012,1.134-.3,2.065-1.556,2.043-1.16-.02-1.491-.907-1.464-1.986.038-1.529.01-3.059.01-4.588" transform="translate(-101.57 -0.004)" fill="#fc4b52"/>
        <path id="Trazado_203494" data-name="Trazado 203494" d="M260.445,312.191c0,.74.041,1.483-.008,2.22-.129,1.936-.062,3.476,2.183,4.57,2.465,1.2,3.2,4.554,2.217,7.162a6.292,6.292,0,0,1-12.072-1,6.071,6.071,0,0,1,3.376-6.752,1.975,1.975,0,0,0,1.328-2.211c-.075-2.909-.006-5.822-.035-8.733-.011-1.094.354-1.941,1.513-1.937s1.53.855,1.507,1.946c-.034,1.578-.009,3.158-.009,4.737" transform="translate(-152.681 -184.623)" fill="#fc4b52"/>
        <path id="Trazado_203495" data-name="Trazado 203495" d="M88.337,312.006c0-1.431.03-2.863-.009-4.292-.032-1.154.179-2.225,1.548-2.193s1.484,1.147,1.472,2.273c-.03,2.862.035,5.725-.034,8.585a1.793,1.793,0,0,0,1.244,1.966,6.131,6.131,0,0,1,3.412,7A6.4,6.4,0,0,1,90,330.238a6.335,6.335,0,0,1-6.2-4.566,6.136,6.136,0,0,1,3.52-7.444,1.436,1.436,0,0,0,1.032-1.634c-.051-1.528-.015-3.059-.015-4.588" transform="translate(-50.483 -184.63)" fill="#fc4b52"/>
        <path id="Trazado_203496" data-name="Trazado 203496" d="M312.031,260.434c-1.579,0-3.158-.014-4.737,0-1.055.011-1.792-.456-1.785-1.517s.751-1.5,1.8-1.5c3.059.018,6.119-.021,9.177.023a1.55,1.55,0,0,0,1.762-1.076,6.159,6.159,0,0,1,7.051-3.584,6.3,6.3,0,0,1-.022,12.3,6.2,6.2,0,0,1-7.048-3.6,1.444,1.444,0,0,0-1.614-1.068c-1.527.068-3.058.019-4.588.018" transform="translate(-184.623 -152.67)" fill="#fc4b52"/>
        <path id="Trazado_203497" data-name="Trazado 203497" d="M18.185,91.327c-.789,0-1.581.039-2.368-.008-1.929-.115-3.484-.081-4.582,2.175-1.188,2.443-4.41,3.171-7.013,2.249a6.285,6.285,0,0,1,.74-12.08,6.057,6.057,0,0,1,6.823,3.228,2.158,2.158,0,0,0,2.431,1.46c2.809-.1,5.624-.009,8.436-.041,1.122-.012,2.084.266,2.073,1.527s-.986,1.529-2.1,1.5c-1.479-.04-2.96-.01-4.44-.01" transform="translate(0 -50.473)" fill="#fc4b52"/>
        <path id="Trazado_203498" data-name="Trazado 203498" d="M312.144,88.3c.74,0,1.483-.042,2.22.008,1.991.136,3.581.115,4.7-2.247,1.15-2.434,4.451-3.116,7.035-2.167a6.291,6.291,0,0,1-.9,12.079,6.047,6.047,0,0,1-6.775-3.322,2.049,2.049,0,0,0-2.34-1.371c-2.86.078-5.723.006-8.585.036-1.077.011-1.965-.305-1.986-1.466-.023-1.262.909-1.585,2.041-1.558,1.529.036,3.059.009,4.589.009" transform="translate(-184.626 -50.448)" fill="#fc4b52"/>
        <path id="Trazado_203499" data-name="Trazado 203499" d="M18.185,175.883c-1.431,0-2.864.05-4.292-.017a1.735,1.735,0,0,0-1.98,1.214,6.118,6.118,0,0,1-6.983,3.444,6.289,6.289,0,0,1-.243-12.217,6.167,6.167,0,0,1,7.326,3.531,1.471,1.471,0,0,0,1.621,1.059c3.009-.048,6.019,0,9.028-.029,1.125-.011,2.082.269,2.068,1.531s-.993,1.525-2.106,1.495c-1.479-.039-2.96-.009-4.44-.009" transform="translate(-0.006 -101.573)" fill="#fc4b52"/>
        <path id="Trazado_203500" data-name="Trazado 203500" d="M312.114,172.876c1.382,0,2.768-.068,4.143.022a1.813,1.813,0,0,0,2.1-1.263,6.1,6.1,0,0,1,6.862-3.427,6.419,6.419,0,0,1,5.011,5.871c.154,2.8-4.44,6.289-4.44,6.289s-6.231-.419-7.507-3.364a1.644,1.644,0,0,0-1.871-1.139c-2.96.045-5.921,0-8.881.026-1.142.011-2.057-.326-2.017-1.583.037-1.163.939-1.469,2.01-1.441,1.529.038,3.059.009,4.589.009" transform="translate(-184.626 -101.572)" fill="#fc4b52"/>
        <path id="Trazado_203501" data-name="Trazado 203501" d="M18.05,260.438c-.789,0-1.585.063-2.367-.012-1.938-.186-3.368.015-4.432,2.174-1.2,2.439-4.4,3.182-7.01,2.267a6.283,6.283,0,0,1,.7-12.079,6.059,6.059,0,0,1,6.833,3.206,2.168,2.168,0,0,0,2.426,1.472c2.858-.1,5.722-.013,8.584-.041,1.092-.011,1.941.351,1.941,1.509s-.852,1.534-1.941,1.513c-1.578-.031-3.158-.008-4.736-.008" transform="translate(-0.001 -152.672)" fill="#fc4b52"/>
        <path id="Trazado_203502" data-name="Trazado 203502" d="M257.414,18.1a21.839,21.839,0,0,1,.012-2.219c.207-2.031,0-3.558-2.241-4.692-2.429-1.229-3.123-4.445-2.171-7.04a6.289,6.289,0,0,1,12.043.751,6.028,6.028,0,0,1-3.153,6.853,2.266,2.266,0,0,0-1.515,2.55c.083,2.81.005,5.625.036,8.437.012,1.078-.3,1.967-1.464,1.99-1.259.025-1.586-.9-1.557-2.04.039-1.529.01-3.059.01-4.589" transform="translate(-152.652 0)" fill="#fc4b52"/>
        <path id="Trazado_203503" data-name="Trazado 203503" d="M77.825,119.844q0-17.538,0-35.077c0-4.554,2.382-6.936,6.931-6.936q35.077,0,70.154,0c4.552,0,6.941,2.382,6.942,6.928q0,35.076,0,70.154c0,4.548-2.39,6.938-6.934,6.938q-35.076,0-70.154,0c-4.551,0-6.938-2.384-6.939-6.93q0-17.538,0-35.077" transform="translate(-47.031 -47.034)" fill="#ffe4e5"/>
        <path id="Trazado_203504" data-name="Trazado 203504" d="M218.138,35.159a3.23,3.23,0,0,1,6.46.084,3.231,3.231,0,1,1-6.46-.084" transform="translate(-131.824 -19.327)" fill="#fdfefe"/>
        <path id="Trazado_203505" data-name="Trazado 203505" d="M31.978,221.371a3.147,3.147,0,0,1,3.138-3.232,3.275,3.275,0,0,1,3.361,3.209,3.323,3.323,0,0,1-3.339,3.257,3.2,3.2,0,0,1-3.16-3.235" transform="translate(-19.325 -131.824)" fill="#fdfefe"/>
        <path id="Trazado_203506" data-name="Trazado 203506" d="M136.746,31.975a3.149,3.149,0,0,1,3.245,3.124,3.284,3.284,0,0,1-3.2,3.374,3.326,3.326,0,0,1-3.268-3.326,3.192,3.192,0,0,1,3.22-3.172" transform="translate(-80.691 -19.323)" fill="#fdfefe"/>
        <path id="Trazado_203507" data-name="Trazado 203507" d="M326.108,136.781a3.161,3.161,0,0,1-3.165,3.211,3.281,3.281,0,0,1-3.333-3.24,3.32,3.32,0,0,1,3.363-3.227,3.2,3.2,0,0,1,3.135,3.257" transform="translate(-193.144 -80.69)" fill="#fdfefe"/>
        <path id="Trazado_203508" data-name="Trazado 203508" d="M35.258,139.987a3.232,3.232,0,0,1-.1-6.463,3.232,3.232,0,1,1,.1,6.463" transform="translate(-19.33 -80.691)" fill="#fdfefe"/>
        <path id="Trazado_203509" data-name="Trazado 203509" d="M322.827,218.146a3.151,3.151,0,0,1,3.275,3.091,3.191,3.191,0,0,1-3.163,3.372,3.319,3.319,0,0,1-3.331-3.26,3.275,3.275,0,0,1,3.218-3.2" transform="translate(-193.144 -131.829)" fill="#fdfefe"/>
        <path id="Trazado_203510" data-name="Trazado 203510" d="M139.989,322.821a3.232,3.232,0,0,1-6.464.116,3.316,3.316,0,0,1,3.257-3.332,3.277,3.277,0,0,1,3.207,3.216" transform="translate(-80.691 -193.142)" fill="#fdfefe"/>
        <path id="Trazado_203511" data-name="Trazado 203511" d="M221.315,326.105a3.155,3.155,0,0,1-3.175-3.2,3.271,3.271,0,0,1,3.269-3.3,3.308,3.308,0,0,1,3.193,3.245,3.2,3.2,0,0,1-3.287,3.251" transform="translate(-131.825 -193.144)" fill="#fdfefe"/>
        <path id="Trazado_203512" data-name="Trazado 203512" d="M179.084,343.93a3.224,3.224,0,0,1,3.208,3.189,3.253,3.253,0,1,1-6.5-.1,3.209,3.209,0,0,1,3.3-3.093" transform="translate(-106.231 -207.841)" fill="#fdfefe"/>
        <path id="Trazado_203513" data-name="Trazado 203513" d="M94.478,14.191a3.216,3.216,0,0,1-3.247-3.146,3.252,3.252,0,1,1,6.5.005,3.221,3.221,0,0,1-3.255,3.141" transform="translate(-55.132 -4.666)" fill="#fdfefe"/>
        <path id="Trazado_203514" data-name="Trazado 203514" d="M179.086,14.191a3.219,3.219,0,0,1-3.3-3.244,3.253,3.253,0,1,1,6.506.053,3.222,3.222,0,0,1-3.207,3.19" transform="translate(-106.23 -4.665)" fill="#fdfefe"/>
        <path id="Trazado_203515" data-name="Trazado 203515" d="M263.607,343.929a3.216,3.216,0,0,1,3.24,3.154,3.252,3.252,0,1,1-6.5-.025,3.214,3.214,0,0,1,3.263-3.129" transform="translate(-157.329 -207.841)" fill="#fdfefe"/>
        <path id="Trazado_203516" data-name="Trazado 203516" d="M97.732,347.2a3.252,3.252,0,1,1-6.5-.119,3.252,3.252,0,0,1,6.5.119" transform="translate(-55.132 -207.839)" fill="#fdfefe"/>
        <path id="Trazado_203517" data-name="Trazado 203517" d="M347.112,260.336a3.252,3.252,0,1,1,.071,6.5,3.252,3.252,0,0,1-.071-6.5" transform="translate(-207.843 -157.325)" fill="#fdfefe"/>
        <path id="Trazado_203518" data-name="Trazado 203518" d="M14.194,94.519a3.237,3.237,0,0,1-3.186,3.216,3.253,3.253,0,1,1,.084-6.5,3.212,3.212,0,0,1,3.1,3.287" transform="translate(-4.667 -55.131)" fill="#fdfefe"/>
        <path id="Trazado_203519" data-name="Trazado 203519" d="M343.93,94.457a3.214,3.214,0,0,1,3.164-3.229,3.252,3.252,0,1,1-.042,6.5,3.221,3.221,0,0,1-3.122-3.274" transform="translate(-207.842 -55.131)" fill="#fdfefe"/>
        <path id="Trazado_203520" data-name="Trazado 203520" d="M14.2,179.021a3.228,3.228,0,0,1-3.134,3.264,3.253,3.253,0,1,1-.021-6.5,3.215,3.215,0,0,1,3.154,3.239" transform="translate(-4.669 -106.227)" fill="#fdfefe"/>
        <path id="Trazado_203521" data-name="Trazado 203521" d="M343.931,178.985a3.224,3.224,0,0,1,3.192-3.2,3.253,3.253,0,1,1-.1,6.5,3.219,3.219,0,0,1-3.093-3.3" transform="translate(-207.842 -106.226)" fill="#fdfefe"/>
        <path id="Trazado_203522" data-name="Trazado 203522" d="M14.2,263.559a3.219,3.219,0,0,1-3.262,3.281,3.252,3.252,0,1,1,.087-6.5,3.222,3.222,0,0,1,3.175,3.222" transform="translate(-4.667 -157.325)" fill="#fdfefe"/>
        <path id="Trazado_203523" data-name="Trazado 203523" d="M266.848,11a3.253,3.253,0,0,1-6.505-.051,3.3,3.3,0,0,1,3.205-3.228" transform="translate(-157.329 -4.665)" fill="#fdfefe"/>
        <path id="Trazado_203524" data-name="Trazado 203524" d="M108.645,159.941c-.681-1-.286-2.1-.3-3.169a7.453,7.453,0,0,0,0-8.081q0-5.132,0-10.263a7.693,7.693,0,0,0,.98-4.529c-.036-6.51-.015-13.02-.014-19.531,0-.592,0-1.183.04-1.775a1.511,1.511,0,0,1,1.566-1.6c.542-.034,1.084-.039,1.627-.04q25.671,0,51.343,0c3.11,0,3.233.126,3.233,3.256q0,25.671,0,51.343c0,3.089-.123,3.209-3.275,3.21q-25.671,0-51.343,0c-3.023,0-3.169-.162-3.194-3.159-.015-1.91.237-3.854-.669-5.66" transform="translate(-65.413 -67.048)" fill="#fefefe"/>
        <path id="Trazado_203525" data-name="Trazado 203525" d="M106.129,155.8c.913.311,1.094,1.047,1.094,1.886,0,1.776.04,3.554-.016,5.328-.027.866.176,1.2,1.131,1.194q27.381-.043,54.763.006c1.19,0,1.089-.61,1.089-1.378q-.009-16.725,0-33.45c0-6.907-.031-13.814.03-20.721.01-1.2-.351-1.451-1.485-1.448q-27.011.052-54.023-.007c-1.278,0-1.519.386-1.511,1.575.054,7.7.024,15.393.031,23.089,0,1.087-.047,2.116-1.393,2.412-1.589-.079-1.724-1.244-1.737-2.419-.032-2.714-.011-5.428-.011-8.141q0-8.438,0-16.875c0-2.183.552-2.752,2.686-2.752q28.939-.007,57.879,0c2.074,0,2.666.58,2.667,2.623q.008,29.013,0,58.027c0,1.973-.6,2.578-2.562,2.579q-29.013.009-58.027,0c-2.058,0-2.631-.585-2.641-2.649q-.017-3.4,0-6.809c.008-1.331.532-2.193,2.037-2.071" transform="translate(-62.897 -62.906)" fill="#fc4b52"/>
        <path id="Trazado_203526" data-name="Trazado 203526" d="M105.811,206.332a1.7,1.7,0,0,1,1.392,1.926q0,2.115,0,4.229a1.707,1.707,0,0,1-1.394,1.927c-1.237-.047-1.7-.829-1.733-1.924q-.062-2.117,0-4.237c.033-1.094.5-1.878,1.736-1.921" transform="translate(-62.875 -124.689)" fill="#fc4b52"/>
        <path id="Trazado_203527" data-name="Trazado 203527" d="M138.342,156.407q0-7.915,0-15.83c0-1.842.406-2.243,2.265-2.244q15.83-.007,31.66,0c1.764,0,2.2.429,2.205,2.156q.009,15.9,0,31.808c0,1.735-.442,2.171-2.193,2.172q-15.829.009-31.66,0c-1.865,0-2.275-.4-2.278-2.234q-.01-7.915,0-15.83" transform="translate(-83.601 -83.595)" fill="#fc4b52"/>
        <path id="Trazado_203528" data-name="Trazado 203528" d="M145.89,160.81c0-4.539.031-9.078-.023-13.617-.012-1.041.293-1.326,1.327-1.322q13.765.057,27.53,0c1.039,0,1.328.288,1.324,1.324q-.056,13.765,0,27.53c0,1.04-.292,1.326-1.327,1.322q-13.765-.057-27.53,0c-1.038,0-1.336-.287-1.324-1.325.053-4.637.023-9.275.023-13.913" transform="translate(-88.149 -88.152)" fill="#ffe4e5"/>
      </g>
    </g>
    <g id="Grupo_137552" data-name="Grupo 137552" transform="translate(-9576 -9622)">
      <g id="Grupo_137551" data-name="Grupo 137551" clip-path="url(#clip-path-8)">
        <path id="Trazado_203538" data-name="Trazado 203538" d="M15.1,163.273c.461-5.37.908-10.742,1.386-16.11.6-6.725,1.227-13.448,1.84-20.172q1.261-13.84,2.515-27.679,1.051-11.651,2.079-23.3.362-4.067.72-8.133c1.71.046,3.342.267,4.376,1.817-.806,7.083-1.3,14.191-1.978,21.283-.647,6.727-1.23,13.461-1.832,20.191s-1.225,13.46-1.8,20.193c-.459,5.375-.991,10.746-1.474,16.119-.375,4.174-.779,8.345-1.11,12.523a5.776,5.776,0,0,1-.213,1.708,6.56,6.56,0,0,1-4.508,1.565" transform="translate(-8.478 -39.327)" fill="#fc4b52"/>
        <path id="Trazado_203539" data-name="Trazado 203539" d="M241.6,240.811a15.025,15.025,0,0,1-10.23,20.73,15.88,15.88,0,0,1-15.386-3.8c-.394-.357-.774-.729-1.16-1.093-1.534-.735-1.83-2.322-2.657-3.545a14.723,14.723,0,0,1,1.973-15.529,20.753,20.753,0,0,1,3.569-3.259,17.5,17.5,0,0,1,7.524-2.864,24.442,24.442,0,0,1,3.764-.008,17.12,17.12,0,0,1,10.559,5.492c.82,1.223,1.943,2.3,2.046,3.874" transform="translate(-118.331 -134.061)" fill="#972d31"/>
        <path id="Trazado_203540" data-name="Trazado 203540" d="M29.724,34.486a24.939,24.939,0,0,1-4.113-1.435c-4.366-2.791-6.958-6.562-7-11.722A13.412,13.412,0,0,1,27.165,8.838a14.526,14.526,0,0,1,15.441,2.9c.5.481.955,1.006,1.431,1.512,1.525.908,1.85,2.523,2.521,3.936.355,1.7.947,3.383.519,5.157-.286,4.633-2.8,8-6.577,10.659a15.4,15.4,0,0,1-4,1.727,14.739,14.739,0,0,1-5.36.344c-.523-.068-1.121,0-1.42-.58" transform="translate(-10.445 -4.505)" fill="#972d31"/>
        <path id="Trazado_203541" data-name="Trazado 203541" d="M126.818,282.787l2.31,3.524L58.191,303.6a20.268,20.268,0,0,1,.576-5.825c.132-.09.381-.2.414-.061.373,1.541,1.422.932,2.353.706,18.917-4.616,37.8-9.372,56.711-14,2.172-.531,4.327-1.126,6.509-1.623a2.615,2.615,0,0,1,2.065-.008" transform="translate(-32.635 -163.722)" fill="#fc4b52"/>
        <path id="Trazado_203542" data-name="Trazado 203542" d="M26.376,302.048a16.685,16.685,0,0,1-.819,5.68,13.669,13.669,0,0,1-8.506,7.291A13.453,13.453,0,0,1,1.423,308.6a12.311,12.311,0,0,1,3.908-15.858l1.295-.939a24.22,24.22,0,0,1,4.125-1.377c1.41-1.056,3-.7,4.552-.5a9.311,9.311,0,0,1,2.67.706,17.517,17.517,0,0,1,3.563,1.907,13.561,13.561,0,0,1,4.847,6.927,3.079,3.079,0,0,1-.007,2.586" transform="translate(0 -167.854)" fill="#972d31"/>
        <path id="Trazado_203543" data-name="Trazado 203543" d="M173.366,8.727A12.736,12.736,0,0,1,182.069.5c7.224-2.037,14.659,2.405,15.943,9.523.084.463.2.919.309,1.378.85,1.5.038,2.925-.2,4.377-1.423,3.489-3.627,6.3-7.361,7.79a11.62,11.62,0,0,1-3.98.984,13.115,13.115,0,0,1-13.935-9.712,10.327,10.327,0,0,1-.274-2.485c.01-1.26-.154-2.554.791-3.624" transform="translate(-96.869 0)" fill="#972d31"/>
        <path id="Trazado_203544" data-name="Trazado 203544" d="M229.787,31.576a23.235,23.235,0,0,0,.651-4.477c4.473,3.684,8.961,7.352,13.417,11.055q16.161,13.433,32.3,26.9a7.677,7.677,0,0,1,.557.566,8.961,8.961,0,0,1-3.891,2.041c-2.151-1.515-4.1-3.262-6.106-4.944-4.593-3.857-9.233-7.662-13.828-11.517-4.677-3.923-9.38-7.816-14.061-11.736-2.709-2.269-5.488-4.462-8.121-6.814-.357-.318-.8-.566-.914-1.07" transform="translate(-128.987 -15.701)" fill="#fc4b52"/>
        <path id="Trazado_203545" data-name="Trazado 203545" d="M322.275,120.146a18.193,18.193,0,0,1,3.791-1.885c3.942-.769,7.536-.133,10.463,2.645a9.569,9.569,0,0,1,2.832,10.385,10.211,10.211,0,0,1-8.142,7.172c-.48.1-.96.206-1.441.309-1.474.825-2.861.1-4.27-.217-4.076-1.476-6.691-4.169-7.525-8.338a8.228,8.228,0,0,1-.139-3.544,10.7,10.7,0,0,1,2.843-5.525c.449-.44.852-.969,1.587-1" transform="translate(-178.345 -68.346)" fill="#972d31"/>
        <path id="Trazado_203546" data-name="Trazado 203546" d="M301.921,165.995a18.48,18.48,0,0,0,4.388.609q-7.132,9.21-14.266,18.42-6.944,8.957-13.9,17.905l-2.2-3.564c-.193-.681.355-1.07.7-1.508,7.962-10.2,15.845-20.456,23.862-30.617.389-.493.694-1.091,1.414-1.246" transform="translate(-154.876 -96.179)" fill="#fc4b52"/>
        <path id="Trazado_203547" data-name="Trazado 203547" d="M119.482,20.749q-.206,1.881-.411,3.762a2.852,2.852,0,0,1-2.164.5q-17.858.023-35.715.006a8.205,8.205,0,0,1-1.952-.179,4.883,4.883,0,0,1-.582-.289q-1.042-1.893-2.082-3.785l42.906-.013" transform="translate(-42.985 -12.022)" fill="#fc4b52"/>
        <path id="Trazado_203548" data-name="Trazado 203548" d="M232.776,264.128c-6.587.013-11.945-5.061-11.953-11.316a11.914,11.914,0,0,1,23.8-.1c.047,6.267-5.285,11.4-11.85,11.415" transform="translate(-123.955 -139.863)" fill="#ffe4e5"/>
        <path id="Trazado_203549" data-name="Trazado 203549" d="M128.454,181.829q13.816,8.107,27.635,16.209c4.654,2.722,9.331,5.408,14,8.11q-1.5,1.348-3,2.7Q146.891,197.072,126.7,185.3a4.088,4.088,0,0,1-.492-.4,5.983,5.983,0,0,1,2.244-3.071" transform="translate(-70.846 -105.353)" fill="#fc4b52"/>
        <path id="Trazado_203550" data-name="Trazado 203550" d="M230.159,191.7,220,163.405a5.227,5.227,0,0,1,3.637-1.287L234.364,191.7l-4.205,0" transform="translate(-123.495 -93.932)" fill="#fc4b52"/>
        <path id="Trazado_203551" data-name="Trazado 203551" d="M132.193,72.308q-13.513-10.1-27.027-20.2Q94.426,44.088,83.662,36.1c-.558-.415-1.148-.792-1.722-1.187a17.457,17.457,0,0,0-.618-5.174l.464-.032c3.193,1.758,5.909,4.137,8.8,6.284,9.159,6.807,18.337,13.592,27.465,20.438,5.382,4.036,10.807,8.018,16.16,12.089a2.6,2.6,0,0,1,.809.767,6.11,6.11,0,0,1-2.824,3.024" transform="translate(-45.649 -17.212)" fill="#fc4b52"/>
        <path id="Trazado_203552" data-name="Trazado 203552" d="M47.988,17.462A9.555,9.555,0,0,1,46.945,36.35,8.552,8.552,0,0,1,42.2,30.644c-1.483-4.722-.617-9,3.281-12.5a2.391,2.391,0,0,1,2.511-.686" transform="translate(-23.303 -10.044)" fill="#ffe4e5"/>
        <path id="Trazado_203553" data-name="Trazado 203553" d="M63.256,67.179Q68.668,79,74.078,90.818q2.785,6.091,5.554,12.188c-.756,1.25-2.065,1.595-3.394,1.908q-7.814-17-15.626-34c-.329-.716-.624-1.446-.935-2.17l3.579-1.569" transform="translate(-33.499 -38.924)" fill="#fc4b52"/>
        <path id="Trazado_203554" data-name="Trazado 203554" d="M40.148,17.137c-2.607.348-3.828,2.294-4.8,4.219A11.119,11.119,0,0,0,38.7,35.538a2.511,2.511,0,0,1,.4.488,10.027,10.027,0,0,1-10.069-4.434,9.468,9.468,0,0,1,.723-11.177,10.2,10.2,0,0,1,10.389-3.277" transform="translate(-15.462 -9.719)" fill="#fec0c2"/>
        <path id="Trazado_203555" data-name="Trazado 203555" d="M69.613,191.443q-9.188,15.921-18.38,31.84c-2.246,3.881-4.538,7.737-6.809,11.6l-3.343-1.751,24.993-43.362a5.888,5.888,0,0,1,3.538,1.669" transform="translate(-23.061 -109.957)" fill="#fc4b52"/>
        <path id="Trazado_203556" data-name="Trazado 203556" d="M27.675,300.5a8.708,8.708,0,0,1,0,17.308c-3.059-1.609-5.245-6.321-4.588-10.079.521-2.977,1.672-5.63,4.591-7.228" transform="translate(-12.892 -174.113)" fill="#ffe4e5"/>
        <path id="Trazado_203557" data-name="Trazado 203557" d="M19.826,300.186c-1.149,1.5-2.68,2.666-3.408,4.528-1.768,4.519-.729,8.372,2.552,11.836.292.308.569.629.853.944a9.086,9.086,0,0,1-9.224-3.658,8.553,8.553,0,0,1,.11-10.151,9.03,9.03,0,0,1,9.117-3.5" transform="translate(-5.043 -173.798)" fill="#fec0c2"/>
        <path id="Trazado_203558" data-name="Trazado 203558" d="M182.539,17.139a8.521,8.521,0,0,1,8.575-8.215,8.61,8.61,0,0,1,8.775,8.382,8.683,8.683,0,0,1-17.35-.167" transform="translate(-102.465 -5.171)" fill="#ffe4e5"/>
        <path id="Trazado_203559" data-name="Trazado 203559" d="M208,82.768q-.955-9.024-1.91-18.048c-.3-2.852-.621-5.7-.932-8.554l3.881-.96q1.462,13.764,2.925,27.527a6,6,0,0,1-3.964.034" transform="translate(-115.16 -31.987)" fill="#fc4b52"/>
        <path id="Trazado_203560" data-name="Trazado 203560" d="M334.683,126.96a6.6,6.6,0,1,1-6.89,6.577,6.747,6.747,0,0,1,6.89-6.577" transform="translate(-184 -73.562)" fill="#ffe4e5"/>
        <path id="Trazado_203561" data-name="Trazado 203561" d="M237.985,138.243l35.209-.02a16.011,16.011,0,0,0,.084,3.75L238,142a3.454,3.454,0,0,1-.011-3.753" transform="translate(-133.28 -80.088)" fill="#fc4b52"/>
        <path id="Trazado_203562" data-name="Trazado 203562" d="M97.24,169.391a14.485,14.485,0,0,1-3.538-1.669c-3.564-3.78-4.32-7.5-2.31-11.213a16.329,16.329,0,0,1,2.034-2.615l3.393-1.908a11.745,11.745,0,0,1,6.244.31,10.321,10.321,0,0,1,4.793,3.838,3.463,3.463,0,0,1,1.265,3.64,11.081,11.081,0,0,1-.826,4.606,15.027,15.027,0,0,1-2.243,3.071,10.318,10.318,0,0,1-8.812,1.94" transform="translate(-50.687 -87.905)" fill="#972d31"/>
        <path id="Trazado_203563" data-name="Trazado 203563" d="M47.032,151.01q-1.067,10.079-2.139,20.157c-.144,1.354-.33,2.7-.453,4.06-.117,1.3-.741,2.129-2.164,2.011-1.443-.119-1.893-1.114-1.763-2.361.569-5.418,1.166-10.832,1.749-16.248.28-2.6.569-5.207.821-7.813.125-1.289.565-2.278,2.128-2.264,1.263.012,1.878.882,1.821,2.458" transform="translate(-22.729 -86.072)" fill="#fc4b52"/>
        <path id="Trazado_203564" data-name="Trazado 203564" d="M51.972,128.123c-.186,2.545-.824,3.452-2.167,3.369-1.46-.09-2.06-1.337-1.77-3.574.154-1.189.586-2.191,1.991-2.251a1.759,1.759,0,0,1,1.935,1.539,3.9,3.9,0,0,1,.012.917" transform="translate(-26.924 -72.811)" fill="#fc4b52"/>
        <path id="Trazado_203565" data-name="Trazado 203565" d="M213.556,127.837l.01,3.753a11.151,11.151,0,0,1-4.57,6.278l-3.637,1.287a10.557,10.557,0,0,1-9.6-3.863,3.28,3.28,0,0,1-1.632-3.449,9.39,9.39,0,0,1,1.27-7.064,14.262,14.262,0,0,1,2.732-2.872,16.739,16.739,0,0,1,3.562-1.444,11.212,11.212,0,0,1,3.965-.035,10.075,10.075,0,0,1,7.9,7.409" transform="translate(-108.851 -69.682)" fill="#972d31"/>
        <path id="Trazado_203566" data-name="Trazado 203566" d="M158.43,147.795a12.536,12.536,0,0,0,1.633,3.449q-13.367,2.923-26.731,5.848c-.583.128-1.161.275-1.742.412a16.345,16.345,0,0,0-1.264-3.641l28.1-6.068" transform="translate(-73.156 -85.634)" fill="#fc4b52"/>
        <path id="Trazado_203567" data-name="Trazado 203567" d="M104.864,171.071a5.208,5.208,0,1,1-.185-10.409,5.4,5.4,0,0,1,5.585,5.209,5.314,5.314,0,0,1-5.4,5.2" transform="translate(-55.799 -93.088)" fill="#ffe4e5"/>
        <path id="Trazado_203568" data-name="Trazado 203568" d="M214.712,135.019a5.73,5.73,0,0,1-6.005,5.583,5.8,5.8,0,0,1-5.82-5.64,5.888,5.888,0,0,1,5.968-5.694,5.775,5.775,0,0,1,5.857,5.751" transform="translate(-113.887 -74.899)" fill="#ffe4e5"/>
      </g>
    </g>
    <g id="Grupo_137554" data-name="Grupo 137554" transform="translate(-10644.447 -12535)">
      <g id="Grupo_137550" data-name="Grupo 137550" transform="translate(734.447 2914)">
        <g id="Grupo_137549" data-name="Grupo 137549" clip-path="url(#clip-path-9)">
          <path id="Trazado_203529" data-name="Trazado 203529" d="M104.3,145.62c-.257-.434-.751-.354-1.132-.481A10.775,10.775,0,0,1,95.459,134.7q-.065-8.389.014-16.78c.012-1.127-.3-1.482-1.424-1.417-1.606.092-3.222.026-4.833.023-3.44-.008-4.741-1.295-4.742-4.712q0-23.535,0-47.069c0-8.011-.034-16.021.01-24.032a25.344,25.344,0,0,1,10.3-21,26.874,26.874,0,0,1,7.671-3.928c-2.944-2.937-5.758-5.74-8.565-8.551a14.42,14.42,0,0,1-1.35-1.458,3.522,3.522,0,0,1,.291-4.67A3.549,3.549,0,0,1,97.5.684a10.348,10.348,0,0,1,1.266,1.138q5.941,5.923,11.861,11.867a2.527,2.527,0,0,0,1.968.866q8.318-.055,16.636,0a2.519,2.519,0,0,0,1.963-.869q6.156-6.211,12.365-12.369A3.645,3.645,0,0,1,147.421.175a3.483,3.483,0,0,1,2.518,2.808,3.643,3.643,0,0,1-1.232,3.448q-4.126,4.119-8.239,8.25c-.325.327-.759.578-.907,1.169a25.542,25.542,0,0,1,9.151,5.225,24.912,24.912,0,0,1,8.56,19.107q.039,36.12,0,72.239c0,2.651-1.368,4.026-4.017,4.092-1.847.046-3.7.072-5.544-.014-1.051-.049-1.362.234-1.35,1.322.06,5.4.033,10.807.026,16.211-.008,6.074-3.208,10.045-9.174,11.413-.079.018-.139.114-.207.174h-3.413c-5.977-1.136-9.462-5.363-9.5-11.565-.027-4.547.022-9.094-.02-13.641a3.106,3.106,0,0,0-2.778-3.367c-2.082-.211-3.459,1.043-3.491,3.312-.056,3.978-.035,7.957-.007,11.936a25.576,25.576,0,0,1-.393,4.521c-.725,4.22-4.352,8.082-8.028,8.617-.459.067-.954-.114-1.379.187Z" transform="translate(-55.368 0)" fill="#fc4b52"/>
          <path id="Trazado_203530" data-name="Trazado 203530" d="M.018,173.282c0-4.879-.04-9.759.011-14.637a10.9,10.9,0,0,1,21.488-2.457,12.124,12.124,0,0,1,.343,2.81c.025,9.569.053,19.138,0,28.706a10.523,10.523,0,0,1-5.729,9.781,10.373,10.373,0,0,1-11.062-.4,10.35,10.35,0,0,1-5.034-9.026c-.065-4.926-.016-9.853-.016-14.779" transform="translate(0 -96.91)" fill="#fc4b52"/>
          <path id="Trazado_203531" data-name="Trazado 203531" d="M338.934,173.46c0,4.879.067,9.759-.018,14.637a10.921,10.921,0,0,1-21.84-.2c.005-9.663-.023-19.327.012-28.991a10.923,10.923,0,0,1,21.846-.227c0,.095.006.189.006.284q0,7.248,0,14.5Z" transform="translate(-207.852 -96.954)" fill="#fc4b52"/>
          <path id="Trazado_203532" data-name="Trazado 203532" d="M134.806,169.179c9.193,0,18.386.03,27.578-.033,1.357-.009,1.631.426,1.628,1.686q-.059,23.814,0,47.627c0,1.288-.309,1.765-1.645,1.664-1.555-.117-3.126-.028-4.689-.027-3.43,0-4.762,1.354-4.763,4.846q0,10.307-.006,20.615a3.328,3.328,0,0,1-2.673,3.526,3.74,3.74,0,0,1-4.169-1.978,3.7,3.7,0,0,1-.282-1.8c0-4.739.111-9.482-.034-14.216a10.591,10.591,0,0,0-6.1-9.809,10.851,10.851,0,0,0-15.444,7.136,10.553,10.553,0,0,0-.327,2.663c.024,4.6.013,9.194.01,13.791,0,2.619-1.334,4.229-3.51,4.249-2.417.022-3.85-1.505-3.862-4.242-.026-5.876-.008-11.753-.008-17.629,0-1.137.006-2.275,0-3.412a3.6,3.6,0,0,0-3.737-3.733c-1.943-.021-3.887-.038-5.828.01-.868.021-1.272-.164-1.271-1.16q.039-24.311,0-48.623c0-1.147.571-1.161,1.413-1.159q13.861.023,27.721.01" transform="translate(-69.272 -110.882)" fill="#ffe4e5"/>
          <path id="Trazado_203533" data-name="Trazado 203533" d="M134.759,92.549c-9.14,0-18.28-.031-27.419.032-1.4.01-1.746-.41-1.7-1.754.1-3.123.01-6.251.036-9.377a18.145,18.145,0,0,1,17.87-17.929c7.388.017,14.776.058,22.163-.011a18.126,18.126,0,0,1,18.02,15.946c.44,4.066.082,8.129.24,12.19.037.954-.576.9-1.218.9q-6.464-.008-12.928,0H134.759" transform="translate(-69.246 -41.634)" fill="#ffe4e5"/>
          <path id="Trazado_203534" data-name="Trazado 203534" d="M21.362,187.414c0-4.738-.01-9.476,0-14.213.007-2.418,1.367-3.958,3.467-3.984,2.224-.027,3.7,1.507,3.7,3.922q.018,14.285,0,28.569a3.541,3.541,0,0,1-2.395,3.637,3.564,3.564,0,0,1-4.783-3.718q.009-7.107,0-14.213" transform="translate(-14.002 -110.929)" fill="#ffe4e5"/>
          <path id="Trazado_203535" data-name="Trazado 203535" d="M345.6,187.466c0,4.832.018,9.665-.01,14.5a3.424,3.424,0,0,1-2.633,3.445,3.627,3.627,0,0,1-3.9-1.344,3.321,3.321,0,0,1-.632-2.132c0-9.712-.01-19.425.013-29.137a3.447,3.447,0,0,1,3.572-3.585,3.492,3.492,0,0,1,3.576,3.616c.036,4.88.012,9.76.011,14.64" transform="translate(-221.852 -110.924)" fill="#ffe4e5"/>
          <path id="Trazado_203536" data-name="Trazado 203536" d="M208.051,102.328c-1.087,0-2.175.027-3.26-.006a4,4,0,0,1-4.079-3.7c.009-2.13,1.741-3.664,4.172-3.675,2.126-.01,4.253-.023,6.379,0,2.413.031,3.949,1.474,3.952,3.66,0,2.2-1.511,3.656-3.9,3.712-1.086.025-2.174,0-3.26,0" transform="translate(-131.575 -62.235)" fill="#fc4b52"/>
          <path id="Trazado_203537" data-name="Trazado 203537" d="M144.7,94.961c1.088,0,2.177-.009,3.265,0a3.912,3.912,0,0,1,4.018,3.59,3.816,3.816,0,0,1-3.7,3.761c-2.409.1-4.829.105-7.237,0a3.792,3.792,0,0,1-3.658-3.791,3.9,3.9,0,0,1,4.045-3.558c1.088-.009,2.177,0,3.265,0" transform="translate(-90.06 -62.248)" fill="#fc4b52"/>
        </g>
      </g>
    </g>
  </g>
</svg>
