<svg xmlns="http://www.w3.org/2000/svg" xmlns:xlink="http://www.w3.org/1999/xlink" width="78.509" height="78.507" viewBox="0 0 78.509 78.507">
  <defs>
    <clipPath id="clip-path">
      <rect id="Rectángulo_87950" data-name="Rectángulo 87950" width="78.509" height="78.507" fill="none"/>
    </clipPath>
  </defs>
  <g id="Grupo_138021" data-name="Grupo 138021" transform="translate(-557.441 -3671)">
    <g id="Grupo_137580" data-name="Grupo 137580" transform="translate(557.441 3671)">
      <g id="Grupo_137580-2" data-name="Grupo 137580" clip-path="url(#clip-path)">
        <path id="Trazado_203571" data-name="Trazado 203571" d="M75.209,78.507H16.083a3.978,3.978,0,0,1-3.22-4.191,4.161,4.161,0,0,1,4.207-3.84c.969-.01,1.939-.005,2.908,0,.543,0,.789-.236.786-.784-.006-1.046-.024-2.092.007-3.137.019-.632-.238-.855-.857-.849-2.117.018-4.235.008-6.352.007-2.22,0-4.439.026-6.658-.008A7.039,7.039,0,0,1,.983,62.738,6,6,0,0,1,0,59.974V24.592c.162-.3.041-.62.079-.929,0-2.55,2.623-5.027,5.413-5.417a21.784,21.784,0,0,1,3.053-.181q13.057.014,26.115.006c.2,0,.408,0,.613,0,1.034-.009,1.09-.054,1.091-1.074q.009-6.356,0-12.712A4.311,4.311,0,0,1,36.907,2a3.886,3.886,0,0,1,3.613-2Q55.836.031,71.152.01c1.2,0,2.4.037,3.6-.008a3.706,3.706,0,0,1,3.75,3.79c-.006.1,0,.2,0,.306q0,35.188.009,70.376a4,4,0,0,1-1.348,3.265,3.861,3.861,0,0,1-1.953.767" transform="translate(0 0)"/>
        <path id="Trazado_203572" data-name="Trazado 203572" d="M0,116.283a.254.254,0,0,1,.133-.029.872.872,0,0,1-.133.794Z" transform="translate(0 -92.458)" fill="#434343"/>
        <path id="Trazado_203573" data-name="Trazado 203573" d="M225.192,86.345c-1.786.01-3.572.027-5.357.028q-9.952.005-19.9.007c-.515,0-.8.041-.669-.71a3.837,3.837,0,0,0-3.813-4.509c-1.071-.019-2.145-.033-3.215.006-.545.02-.769-.1-.745-.7.049-1.274.047-2.552,0-3.827-.021-.588.171-.719.732-.716q6.7.034,13.4.009a6.516,6.516,0,0,0,6.625-5.146,8.7,8.7,0,0,0,.19-1.9q.017-16.5,0-32.994c0-3.54-1.951-6.141-5.144-6.86a9.547,9.547,0,0,0-2.05-.19q-6.507-.025-13.015,0c-.551,0-.745-.113-.742-.71.026-4.465.011-8.931.017-13.4,0-1.029.485-1.564,1.458-1.564q16.038-.008,32.077,0a1.071,1.071,0,0,1,.152.021,1.331,1.331,0,0,1,.524,1.127c.061,1.338.039,2.678.011,4.017-.005.264,0,.577-.356.674-.065-.039-.147-.065-.184-.133-.723-1.352-1.931-1.523-3.32-1.517-8.085.034-16.169.017-24.254.017-.306,0-.612-.007-.918.008a2.261,2.261,0,0,0-2.317,2.185,18.521,18.521,0,0,0-.007,2.9,2.381,2.381,0,0,0,1.886,2.144,6.07,6.07,0,0,0,1.371.1q12.2,0,24.407.01A3.138,3.138,0,0,0,225,23.374a.567.567,0,0,1,.434-.284c.261.149.277.412.3.665a7.388,7.388,0,0,1,.017.765q0,26.711,0,53.423a2.81,2.81,0,0,1-.147,1.278c-.266.311-.455.035-.634-.107a1.143,1.143,0,0,0-1.278-.206,1.12,1.12,0,0,0-.586,1.151c0,.738-.024,1.477.006,2.214.046,1.148.852,1.552,1.823.931.167-.107.312-.273.546-.209a3.578,3.578,0,0,1-.294,3.351" transform="translate(-152.29 -10.476)" fill="#636363"/>
        <path id="Trazado_203574" data-name="Trazado 203574" d="M12.754,133.077q-.011-6.346-.022-12.691c0-4.613-.011-9.227,0-13.84a3.841,3.841,0,0,1,3.636-3.963,2.079,2.079,0,0,1,.758-.049q20.362,0,40.723,0c1.012,0,1.116.12.827,1.1a42.18,42.18,0,0,1-12.163,19.923,36.946,36.946,0,0,1-12.041,7.14A46.814,46.814,0,0,1,22.7,133.273a77,77,0,0,1-8.563.165,2.115,2.115,0,0,1-1.38-.361" transform="translate(-10.122 -81.537)" fill="#dff7f9"/>
        <path id="Trazado_203575" data-name="Trazado 203575" d="M12.684,132.912a44.626,44.626,0,0,0,7.1.138,48.088,48.088,0,0,0,12.15-1.931,39.388,39.388,0,0,0,10.169-4.671,36.579,36.579,0,0,0,7.637-6.764,40.6,40.6,0,0,0,5.8-8.85,48.109,48.109,0,0,0,2.92-7.618c.186-.627.046-.774-.594-.77-3.777.025-7.554.012-11.332.012q-14.624,0-29.248,0c-.331,0-.661-.026-.992-.04a1.562,1.562,0,0,1,.826-.09q20.41,0,40.82,0c1.862,0,3.725.036,5.587.065a3.806,3.806,0,0,1,4,3.993c.016,10.211,0,20.422.023,30.632,0,.675-.327.651-.8.651q-10.875-.011-21.75,0-15.738,0-31.476.014c-.674,0-.932-.132-.892-.864.071-1.3.033-2.6.041-3.9" transform="translate(-10.052 -81.373)" fill="#b2c5c7"/>
        <path id="Trazado_203576" data-name="Trazado 203576" d="M16.191,291.545a3.872,3.872,0,0,1-3.255-3.026c-.158-.614-.078-.85.638-.842,3.034.036,6.069.015,9.1.015h41.39c.331,0,.663.008.994.013a1.179,1.179,0,0,1,.188,1.086,5.826,5.826,0,0,1-.466,1.372,2.233,2.233,0,0,1-2.314,1.457q-22.683-.06-45.367-.029a2.834,2.834,0,0,1-.911-.048" transform="translate(-10.233 -228.791)" fill="#636363"/>
        <path id="Trazado_203577" data-name="Trazado 203577" d="M356.346,79.313c.2-.247.113-.54.113-.812q.006-27.292,0-54.584c0-.27.1-.566-.127-.8-.2-.212-.126-.472-.119-.718q.041-1.36,0-2.72c-.008-.244-.091-.507.133-.71a25.809,25.809,0,0,0,.12-3.775,4.427,4.427,0,0,0-.317-2c.51-.01,1.02-.042,1.529-.024a1.34,1.34,0,0,1,1.384,1.416c.01.229,0,.459,0,.689V84.175c0,1.911-.29,2.2-2.229,2.187-.229,0-.458-.019-.687-.029a5.679,5.679,0,0,0,.18-3.331c-.283-.43-.093-.9-.08-1.342a7.7,7.7,0,0,1,.1-2.347" transform="translate(-283.247 -10.464)" fill="#4e4d4d"/>
        <path id="Trazado_203578" data-name="Trazado 203578" d="M102.509,360.625q-7.5.012-15,.022c-3.086,0-6.172,0-9.259,0a1.337,1.337,0,0,1-1.48-.942,1.273,1.273,0,0,1,1.028-1.651,2.844,2.844,0,0,1,.458-.018h23.95c.1,0,.2.013.3.021a1.775,1.775,0,0,1-.007,2.564" transform="translate(-61.012 -284.75)" fill="#636363"/>
        <path id="Trazado_203579" data-name="Trazado 203579" d="M125.3,324.965c-3.213,0-6.425,0-9.638.017-.481,0-.677-.112-.663-.636.035-1.325.017-2.651.008-3.977,0-.369.018-.628.513-.625,3.314.027,6.628.031,9.942.042a.675.675,0,0,1,.2.4,41.013,41.013,0,0,1,0,4.245.565.565,0,0,1-.365.532" transform="translate(-91.455 -254.295)" fill="#636363"/>
        <path id="Trazado_203580" data-name="Trazado 203580" d="M29.1,291.54c.331-.007.663-.02.994-.02q22.7,0,45.409.017a1.707,1.707,0,0,0,1.622-.885,4.583,4.583,0,0,0,.845-2.951c.663,0,1.329.031,1.988-.024.689-.058.684.336.615.805A3.947,3.947,0,0,1,77.5,291.52a9.591,9.591,0,0,1-1.747.154q-22.883,0-45.765-.006c-.3,0-.616.08-.887-.128" transform="translate(-23.146 -228.786)" fill="#37474f"/>
        <path id="Trazado_203581" data-name="Trazado 203581" d="M165.322,325.021a1.243,1.243,0,0,0,.159-.87q0-2.154,0-4.308c.662-.006,1.324.006,1.985-.025.447-.021.638.11.629.6q-.04,2.023,0,4.047c.011.5-.2.6-.638.584-.712-.028-1.424-.017-2.137-.023" transform="translate(-131.481 -254.35)" fill="#37474f"/>
        <path id="Trazado_203582" data-name="Trazado 203582" d="M202.73,360.645a2.652,2.652,0,0,0,.007-2.564c.531-.006,1.062-.027,1.593-.013a1.221,1.221,0,0,1,1.325,1.247,1.287,1.287,0,0,1-1.257,1.343c-.553.036-1.112-.006-1.668-.013" transform="translate(-161.232 -284.77)" fill="#37464e"/>
        <path id="Trazado_203583" data-name="Trazado 203583" d="M235.574,34.3a15.989,15.989,0,0,1-.014,4.148,2.809,2.809,0,0,1-2.886,1.83q-12.674-.019-25.348-.007a2.679,2.679,0,0,1-3.029-3.007c0-.715-.01-1.43,0-2.144a2.549,2.549,0,0,1,2.637-2.672q13.057-.017,26.114,0a2.533,2.533,0,0,1,2.524,1.855" transform="translate(-162.474 -25.803)"/>
        <path id="Trazado_203584" data-name="Trazado 203584" d="M320.681,144.922a3.888,3.888,0,0,1-3.886,3.9,3.962,3.962,0,0,1-3.939-3.948,3.9,3.9,0,0,1,3.99-3.875,3.844,3.844,0,0,1,3.835,3.926" transform="translate(-248.816 -112.135)"/>
        <path id="Trazado_203585" data-name="Trazado 203585" d="M320.681,93.788a3.912,3.912,0,1,1-3.9-3.95,3.878,3.878,0,0,1,3.9,3.95" transform="translate(-248.816 -71.449)"/>
        <path id="Trazado_203586" data-name="Trazado 203586" d="M244.94,335.214c0,.459.025.919-.006,1.376a1.18,1.18,0,0,1-1.131,1.147,1.122,1.122,0,0,1-1.34-.879,8.412,8.412,0,0,1-.008-3.408,1.137,1.137,0,0,1,1.408-.881,1.171,1.171,0,0,1,1.076,1.192c.026.483.005.968.005,1.453h0" transform="translate(-192.691 -264.478)" fill="#000001"/>
        <path id="Trazado_203587" data-name="Trazado 203587" d="M319.377,335.1c0-.408-.015-.816,0-1.223a1.285,1.285,0,0,1,2.556-.219,20.054,20.054,0,0,1,0,2.975,1.257,1.257,0,0,1-1.314,1.141,1.277,1.277,0,0,1-1.239-1.3c-.022-.458,0-.917,0-1.376" transform="translate(-253.997 -264.488)" fill="#000001"/>
        <path id="Trazado_203588" data-name="Trazado 203588" d="M347.366,333.291a12.229,12.229,0,0,1-.017,3.688,1.293,1.293,0,0,1-1.614.652,1.36,1.36,0,0,1-.875-1.52c.024-.685.022-1.373,0-2.058a1.3,1.3,0,0,1,.918-1.485,1.283,1.283,0,0,1,1.588.723" transform="translate(-274.267 -264.442)"/>
        <path id="Trazado_203589" data-name="Trazado 203589" d="M296.463,335.156a7.467,7.467,0,0,1-.09,1.6,1.26,1.26,0,0,1-1.349,1,1.193,1.193,0,0,1-1.161-1.2q-.043-1.412,0-2.827a1.147,1.147,0,0,1,1.1-1.158,1.236,1.236,0,0,1,1.4.918,7.236,7.236,0,0,1,.1,1.672" transform="translate(-233.693 -264.48)" fill="#000001"/>
        <path id="Trazado_203590" data-name="Trazado 203590" d="M270.484,335.173c0,.484.027.969-.007,1.451a1.166,1.166,0,0,1-1.142,1.131,1.132,1.132,0,0,1-1.327-.9,8.706,8.706,0,0,1-.016-3.336,1.148,1.148,0,0,1,1.367-.941,1.212,1.212,0,0,1,1.129,1.22c.026.457,0,.917,0,1.375h-.01" transform="translate(-213.014 -264.496)" fill="#000001"/>
        <path id="Trazado_203591" data-name="Trazado 203591" d="M26.739,131.054a1.291,1.291,0,0,1-1.084-.671,1.165,1.165,0,0,1,.024-1.3,3.66,3.66,0,0,1,.507-.569q6.22-6.227,12.446-12.447a2.515,2.515,0,0,1,.643-.531A1.289,1.289,0,0,1,41,117.287a2.409,2.409,0,0,1-.477.59q-6.246,6.254-12.5,12.5a1.784,1.784,0,0,1-1.287.674" transform="translate(-20.254 -91.761)" fill="#b2c5c7"/>
        <path id="Trazado_203592" data-name="Trazado 203592" d="M26.79,123.233a1.349,1.349,0,0,1-1.183-.8,1.244,1.244,0,0,1,.307-1.471c.762-.79,1.547-1.558,2.323-2.334.9-.9,1.8-1.812,2.709-2.706a1.349,1.349,0,0,1,1.971-.174,1.333,1.333,0,0,1-.108,2.025c-1.632,1.653-3.282,3.289-4.926,4.93a1.619,1.619,0,0,1-1.094.534" transform="translate(-20.268 -91.772)" fill="#b2c5c7"/>
        <path id="Trazado_203593" data-name="Trazado 203593" d="M230.031,47.774c-4.083,0-8.166-.014-12.248.014-.635,0-.822-.164-.81-.805.034-1.817,0-1.818,1.852-1.818,7.834,0,15.668.009,23.5-.015.672,0,.869.165.852.847-.044,1.776-.01,1.777-1.816,1.777h-11.33" transform="translate(-172.559 -35.908)" fill="#fc4b52"/>
        <path id="Trazado_203594" data-name="Trazado 203594" d="M326.943,153.742a1.262,1.262,0,0,1,1.292,1.307,1.306,1.306,0,0,1-1.325,1.294,1.356,1.356,0,0,1-1.276-1.288,1.313,1.313,0,0,1,1.308-1.313" transform="translate(-258.979 -122.272)" fill="#feca2e"/>
        <path id="Trazado_203595" data-name="Trazado 203595" d="M328.241,103.933a1.3,1.3,0,0,1-1.287,1.326,1.339,1.339,0,0,1-1.311-1.32,1.3,1.3,0,0,1,1.267-1.273,1.261,1.261,0,0,1,1.33,1.267" transform="translate(-258.986 -81.651)" fill="#feca2e"/>
      </g>
    </g>
  </g>
</svg>
