<svg xmlns="http://www.w3.org/2000/svg" xmlns:xlink="http://www.w3.org/1999/xlink" width="78.509" height="78.462" viewBox="0 0 78.509 78.462">
  <defs>
    <clipPath id="clip-path">
      <rect id="Rectángulo_87951" data-name="Rectángulo 87951" width="78.509" height="78.462" fill="none"/>
    </clipPath>
  </defs>
  <g id="Grupo_138022" data-name="Grupo 138022" transform="translate(6636.559 8031)">
    <g id="Grupo_137581" data-name="Grupo 137581" transform="translate(-6636.559 -8031)">
      <g id="Grupo_137581-2" data-name="Grupo 137581" clip-path="url(#clip-path)">
        <path id="Trazado_203596" data-name="Trazado 203596" d="M36.039,52.734c-6.129-.008-12.259-.028-18.388-.019a18.179,18.179,0,0,1-8.19-1.887A17.153,17.153,0,0,1,2.884,26.306,16.868,16.868,0,0,1,14.575,18.7c.553-.091.633-.4.712-.8a8.11,8.11,0,0,1,3.354-5.2,8.155,8.155,0,0,1,7.251-1.292c.6.168.883.114,1.2-.494,3.269-6.3,8.424-10,15.489-10.791A19.559,19.559,0,0,1,63.712,14.886a14.277,14.277,0,0,1,.486,3.171.659.659,0,0,0,.631.75A17.113,17.113,0,0,1,78.473,33.383c.021.16-.071.369.152.468V37.53a15.1,15.1,0,0,1-1.589,5.694,17.149,17.149,0,0,1-7.384,7.627,17.759,17.759,0,0,1-8.687,2.086c-6.1-.035-12.206-.009-18.31-.009-1.144.031-2.287.027-3.43,0-.8.032-1.6.016-2.406.008a1.07,1.07,0,0,1-.779-.207" transform="translate(-0.115 0)"/>
        <path id="Trazado_203597" data-name="Trazado 203597" d="M3.541,328.08a30.917,30.917,0,0,0-3-3.114A1.633,1.633,0,0,1,0,323.706q.031-6.858,0-13.716c0-.61.163-.748.756-.747q17.126.027,34.252.012c.305,0,.611-.022.916-.033.334-.315.756-.23,1.15-.235.68-.009,1.36-.023,2.04.01q1.778-.043,3.556,0a12.825,12.825,0,0,1,1.3-.022q16.532,0,33.064,0a2.125,2.125,0,0,1,1.474.246v15.331a20.467,20.467,0,0,1-3.526,3.526Z" transform="translate(0 -249.617)"/>
        <path id="Trazado_203599" data-name="Trazado 203599" d="M181.365,280.376a10.575,10.575,0,0,0,1.357.007c.657-.077.811.185.78.8-.051,1.036-.052,2.078,0,3.113.031.607-.161.831-.754.74a2.16,2.16,0,0,0-.452.024c-1.107-.067-1.107-.067-1.107-1.2,0-.934-.008-1.869.006-2.8,0-.231-.124-.514.17-.68" transform="translate(-146.373 -226.518)"/>
        <path id="Trazado_203600" data-name="Trazado 203600" d="M11.975,274.906c0-1.186,0-1.186,1.39-1.186.911,0,.911,0,.911,1.471,0,.831-.008.741-1.464.858-1.15.093-.789-.633-.837-1.144" transform="translate(-9.66 -221.146)" fill="#010101"/>
        <path id="Trazado_203601" data-name="Trazado 203601" d="M14.35,294.89c0,1.085,0,1.085-1.44,1.085-.861,0-.861,0-.86-1.435,0-.866,0-.866,1.44-.865.86,0,.86,0,.86,1.216" transform="translate(-9.735 -237.267)" fill="#010101"/>
        <path id="Trazado_203602" data-name="Trazado 203602" d="M14.35,254.81c0,1.132,0,1.132-1.421,1.131-.88,0-.88,0-.879-1.417,0-.886.006-.809,1.5-.909,1.17-.079.72.7.8,1.194" transform="translate(-9.735 -204.899)" fill="#010101"/>
        <path id="Trazado_203603" data-name="Trazado 203603" d="M38.737,30.408a4.393,4.393,0,0,1,1.588-.168c2.016,0,4.032,0,6.048.007a7.793,7.793,0,0,0,.1-2.025c.021-.272-.14-.349-.384-.343-.306.007-.613,0-.919,0-.759-.008-.9-.177-.67-.926a6.944,6.944,0,0,1,1.941-3.244c.4-.364.709-.9,1.376-.832a5.664,5.664,0,0,1,3.031,1.064c.479.3.734.342.922-.306a18.5,18.5,0,0,1,.8-1.958c.686-.277,1.289.08,1.9.277.952.307.959.339,1.366-.6a18.71,18.71,0,0,1,6.3-7.619,13.746,13.746,0,0,1,3.253-1.77,15.555,15.555,0,0,1,8.057.563A17.1,17.1,0,0,1,85.268,25.893a15.431,15.431,0,0,1,.283,3.581c-.012.569.167.734.717.783a14.548,14.548,0,0,1,10.385,5.493A14.864,14.864,0,0,1,88.8,59.367a15.4,15.4,0,0,1-3.787.482q-22.073,0-44.145,0a7.11,7.11,0,0,1-1.979-.174,10.1,10.1,0,0,1-3.415-1.943c-.278-.218-.558-.527.114-.613a25.827,25.827,0,0,0,3.787.92,7.469,7.469,0,0,0,.761.069.465.465,0,0,0,.534-.5c.007-.23,0-.46.007-.689.026-.48-.188-.662-.672-.709a11.094,11.094,0,0,1-5.617-2.051A11.255,11.255,0,0,1,29.664,45.9a2.248,2.248,0,0,0-.215-.886,8.362,8.362,0,0,1,.322-3.929,15.836,15.836,0,0,1,8.054-10.312c.3-.16.622-.211.911-.37" transform="translate(-23.695 -9.44)" fill="#dff7f9"/>
        <path id="Trazado_203604" data-name="Trazado 203604" d="M24.711,109.167c-1.226.849-2.554,1.53-3.705,2.509a15.67,15.67,0,0,0-4.418,6.191,13.6,13.6,0,0,0-1.078,5.865c-.294.289-.672.213-1.014.193-.609-.036-.84.218-.771.81a13.448,13.448,0,0,0,2.967,7.316,13.033,13.033,0,0,0,4.382,3.487c.191.091.46.144.407.462-.4.094-.137.2-.006.3a26.954,26.954,0,0,0,3.386,2.129,13.753,13.753,0,0,1-8.74-4.421,14.684,14.684,0,0,1,.655-21.1,13.4,13.4,0,0,1,7.935-3.742" transform="translate(-9.669 -88.199)" fill="#b2d7f3"/>
        <path id="Trazado_203605" data-name="Trazado 203605" d="M163.187,13.176a21.243,21.243,0,0,1-2.591,1.553,19.342,19.342,0,0,0-6.011,6.361,23.847,23.847,0,0,0-1.1,2.258c-.168.373-.291.461-.651.26a7.394,7.394,0,0,0-2.466-.724,17.084,17.084,0,0,1,12.817-9.707" transform="translate(-121.488 -10.645)" fill="#b2d7f3"/>
        <path id="Trazado_203606" data-name="Trazado 203606" d="M97.484,69.635a7.223,7.223,0,0,0-3.222,4.434c-.109.38.1.47.447.5,1.527.113,1.532.122,1.511,1.678,0,.259.13.57-.183.761.02-.558.016-1.119.067-1.674.045-.488-.1-.654-.619-.641-1.426.035-2.853.008-4.28.007-.262,0-.466.054-.391-.386a6.2,6.2,0,0,1,6.67-4.676" transform="translate(-73.358 -56.197)" fill="#b2d7f3"/>
        <path id="Trazado_203608" data-name="Trazado 203608" d="M99.655,322.7q.012,5.669.03,11.337a.942.942,0,0,1-.313.739q-.854.825-1.679,1.68a.894.894,0,0,1-.8.339,2.291,2.291,0,0,0-.306,0H31.766c-.255,0-.51-.015-.765-.024-1.175-.687-2.089-1.514-1.922-3.068.079-.729,0-1.474.018-2.212.006-.3-.031-.62.245-.845.375.02.391.356.5.592a4.336,4.336,0,0,0,6.61,1.992,2.172,2.172,0,0,1,.474-.247,3.591,3.591,0,0,0,2.71-1.493c.129-.191.294-.363.57-.265.367.356.544.844.875,1.233a4.311,4.311,0,0,0,5.694.894,2.766,2.766,0,0,1,.741-.38,3.6,3.6,0,0,0,2.587-1.378c.136-.173.272-.37.53-.391.353.078.431.405.582.659a4.343,4.343,0,0,0,6.155,1.46,1.932,1.932,0,0,1,.739-.38,3.235,3.235,0,0,0,3.082-2.7,3.148,3.148,0,0,0-2.066-3.564c-.385-.132-.787-.207-1.178-.318a6.062,6.062,0,0,0-2.9-1.035,4.378,4.378,0,0,0-3.85,2.194c-.16.255-.248.564-.54.72a.249.249,0,0,1-.272-.088,3.978,3.978,0,0,0-3.025-1.8,5.261,5.261,0,0,0-2.889-1.023,4.319,4.319,0,0,0-3.7,2.03,3.1,3.1,0,0,1-.535.732.414.414,0,0,1-.535-.165,4.279,4.279,0,0,0-2.8-1.559,7.216,7.216,0,0,0-2.522-1.013,4.432,4.432,0,0,0-4.523,2.679c-.114.239-.063.81-.646.519a4.021,4.021,0,0,1-.148-1.666c-.009-1.149-.015-2.3.005-3.448.01-.577.21-.942.874-.828a1.849,1.849,0,0,0,.306,0q34.253,0,68.506,0a1.648,1.648,0,0,1,.9.081" transform="translate(-23.469 -260.631)" fill="#afafaf"/>
        <path id="Trazado_203609" data-name="Trazado 203609" d="M85.879,322.342q-14.362,0-28.724-.009-20.336,0-40.673-.019c-.778,0-1.009.19-.973.973.066,1.427.015,2.859.023,4.288,0,.245-.086.516.132.726a2.874,2.874,0,0,1-.009,2.012,19.415,19.415,0,0,0-.082,4.24c.012.444.57.684.871,1.024.252.285.521.556.782.834l-2.45.024a.715.715,0,0,1-.571-.154q-1.025-1.033-2.055-2.061c-.186-.187-.138-.428-.138-.653,0-3.575.008-7.15-.012-10.724,0-.5.14-.667.646-.656,1.2.027,2.4-.006,3.6-.006q34.356,0,68.712.007c.306,0,.66-.158.922.153" transform="translate(-9.694 -260.272)" fill="#57565c"/>
        <path id="Trazado_203610" data-name="Trazado 203610" d="M216.708,285.083c-1.183-.062-1.183-.062-1.183-1.31,0-.918.033-1.838-.012-2.753-.027-.532.178-.649.653-.618.532.034,1.068.006,1.6,0,.133,1.411.013,2.827.063,4.239.012.344-.123.441-.441.415a5.763,5.763,0,0,0-.681.022" transform="translate(-174.116 -226.541)"/>
        <path id="Trazado_203611" data-name="Trazado 203611" d="M387.1,254.76c0,1.15,0,1.15-1.375,1.15-.926,0-.926,0-.925-1.446,0-.855.008-.764,1.449-.883,1.137-.094.816.613.852,1.18" transform="translate(-310.891 -204.868)" fill="#010101"/>
        <path id="Trazado_203612" data-name="Trazado 203612" d="M387.1,274.936c0,1.085,0,1.085-1.44,1.085-.861,0-.861,0-.86-1.435,0-.866,0-.866,1.44-.866.861,0,.861,0,.861,1.216" transform="translate(-310.89 -221.146)" fill="#010101"/>
        <path id="Trazado_203613" data-name="Trazado 203613" d="M385.863,293.594c1.112,0,1.112,0,1.112,1.423,0,.879,0,.879-1.494.878-.808,0-.732-.006-.831-1.488-.076-1.15.674-.752,1.213-.813" transform="translate(-310.765 -237.187)" fill="#010101"/>
        <path id="Trazado_203614" data-name="Trazado 203614" d="M199.184,282.181c1.33.061,1.33.061,1.33,1.381,0,.583-.041,1.17.011,1.748.057.643-.111.971-.818.848a2.349,2.349,0,0,0-.529.027c-.836.108-1.1-.265-1-1.075a7.626,7.626,0,0,0,0-1.891c-.113-.84.2-1.151,1.007-1.038" transform="translate(-160.095 -227.963)" fill="#010102"/>
        <path id="Trazado_203615" data-name="Trazado 203615" d="M28.016,197.264a14.213,14.213,0,0,1-5.476-4.5,13.487,13.487,0,0,1-2.479-7.1c-.031-.5.1-.682.612-.64A13.031,13.031,0,0,0,22.044,185c.393.023.307.325.323.562A10.968,10.968,0,0,0,32.8,196.01c.488.029.574.185.575.629,0,1.814.022,1.793-1.77,1.573a17.483,17.483,0,0,1-3.59-.948" transform="translate(-16.204 -149.463)"/>
        <path id="Trazado_203616" data-name="Trazado 203616" d="M276.487,44.42c-.08.28.225.842-.184.967a3.841,3.841,0,0,1-1.963,0c-.211-.049-.135-.355-.145-.553A13.132,13.132,0,0,0,268.3,34.327c-.828-.584-.84-.565-.319-1.41.686-1.111.7-1.136,1.793-.36a15.536,15.536,0,0,1,6.559,10.353c.048.275.114.547.146.823a6.521,6.521,0,0,1,0,.687" transform="translate(-216.226 -25.871)" fill="#fefefe"/>
        <path id="Trazado_203617" data-name="Trazado 203617" d="M319.253,225.338c.053-.3-.154-.72.117-.983s.685-.072,1.033-.124a11.438,11.438,0,0,0,7.395-4.037c.309-.372.508-.344.862-.111,1.464.964,1.495,1.225.22,2.4a15.277,15.277,0,0,1-4.387,2.988,14.738,14.738,0,0,1-4.19,1.064c-1.046.11-1.051.066-1.051-1.193" transform="translate(-257.912 -177.672)" fill="#fefefe"/>
        <path id="Trazado_203618" data-name="Trazado 203618" d="M232.3,19.708l1.268.179c.05.007.125.008.144.039.4.647-.028,1.272-.078,1.9-.032.4-.415.375-.733.307-.1-.021-.194-.062-.292-.09-.376-.108-.982.2-1.109-.22a4.536,4.536,0,0,1-.045-1.819c.061-.487.544-.194.845-.3" transform="translate(-186.94 -15.923)" fill="#fdfefe"/>
        <path id="Trazado_203619" data-name="Trazado 203619" d="M378.479,185.763c-.056.448-.122.9-.165,1.352-.025.26-.167.377-.4.342-.524-.077-1.044-.184-1.566-.275-.3-.052-.351-.26-.324-.51.047-.453.105-.9.158-1.356a.285.285,0,0,1,.291-.291c.56-.007,1.123-.036,1.68.007.483.037.254.462.327.731" transform="translate(-303.794 -149.474)" fill="#fefefe"/>
        <path id="Trazado_203620" data-name="Trazado 203620" d="M230.584,243.673c0,1.121,0,1.121-1.411,1.121-.89,0-.89,0-.889-1.407,0-.9,0-.9,1.48-.894.82,0,.82,0,.82,1.18" transform="translate(-184.436 -195.917)" fill="#010101"/>
        <path id="Trazado_203621" data-name="Trazado 203621" d="M210.629,243.591c0,1.2,0,1.2-1.176,1.2-1.124,0-1.124,0-1.124-1.1,0-1.2,0-1.2,1.169-1.2,1.132,0,1.132,0,1.132,1.1" transform="translate(-168.314 -195.917)" fill="#010101"/>
        <path id="Trazado_203622" data-name="Trazado 203622" d="M190.675,243.487c0,1.164,0,1.164-1.4,1.163-.9,0-.9,0-.9-1.394,0-.908.007-.823,1.466-.934,1.144-.087.788.64.835,1.164" transform="translate(-152.192 -195.774)" fill="#010101"/>
        <path id="Trazado_203623" data-name="Trazado 203623" d="M169.39,242.427c1.184,0,1.184,0,1.184,1.4,0,.9,0,.9-1.476.9-.825,0-.739-.007-.852-1.47-.088-1.149.647-.775,1.145-.831" transform="translate(-135.924 -195.85)" fill="#010101"/>
        <path id="Trazado_203624" data-name="Trazado 203624" d="M372.108,206.208a7.5,7.5,0,0,1-1.873-1.04,9.973,9.973,0,0,1,.7-1.666c.206-.347.563-.015.823.068,1.51.479,1.513.492.777,1.995-.115.236-.156.546-.423.643" transform="translate(-299.122 -164.29)" fill="#fefefe"/>
        <path id="Trazado_203625" data-name="Trazado 203625" d="M251.383,23.148c.579,0,1.95.69,1.928.971-.041.5-.784,1.742-1.05,1.748-.43.01-1.68-.655-1.677-.892.01-.757.478-1.827.8-1.827" transform="translate(-202.453 -18.702)" fill="#fefefe"/>
        <path id="Trazado_203626" data-name="Trazado 203626" d="M147.119,343.8a4.676,4.676,0,0,1-7.451-1.833,3.009,3.009,0,0,1-.034-3.051,4.628,4.628,0,0,1,4.794-3.051,4.746,4.746,0,0,1,2.565,1.071c1.238.5,2.126,2.68,1.62,4.574a3.218,3.218,0,0,1-1.495,2.29" transform="translate(-112.492 -271.348)"/>
        <path id="Trazado_203627" data-name="Trazado 203627" d="M92.068,343.73a4.618,4.618,0,0,1-5.392.522,4.394,4.394,0,0,1-1.979-2.328,2.755,2.755,0,0,1,.011-3.246c1.478-3.039,4.524-3.811,7.24-1.835a1.96,1.96,0,0,1,.962.821,4.78,4.78,0,0,1-.184,5.568,1.565,1.565,0,0,1-.657.5" transform="translate(-68.006 -271.264)"/>
        <path id="Trazado_203628" data-name="Trazado 203628" d="M30.729,341.325a6.73,6.73,0,0,1,.009-2.012,4.608,4.608,0,0,1,7.5-2.417,3.8,3.8,0,0,1,1.705,3.654,4.535,4.535,0,0,1-.729,2.371,2.124,2.124,0,0,1-.951.84,4.631,4.631,0,0,1-6.654-.6,5.294,5.294,0,0,1-.882-1.839" transform="translate(-24.767 -271.284)"/>
        <path id="Trazado_203629" data-name="Trazado 203629" d="M287.923,330.4c1.737,0,3.474.013,5.211-.008.459-.006.617.134.63.606.048,1.7.065,1.7-1.658,1.7-3.091,0-6.182-.013-9.273.012-.579,0-.8-.119-.788-.751.032-1.562,0-1.562,1.586-1.562h4.292" transform="translate(-227.871 -266.93)" fill="#fefefe"/>
        <path id="Trazado_203630" data-name="Trazado 203630" d="M337.6,378.839c-1.2,0-2.4-.014-3.6.008-.414.007-.57-.1-.584-.549-.055-1.759-.072-1.758,1.663-1.758,2.065,0,4.131.011,6.2-.009.449,0,.614.1.62.589.021,1.72.042,1.72-1.7,1.72h-2.6" transform="translate(-269.37 -304.209)"/>
        <path id="Trazado_203631" data-name="Trazado 203631" d="M179.752,348.351a4.625,4.625,0,0,0,.7-5.87c-.241-.354-.547-.664-.824-.995,2.076.305,2.978,1.058,3.4,2.848a3.351,3.351,0,0,1-3.27,4.016" transform="translate(-145.126 -275.897)" fill="#57565c"/>
        <path id="Trazado_203632" data-name="Trazado 203632" d="M124.767,348.312a4.656,4.656,0,0,0-.12-6.888,3.772,3.772,0,0,1,3.2,1.992,6.179,6.179,0,0,0,.034,3.051c-.809,1-1.678,1.9-3.114,1.844" transform="translate(-100.706 -275.846)" fill="#57565b"/>
        <path id="Trazado_203633" data-name="Trazado 203633" d="M70.163,348.465a4.653,4.653,0,0,0,1.228-4.97,5.34,5.34,0,0,0-1.253-1.9,3.785,3.785,0,0,1,2.972,1.677c.047.068.17.084.258.124a4.619,4.619,0,0,0-.011,3.246c-.56.267-.69.955-1.27,1.236a3.7,3.7,0,0,1-1.923.581" transform="translate(-56.666 -275.988)" fill="#57565c"/>
        <path id="Trazado_203634" data-name="Trazado 203634" d="M351.913,332.7c-1.151,0-1.156,0-1.149-1.187.008-1.336-.119-1.107,1.308-1.113,1.189-.006,1.031-.156,1.033,1.31,0,1.174.112.971-1.192.991" transform="translate(-283.391 -266.928)" fill="#fbfbfb"/>
        <path id="Trazado_203635" data-name="Trazado 203635" d="M371.832,332.7c-1.294-.022-1.124.187-1.126-1.208,0-1.315-.124-1.084,1.326-1.092,1.173-.007,1.01-.143,1.012,1.331,0,1.154.114.95-1.213.969" transform="translate(-299.499 -266.928)" fill="#fbfbfb"/>
        <path id="Trazado_203636" data-name="Trazado 203636" d="M208.014,355.79c-1.161,0-1.161,0-1.16-1.256,0-1.046,0-1.046,1.3-1.045,1.006,0,1.015,0,1,1.334-.01,1.126.171.947-1.138.967" transform="translate(-167.123 -285.593)" fill="#010101"/>
        <path id="Trazado_203637" data-name="Trazado 203637" d="M229.109,354.58c0,1.211,0,1.211-1.28,1.21-1.022,0-1.022,0-1.021-1.318,0-.984,0-.99,1.358-.981,1.089.007.926-.138.942,1.089" transform="translate(-183.244 -285.593)" fill="#010101"/>
        <path id="Trazado_203638" data-name="Trazado 203638" d="M247.976,355.79c-1.213,0-1.213,0-1.213-1.2,0-1.1,0-1.1,1.319-1.1.983,0,.99,0,.979,1.358-.008,1.091.145.926-1.085.943" transform="translate(-199.367 -285.593)" fill="#010101"/>
        <path id="Trazado_203639" data-name="Trazado 203639" d="M162.441,348.365a2.133,2.133,0,0,1,1.55,2.307,2.155,2.155,0,0,1-1.846,1.995c-1.158-.777-1.242-3.085-.311-4.113a.508.508,0,0,1,.607-.188" transform="translate(-130.238 -281.421)" fill="#90db5a"/>
        <path id="Trazado_203640" data-name="Trazado 203640" d="M155.238,348.01a2.373,2.373,0,0,0-1.042,2.409,4.493,4.493,0,0,0,.746,1.892,2.156,2.156,0,0,1-2.351-1.028,2.326,2.326,0,0,1,.136-2.523,2.18,2.18,0,0,1,2.51-.75" transform="translate(-123.035 -281.065)" fill="#64c27c"/>
        <path id="Trazado_203641" data-name="Trazado 203641" d="M107.621,348.347a2.146,2.146,0,0,1,1.56,2.325,2.118,2.118,0,0,1-1.882,1.983c-1.1-.629-1.152-3.07-.344-4.08a.555.555,0,0,1,.666-.228" transform="translate(-85.968 -281.407)" fill="#fee376"/>
        <path id="Trazado_203642" data-name="Trazado 203642" d="M100.319,347.994a2.507,2.507,0,0,0-1.034,2.322A5.228,5.228,0,0,0,100,352.3a2.144,2.144,0,0,1-2.323-1.051,2.271,2.271,0,0,1,.2-2.566,2.159,2.159,0,0,1,2.448-.691" transform="translate(-78.666 -281.055)" fill="#fdb555"/>
        <path id="Trazado_203643" data-name="Trazado 203643" d="M52.738,348.335a2.212,2.212,0,0,1-.185,4.312c-1.2-.528-1.272-3.146-.419-4.1a.534.534,0,0,1,.6-.208" transform="translate(-41.66 -281.406)" fill="#fd7855"/>
        <path id="Trazado_203644" data-name="Trazado 203644" d="M45.366,348.014c-.7.273-.834.919-.929,1.532a3.379,3.379,0,0,0,.745,2.78,2.217,2.217,0,0,1-2.416-1.019,2.246,2.246,0,0,1,.165-2.565,2.184,2.184,0,0,1,2.435-.728" transform="translate(-34.288 -281.084)" fill="#fd3f61"/>
      </g>
    </g>
  </g>
</svg>
