<svg xmlns="http://www.w3.org/2000/svg" xmlns:xlink="http://www.w3.org/1999/xlink" width="82.951" height="82.946" viewBox="0 0 82.951 82.946">
  <defs>
    <clipPath id="clip-path">
      <rect id="Rectángulo_87952" data-name="Rectángulo 87952" width="82.951" height="82.946" fill="none"/>
    </clipPath>
  </defs>
  <g id="Grupo_138023" data-name="Grupo 138023" transform="translate(6638.779 7723)">
    <g id="Grupo_137582" data-name="Grupo 137582" transform="translate(-6638.779 -7723)">
      <g id="Grupo_137582-2" data-name="Grupo 137582" clip-path="url(#clip-path)">
        <path id="Trazado_203645" data-name="Trazado 203645" d="M129.009,144.161a15.2,15.2,0,1,1,15.167-15.237,15.207,15.207,0,0,1-15.167,15.237" transform="translate(-87.498 -87.488)"/>
        <path id="Trazado_203646" data-name="Trazado 203646" d="M21.033,22.12c.294,1.207.577,2.346.848,3.487.323,1.357-.217,2.039-1.629,2.041q-5.054.008-10.108,0c-1.4,0-1.928-.693-1.6-2.063.227-.95.428-1.908.7-2.843.149-.507.061-.643-.473-.632-1.468.031-2.937.018-4.406.009A4.147,4.147,0,0,1,.009,17.8q-.017-6.739,0-13.477A4.126,4.126,0,0,1,4.292.008q10.929-.016,21.857,0a4.119,4.119,0,0,1,4.262,4.245q.025,6.825,0,13.65A4.131,4.131,0,0,1,26.2,22.116c-1.7.019-3.393,0-5.168,0" transform="translate(0 0)"/>
        <path id="Trazado_203647" data-name="Trazado 203647" d="M248.506,261.565c.293,1.205.575,2.342.846,3.482.324,1.358-.216,2.044-1.622,2.046q-5.054.009-10.108,0c-1.4,0-1.933-.692-1.607-2.058.22-.922.406-1.855.681-2.76.172-.566.106-.742-.53-.723-1.467.044-2.937.024-4.406.012a4.146,4.146,0,0,1-4.28-4.317q-.017-6.738,0-13.477a4.126,4.126,0,0,1,4.278-4.316q10.929-.017,21.857,0a4.119,4.119,0,0,1,4.267,4.24q.025,6.825,0,13.65a4.131,4.131,0,0,1-4.2,4.218c-1.7.019-3.393,0-5.172,0" transform="translate(-174.945 -184.153)"/>
        <path id="Trazado_203648" data-name="Trazado 203648" d="M251.427,15.153q0-5.355,0-10.709a4.154,4.154,0,0,1,4.42-4.435q5.268-.011,10.537,0a4.147,4.147,0,0,1,4.392,4.377q.011,10.839,0,21.678a4.142,4.142,0,0,1-4.333,4.35q-5.354.018-10.71,0a4.138,4.138,0,0,1-4.3-4.292c-.013-3.656,0-7.312,0-10.969" transform="translate(-193.366 -0.002)"/>
        <path id="Trazado_203649" data-name="Trazado 203649" d="M23.963,242.6q0-5.268,0-10.537c0-2.88,1.683-4.578,4.535-4.581q5.182-.005,10.364,0a4.154,4.154,0,0,1,4.45,4.406q.01,10.8,0,21.592a4.162,4.162,0,0,1-4.449,4.409q-5.225.01-10.45,0a4.172,4.172,0,0,1-4.449-4.495q-.007-5.4,0-10.8" transform="translate(-18.428 -174.952)"/>
        <path id="Trazado_203650" data-name="Trazado 203650" d="M267.027,192.129c0,.863-.019,1.726.009,2.588.013.4-.1.523-.518.54-2.255.09-2.255.1-2.255-2.161q0-1.424,0-2.847c0-1.482-.424-1.913-1.876-1.915-1.467,0-2.934-.015-4.4.009-.445.007-.644-.05-.651-.584-.03-2.19-.052-2.19,2.142-2.19,1.15,0,2.3-.017,3.451.005a4.13,4.13,0,0,1,4.092,4.053c.022.833,0,1.668,0,2.5Z" transform="translate(-197.906 -142.712)"/>
        <path id="Trazado_203651" data-name="Trazado 203651" d="M66.328,141.338c-.805,0-1.611.016-2.416,0a4.128,4.128,0,0,1-4.066-4.079c-.029-1.667.015-3.336-.02-5-.011-.516.175-.595.635-.6,2.142-.021,2.142-.035,2.142,2.1,0,1.093-.013,2.186,0,3.278a1.392,1.392,0,0,0,1.553,1.541c1.582.016,3.164.023,4.745-.007.481-.009.618.118.624.611.025,2.165.043,2.164-2.079,2.164H66.328" transform="translate(-46.011 -101.248)"/>
        <path id="Trazado_203652" data-name="Trazado 203652" d="M260.491,150.5c-.862,0-1.726-.028-2.587.011-.468.021-.557-.145-.566-.58-.046-2.2-.059-2.2,2.131-2.2,1.092,0,2.185.015,3.277-.005a1.385,1.385,0,0,0,1.51-1.5c.019-.689.027-1.381,0-2.069-.019-.427.081-.579.556-.59,2.218-.051,2.217-.069,2.217,2.113,0,3.23-1.582,4.813-4.809,4.813h-1.725" transform="translate(-197.905 -110.413)"/>
        <path id="Trazado_203653" data-name="Trazado 203653" d="M66.516,188.314c-.776,0-1.553-.011-2.329,0a1.4,1.4,0,0,0-1.561,1.533c-.013.46,0,.92,0,1.38,0,1.231,0,1.231-1.273,1.231-1.492,0-1.494,0-1.49-1.53a13.92,13.92,0,0,1,.041-1.809,4.123,4.123,0,0,1,4.026-3.565c1.667-.029,3.336.011,5-.019.488-.009.613.131.618.616.024,2.16.042,2.16-2.083,2.16h-.949" transform="translate(-46.03 -142.693)"/>
        <path id="Trazado_203654" data-name="Trazado 203654" d="M128.2,151.381h-.259c-1.747,0-1.761,0-1.327-1.671a12.947,12.947,0,0,1,2.314-4.67c.351-.456.559-.389,1.028-.142.848.446.961.96.685,1.839a12.691,12.691,0,0,0-.593,3.728c0,.759-.237,1.045-.988.924a5.457,5.457,0,0,0-.861-.007" transform="translate(-97.197 -111.29)" fill="#dff7f9"/>
        <path id="Trazado_203655" data-name="Trazado 203655" d="M216.225,151.031c-1.694,0-1.693,0-1.922-1.647a25.484,25.484,0,0,0-.7-3.626c-.308-1.059.756-.965,1.174-1.384.378-.378.559.211.736.432a12.677,12.677,0,0,1,2.442,5.346c.156.714-.028,1-.782.888a6.275,6.275,0,0,0-.946-.008" transform="translate(-164.234 -110.94)" fill="#dff7f9"/>
        <path id="Trazado_203656" data-name="Trazado 203656" d="M128.124,185.5c.573,0,1.27-.2,1.687.054.472.289.169,1.062.26,1.617.2,1.217.4,2.432.712,3.628.251.962-.758.9-1.159,1.319-.355.372-.528-.135-.7-.342a12.665,12.665,0,0,1-2.506-5.413c-.147-.677-.038-1.035.756-.908a6.049,6.049,0,0,0,.947.008v.037" transform="translate(-97.185 -142.604)" fill="#dff7f9"/>
        <path id="Trazado_203657" data-name="Trazado 203657" d="M216.444,185.5c1.925,0,1.919,0,1.414,1.858a12.833,12.833,0,0,1-2.268,4.5c-.31.4-.5.418-.959.164a1.341,1.341,0,0,1-.736-1.9,12.8,12.8,0,0,0,.6-3.81c.011-.61.155-.912.826-.817a8.025,8.025,0,0,0,1.118.009" transform="translate(-164.396 -142.644)" fill="#dff7f9"/>
        <path id="Trazado_203658" data-name="Trazado 203658" d="M187.507,158.542c-.714,0-1.671.281-2.08-.073-.485-.419-.142-1.4-.155-2.137-.025-1.451,0-1.437,1.414-1.709a15.75,15.75,0,0,0,1.831-.473c.413-.132.624-.095.721.383a27.324,27.324,0,0,1,.549,3.487c.033.462-.1.61-.554.583-.573-.034-1.15-.008-1.726-.008,0-.018,0-.035,0-.053" transform="translate(-142.408 -118.504)" fill="#dff7f9"/>
        <path id="Trazado_203659" data-name="Trazado 203659" d="M158.51,187.4c0,.6.212,1.343-.066,1.757-.224.333-1.043.255-1.592.387-.529.127-1.057.271-1.573.445-.367.123-.587.1-.679-.336a26.834,26.834,0,0,1-.554-3.485c-.035-.477.061-.661.581-.643,1.092.038,2.187.042,3.278,0,.535-.021.725.133.665.669a10.9,10.9,0,0,0-.009,1.207h-.051" transform="translate(-118.468 -142.683)" fill="#dff7f9"/>
        <path id="Trazado_203660" data-name="Trazado 203660" d="M187.843,185.561h1.036c1.266,0,1.293,0,1.137,1.228-.113.882-.336,1.749-.458,2.629-.083.6-.26.769-.889.543a8.549,8.549,0,0,0-2.343-.534c-.743-.043-.813-.376-.787-.966.035-.8.025-1.611,0-2.416-.011-.376.11-.508.49-.491.6.027,1.208.007,1.812.007" transform="translate(-142.692 -142.705)" fill="#dff7f9"/>
        <path id="Trazado_203661" data-name="Trazado 203661" d="M156.261,158.545H155.14c-1.175,0-1.208,0-1.068-1.132.121-.967.336-1.921.5-2.883.069-.407.2-.629.678-.445a10.693,10.693,0,0,0,2.847.643c.4.037.454.231.449.559-.011.92-.027,1.841.006,2.76.016.455-.188.518-.565.5-.574-.023-1.15-.006-1.725-.006" transform="translate(-118.45 -118.454)" fill="#dff7f9"/>
        <path id="Trazado_203662" data-name="Trazado 203662" d="M164.452,218.1a7.387,7.387,0,0,1-2.669-3c-.155-.3-.106-.462.241-.557.772-.212,1.634-.693,2.307-.385.389.178.1,1.223.117,1.877.021.63,0,1.262,0,2.062" transform="translate(-124.36 -164.628)" fill="#dff7f9"/>
        <path id="Trazado_203663" data-name="Trazado 203663" d="M185.569,218.109c0-1.337.012-2.481-.007-3.625-.006-.375.1-.537.486-.442.639.157,1.276.324,1.919.464.413.091.409.284.243.614a8.013,8.013,0,0,1-2.642,2.989" transform="translate(-142.712 -164.595)" fill="#dff7f9"/>
        <path id="Trazado_203664" data-name="Trazado 203664" d="M185.579,127.639a7.372,7.372,0,0,1,2.7,3.069c.144.291.015.417-.264.482-.669.155-1.335.324-2,.478-.254.058-.44.029-.436-.319.012-1.193,0-2.386,0-3.709" transform="translate(-142.722 -98.165)" fill="#dff7f9"/>
        <path id="Trazado_203665" data-name="Trazado 203665" d="M164.41,127.683c0,1.3-.011,2.474.006,3.642.006.372-.157.442-.467.375-.2-.042-.394-.075-.588-.126-1.983-.515-2.232-.112-.827-2.172a5.654,5.654,0,0,1,1.876-1.72" transform="translate(-124.318 -98.199)" fill="#dff7f9"/>
        <path id="Trazado_203666" data-name="Trazado 203666" d="M207.856,223.067c.025-.275-.015-.594.362-.54.069.01.182.111.178.161-.027.318-.31.311-.54.379" transform="translate(-159.858 -171.137)" fill="#4583cb"/>
        <path id="Trazado_203667" data-name="Trazado 203667" d="M149.567,134.29c0,.279-.029.522-.342.57-.072.011-.252-.16-.239-.2a.511.511,0,0,1,.581-.371" transform="translate(-114.582 -103.278)" fill="#4582ca"/>
        <path id="Trazado_203668" data-name="Trazado 203668" d="M206.908,134.066c.476.028.671.159.762.4.015.039-.145.207-.223.206-.339,0-.278-.34-.54-.61" transform="translate(-159.129 -103.108)" fill="#4a8bd9"/>
        <path id="Trazado_203669" data-name="Trazado 203669" d="M149.639,223.049a.549.549,0,0,1-.61-.383c-.015-.038.17-.221.235-.207.3.066.331.321.376.591" transform="translate(-114.614 -171.088)" fill="#4a8bd8"/>
        <path id="Trazado_203670" data-name="Trazado 203670" d="M32.692,23.046q-10.1.013-20.2.034c-.423,0-.529-.138-.527-.542.015-3.022,0-6.044.016-9.066a1.338,1.338,0,0,1,1.466-1.451q9.454-.007,18.908.017a1.235,1.235,0,0,1,.6,1.248c.05,2.989.029,5.978.012,8.967a1.032,1.032,0,0,1-.274.793" transform="translate(-9.199 -9.245)" fill="#a7e446"/>
        <path id="Trazado_203671" data-name="Trazado 203671" d="M31.893,74.468c-6.3.009-12.61.027-18.914.018a1.811,1.811,0,0,1-1.462-2.568c.17-.357.509-.178.764-.179q8.465-.016,16.93-.007c1.007,0,2.014.018,3.021.027a2.339,2.339,0,0,1-.339,2.708" transform="translate(-8.731 -55.14)" fill="#fc4b52"/>
        <path id="Trazado_203672" data-name="Trazado 203672" d="M100.6,23.027q.006-4.806.015-9.613a3.033,3.033,0,0,0-.356-1.395c1.007-.008,2.014-.036,3.02-.018a1.342,1.342,0,0,1,1.47,1.445c.02,3.022,0,6.044.016,9.065,0,.407-.124.557-.54.547-1.208-.028-2.416-.024-3.624-.033" transform="translate(-77.108 -9.226)" fill="#85b638"/>
        <path id="Trazado_203673" data-name="Trazado 203673" d="M100.305,74.562a5.438,5.438,0,0,0,.339-2.708c1.207-.009,2.414-.005,3.62-.036.412-.01.523.127.542.537.078,1.749-.359,2.238-2.088,2.234-.8,0-1.608-.018-2.412-.027" transform="translate(-77.143 -55.234)" fill="#972d31"/>
        <path id="Trazado_203674" data-name="Trazado 203674" d="M54.845,98.554c-1.318,0-2.636,0-3.953.017-.412.006-.524-.07-.427-.532.466-2.235.448-2.241,2.715-2.237.372,0,.743.024,1.115.038a3.561,3.561,0,0,1,.551,2.713" transform="translate(-38.786 -73.68)" fill="#88878f"/>
        <path id="Trazado_203675" data-name="Trazado 203675" d="M67.71,98.549l-.551-2.714c.227-.013.455-.035.683-.038,2.18-.023,2.328.125,2.588,2.307.056.471-.2.454-.495.454-.742,0-1.484-.006-2.226-.01" transform="translate(-51.651 -73.675)" fill="#2d2d30"/>
        <path id="Trazado_203676" data-name="Trazado 203676" d="M260.165,262.491q-10.1.013-20.2.034c-.423,0-.529-.138-.527-.542.015-3.022,0-6.044.016-9.066a1.338,1.338,0,0,1,1.465-1.451q9.454-.007,18.908.017a1.235,1.235,0,0,1,.6,1.248c.05,2.989.029,5.978.012,8.967a1.032,1.032,0,0,1-.274.793" transform="translate(-184.144 -193.398)" fill="#a7e446"/>
        <path id="Trazado_203677" data-name="Trazado 203677" d="M259.366,313.913c-6.3.009-12.61.027-18.914.018a1.811,1.811,0,0,1-1.462-2.568c.17-.357.509-.178.764-.179q8.465-.016,16.93-.007c1.007,0,2.014.018,3.021.027a2.339,2.339,0,0,1-.339,2.708" transform="translate(-183.676 -239.293)" fill="#fc4b52"/>
        <path id="Trazado_203678" data-name="Trazado 203678" d="M328.074,262.472q.006-4.806.015-9.613a3.032,3.032,0,0,0-.356-1.395c1.007-.008,2.014-.036,3.02-.018a1.342,1.342,0,0,1,1.47,1.445c.02,3.022,0,6.044.016,9.065,0,.407-.124.557-.54.547-1.208-.028-2.416-.024-3.624-.033" transform="translate(-252.054 -193.379)" fill="#85b638"/>
        <path id="Trazado_203679" data-name="Trazado 203679" d="M327.778,314.007a5.441,5.441,0,0,0,.339-2.708c1.207-.009,2.413-.005,3.619-.036.412-.01.523.127.542.537.078,1.749-.359,2.238-2.088,2.234-.8,0-1.608-.018-2.412-.027" transform="translate(-252.088 -239.387)" fill="#972d31"/>
        <path id="Trazado_203680" data-name="Trazado 203680" d="M282.317,338c-1.318,0-2.636,0-3.953.017-.412.006-.524-.07-.427-.532.466-2.235.448-2.241,2.716-2.237.372,0,.743.025,1.115.038a3.561,3.561,0,0,1,.551,2.713" transform="translate(-213.731 -257.833)" fill="#88878f"/>
        <path id="Trazado_203681" data-name="Trazado 203681" d="M295.182,337.993l-.551-2.713c.227-.013.455-.036.683-.038,2.179-.023,2.328.125,2.588,2.308.056.471-.2.454-.495.454-.742,0-1.484-.006-2.226-.01" transform="translate(-226.596 -257.827)" fill="#2d2d30"/>
        <path id="Trazado_203682" data-name="Trazado 203682" d="M272.724,36.977c-2.589.008-5.178.027-7.767.019-1.076,0-1.554-.548-1.555-1.716q-.006-8.329,0-16.659c0-1.611,0-3.222,0-4.834a1.713,1.713,0,0,1,.309-1.138,1.058,1.058,0,0,1,.871-.487c.413.04.205.466.26.707a4.18,4.18,0,0,0,4.115,3.389,18.753,18.753,0,0,0,4.125-.171,1.457,1.457,0,0,1,.275,1.137q.01,9.04,0,18.08c0,.617.061,1.294-.623,1.673" transform="translate(-202.575 -9.351)" fill="#a7e446"/>
        <path id="Trazado_203683" data-name="Trazado 203683" d="M303.785,36.948a3.337,3.337,0,0,0,.358-1.66q-.013-9.615-.006-19.23a4.411,4.411,0,0,0,2.746-3.578c.044-.384.2-.42.505-.291a1.508,1.508,0,0,1,.9,1.6q-.016,6.339-.005,12.677,0,4.312,0,8.624c0,1.457-.43,1.879-1.913,1.877-.862,0-1.724-.015-2.586-.024" transform="translate(-233.636 -9.323)" fill="#85b638"/>
        <path id="Trazado_203684" data-name="Trazado 203684" d="M281.262,11.965c1.752,0,3.419.012,5.085-.007.505-.006.518.187.337.562a1.361,1.361,0,0,1-1.3.824c-.863.008-1.726.007-2.589,0-.838,0-1.326-.428-1.529-1.381" transform="translate(-216.314 -9.196)" fill="#fddc54"/>
        <path id="Trazado_203685" data-name="Trazado 203685" d="M45.252,264.449c-2.589.008-5.178.027-7.767.019-1.076,0-1.554-.548-1.555-1.716q-.006-8.329,0-16.659c0-1.611,0-3.222,0-4.834a1.713,1.713,0,0,1,.309-1.138,1.058,1.058,0,0,1,.871-.487c.413.04.205.466.26.707a4.18,4.18,0,0,0,4.115,3.389,18.749,18.749,0,0,0,4.124-.171,1.456,1.456,0,0,1,.275,1.137q.01,9.04,0,18.08c0,.617.061,1.294-.623,1.673" transform="translate(-27.63 -184.296)" fill="#a7e446"/>
        <path id="Trazado_203686" data-name="Trazado 203686" d="M76.313,264.42a3.337,3.337,0,0,0,.358-1.66q-.013-9.615-.006-19.23a4.411,4.411,0,0,0,2.746-3.578c.044-.384.2-.42.506-.291a1.509,1.509,0,0,1,.9,1.6q-.016,6.339-.005,12.677,0,4.312,0,8.624c0,1.457-.43,1.879-1.913,1.877-.862,0-1.724-.015-2.586-.024" transform="translate(-58.691 -184.267)" fill="#85b638"/>
        <path id="Trazado_203687" data-name="Trazado 203687" d="M56.785,239.315c.777,0,1.554.015,2.33-.006.447-.012.478.167.321.516a1.344,1.344,0,0,1-1.276.866c-.92.017-1.841,0-2.762.005a1.362,1.362,0,0,1-.8-.271c-.32-.226-.61-.569-.526-.928.092-.392.537-.153.817-.17.631-.039,1.265-.012,1.9-.012" transform="translate(-41.573 -184.019)" fill="#fddc54"/>
      </g>
    </g>
  </g>
</svg>
